<?xml version="1.0" standalone="no"?>
<!DOCTYPE svg PUBLIC "-//W3C//DTD SVG 1.1//EN" "http://www.w3.org/Graphics/SVG/1.1/DTD/svg11.dtd" >
<!--
2013-9-30: Created.
-->
<svg>
<metadata>
Created by iconfont
</metadata>
<defs>

<font id="iconfont" horiz-adv-x="1024" >
  <font-face
    font-family="iconfont"
    font-weight="500"
    font-stretch="normal"
    units-per-em="1024"
    ascent="896"
    descent="-128"
  />
    <missing-glyph />
    
    <glyph glyph-name="T" unicode="&#58880;" d="M217.81617778 702.94186667v-98.304h245.39591111v-539.57973334h98.304V604.63786667h245.39591111V702.94186667H217.81617778z"  horiz-adv-x="1024" />

    
    <glyph glyph-name="gpszuobiao" unicode="&#58897;" d="M507.022 683.873c86.393 0 156.436-69.65 156.436-155.576 0-85.928-70.042-155.578-156.436-155.578v-435.745l2.2-0.1h2.2c21.898 0.538 42.497 14.762 42.497 46.143 0 223.76 265.945 352.507 265.945 544.448 0 171.854-140.033 311.157-312.843 311.157v-154.749z m0-311.153c-86.39 0-156.406 69.65-156.406 155.578 0 85.926 70.016 155.576 156.406 155.576V838.622c-172.781 0-312.816-139.303-312.816-311.157 0-213.302 265.92-321.615 265.92-544.448 0-27.96 23.461-44.674 46.896-46.043V372.72z"  horiz-adv-x="1024" />

    
    <glyph glyph-name="icon13" unicode="&#58888;" d="M513.261737 206.464561c-6.304589 0-12.608156 2.317789-17.535375 6.955412l-322.82036 303.905568c-10.287297 9.685593-10.776438 25.875321-1.090844 36.163641 9.683547 10.287297 25.875321 10.774391 36.162618 1.090844l305.216423-287.333124 302.756395 287.264563c10.247388 9.724479 26.441209 9.299807 36.166711-0.949628 9.724479-10.250458 9.299807-26.442232-0.949628-36.167734l-320.295863-303.905568C525.936407 208.806909 519.599072 206.464561 513.261737 206.464561z"  horiz-adv-x="1024" />

    
    <glyph glyph-name="riqi2" unicode="&#59032;" d="M860.16 680.3199999999999c10.88-10.88 16.64-24.96 17.28-41.6V76.79999999999995c-0.64-16.64-6.4-30.72-17.28-41.6s-24.96-16.64-41.6-17.28H205.44c-16.64 0.64-30.72 6.4-41.6 17.28-10.88 10.88-16.64 24.96-17.28 41.6V638.72c0.64 16.64 6.4 30.72 17.28 41.6 10.88 10.88 24.96 16.64 41.6 17.28h97.92v23.04c0 8.32 3.2 15.36 8.96 21.12 5.76 5.76 12.8 8.96 21.12 8.96 8.32 0 15.36-3.2 21.12-8.96 5.76-5.76 8.96-12.8 8.96-21.12V697.6h300.16v23.04c0 8.32 3.2 15.36 8.96 21.12 5.76 5.76 12.8 8.96 21.12 8.96s15.36-3.2 21.12-8.96c5.76-5.76 8.96-12.8 8.96-21.12V697.6h97.92c14.08-0.64 27.52-6.4 38.4-17.28zM205.44 547.2H819.2V638.72h-97.92v-16c0-8.32-3.2-15.36-8.96-21.12-5.76-5.76-12.8-8.96-21.12-8.96s-15.36 3.2-21.12 8.96c-5.76 5.76-8.96 12.8-8.96 21.12v16H362.24v-16c0-8.32-3.2-15.36-8.96-21.12-5.76-5.76-12.8-8.32-21.12-8.32s-15.36 3.2-21.12 8.96c-5.76 5.76-8.96 12.8-8.96 21.12v16H205.44v-92.16z m613.12-58.88H205.44v-410.88H819.2l-0.64 410.88zM310.4 376.32000000000005c-5.12-5.12-7.68-11.52-7.68-18.56 0-7.68 2.56-14.08 7.68-18.56 5.12-5.12 11.52-7.68 18.56-7.68h52.48c7.68 0 14.08 2.56 18.56 7.68 5.12 5.12 7.68 11.52 7.68 18.56 0 7.68-2.56 14.08-7.68 18.56-5.12 5.12-11.52 7.68-18.56 7.68h-52.48c-7.68 0-13.44-2.56-18.56-7.68z m0-158.08c-5.12-5.12-7.68-11.52-7.68-18.56 0-7.68 2.56-14.08 7.68-18.56 5.12-5.12 11.52-7.68 18.56-7.68h52.48c7.68 0 14.08 2.56 18.56 7.68 5.12 5.12 7.68 11.52 7.68 18.56 0 7.68-2.56 14.08-7.68 18.56-5.12 5.12-11.52 7.68-18.56 7.68h-52.48c-7.68 0-13.44-2.56-18.56-7.68zM467.2 376.32000000000005c-5.12-5.12-7.68-11.52-7.68-18.56 0-7.68 2.56-14.08 7.68-18.56 5.12-5.12 11.52-7.68 18.56-7.68h52.48c7.68 0 14.08 2.56 18.56 7.68 5.12 5.12 7.68 11.52 7.68 18.56 0 7.68-2.56 14.08-7.68 18.56-5.12 5.12-11.52 7.68-18.56 7.68H486.4c-8.32 0-14.72-2.56-19.2-7.68z m0-158.08c-5.12-5.12-7.68-11.52-7.68-18.56 0-7.68 2.56-14.08 7.68-18.56s11.52-7.68 18.56-7.68h52.48c7.68 0 14.08 2.56 18.56 7.68 5.12 5.12 7.68 11.52 7.68 18.56 0 7.68-2.56 14.08-7.68 18.56-5.12 5.12-11.52 7.68-18.56 7.68H486.4c-8.32 0-14.72-2.56-19.2-7.68z m156.8 158.08c-5.12-5.12-7.68-11.52-7.68-18.56 0-7.68 2.56-14.08 7.68-18.56 5.12-5.12 11.52-7.68 18.56-7.68h52.48c7.68 0 14.08 2.56 18.56 7.68 5.12 5.12 7.68 11.52 7.68 18.56 0 7.68-2.56 14.08-7.68 18.56s-11.52 7.68-18.56 7.68h-52.48c-7.68 0-14.08-2.56-18.56-7.68z"  horiz-adv-x="1024" />

    
    <glyph glyph-name="iconjing" unicode="&#58891;" d="M818.02884741 460.89557333v93.20675556H729.48242963l41.16631704 194.18074074H675.11182222l-41.16631704-194.18074074h-178.64628148l41.94304 194.18074074H403.25878518l-41.94304-194.18074074H212.1849363v-93.20675556h131.26618073l-31.84564148-155.34459258H212.1849363v-93.20675557h79.22574222l-40.38959407-194.18074073h96.3136474l38.83614815 194.18074073H566.37060741l-41.94304-194.18074073H620.74121482l41.16631703 194.18074073h156.12131556v93.20675557h-138.25668741l31.06891852 155.34459258h107.18776889z m-233.01688889-155.34459258h-178.64628149l31.84564149 155.34459258h178.64628148l-31.84564148-155.34459258z"  horiz-adv-x="1040" />

    
    <glyph glyph-name="iconfont_bi_barX" unicode="&#59120;" d="M28.16 103.68h966.4v-44.8H28.16zM194.56 462.08h121.6v-320h-121.6zM552.96 583.68h121.6v-441.6h-121.6zM354.56 705.28h121.6v-563.2h-121.6zM712.96 506.88h121.6v-364.8h-121.6z"  horiz-adv-x="1024" />

    
    <glyph glyph-name="iconfont_bi_line" unicode="&#59122;" d="M28.16 110.08h966.4v-44.8H28.16zM889.6 345.6L336 549.12 141.44 451.84l-34.56 68.48 224.64 112.64 584.32-215.68zM151.04 204.16l-54.4 54.4 233.6 233.6 119.68-90.24 300.16 300.16 176.64-140.8-48-60.16-122.88 98.56L456.96 300.8 337.28 390.4z"  horiz-adv-x="1024" />

    
    <glyph glyph-name="iconfont_bi_line1" unicode="&#59123;" d="M25.6 103.67999999999995h966.4v-44.8H25.6v44.8zM888.32 339.20000000000005L334.72 542.72 139.52 445.44l-33.92 68.48 224.64 112.64L914.56 410.88l-26.24-71.68zM149.76 197.76L95.36 252.15999999999997 328.96 485.76 448.64 395.52l300.16 300.16 176.64-140.8-48-60.16-122.88 98.56L455.68 294.4 336 384 149.76 197.76z"  horiz-adv-x="1024" />

    
    <glyph glyph-name="iconfont_bi_map1" unicode="&#59125;" d="M984.96 671.36l9.6 7.04h-12.8V701.44L962.56 682.88V673.28l-25.6-9.6V673.28l-12.8 9.6V691.2h-7.04l-19.2 6.4h-19.2L869.12 716.8l-37.12 38.4h-19.2c0 6.4-3.84 10.88-10.24 11.52v-5.12h0.64-13.44V762.88L783.36 755.2h-9.6c-6.4 0-11.52-1.92-11.52-8.32l7.68-8.32v-8.96l-6.4-28.16v-18.56l-19.2-10.88h-19.2v-7.68l-12.8-17.28v-18.56l12.8 5.76h28.8l9.6 11.52L773.12 637.44c6.4-6.4 9.6-12.8 9.6-19.2-12.8 0-19.2-3.2-19.2-9.6h-9.6l-22.4-8.32v-9.6l-7.68-9.6-17.92-9.6v-14.72H686.08l-18.56 14.72v-28.16l-32-28.16v-9.6h-24.96c-19.2 0-35.2-6.4-48-19.2h-23.04v6.4h-5.76c0-6.4-3.2-5.12-9.6 1.28L487.68 512h-9.6c-6.4-6.4-12.8-6.4-19.2 0h-25.6l-1.28 3.2V512h-12.8v12.8l-12.8-9.6V524.8l-6.4 18.56V550.4H391.68c0 6.4-3.2 12.8-9.6 19.2H372.48c-6.4 6.4-17.28 11.52-36.48 11.52v9.6L345.6 609.28l-9.6 9.6V637.44L325.12 646.4h-8.96V652.8h-12.8v19.2h-7.04l-19.2-19.2h-11.52v-15.36l-8.32-9.6c-6.4 0-16.64 6.4-29.44 18.56l-19.84-28.16v-10.24h-38.4v-51.2h-6.4c0-6.4-6.4-3.84-12.8-3.84v-15.36h-35.84L104.96 531.2h-9.6l-9.6-12.8h-12.16v12.8h-38.4v-24.96l12.8-7.68v-31.36h-19.2l9.6-12.8h8.32c6.4-6.4 7.04-6.4 0.64-12.16v-13.44H56.32l9.6-6.4h19.84V404.48c0-6.4 2.56-14.08 8.96-14.08h10.24V384h-10.24l-9.6-8.32 9.6-20.48-9.6-9.6H72.96v-14.72c-6.4 0-3.84-4.48 2.56-10.88h9.6l28.8-32h9.6l28.8-25.6h9.6V256l9.6-12.8h9.6v-12.8h9.6l9.6-6.4h8.32l9.6-6.4H227.84c12.8 6.4 19.2 6.4 19.2 0.64-6.4 0-6.4-3.2 0-8.96L266.24 227.84000000000003l19.2-9.6h10.88v-12.8h6.4v-5.12c0-5.12 5.76-14.08 12.16-14.08h19.2l9.6 19.2H353.28l17.92 12.8h19.2l9.6-12.8h5.12v13.44c12.8 0 12.16-3.2 12.16-9.6l10.88 9.6 10.24 18.56-9.6-18.56 19.2 18.56-9.6 9.6 10.88-9.6-18.56-18.56v-13.44h-12.8v-6.4h10.88l3.2-1.92 3.84-1.28 1.28-0.64v-7.68l-6.4-23.04v-9.6l-12.8 9.6-12.8-28.16v-14.08h25.6v-19.2h19.2v-4.48l-10.24-12.16 18.56-21.76h9.6l7.68 15.36v-21.76h12.8v25.6H496.64l8.96 12.16 8.96-6.4v9.6l19.2-9.6v6.4h10.24l19.2 10.88 7.04 8.32h0.64L563.2 102.39999999999998h-3.84v-6.4h32V76.79999999999995h10.24l8.96-7.04V79.36000000000001l10.24-15.36H629.76v15.36l6.4-9.6v-9.6l12.8 9.6V79.36000000000001l12.8-9.6v-37.76h-16l-8.96-10.88c-5.76-6.4-5.76-14.72 0-21.12h17.92l8.96 6.4h10.88v32h-6.4v25.6h7.68l5.12-4.48v4.48h12.8V76.79999999999995h22.4l9.6 6.4h9.6L725.76 102.39999999999998h9.6l9.6-6.4h6.4V102.39999999999998h12.8l6.4-4.48V102.39999999999998h12.8l17.92 21.12-11.52 10.88 12.16-8.32v-4.48h6.4v14.08l13.44 5.12h5.76v19.2h12.8v6.4h6.4V179.20000000000005h-5.76l7.68 7.04-1.92 7.04v5.12h12.8v19.84l8.96 5.76h10.24v19.2h-12.8v6.4h12.8v16l-10.24 3.2h-8.96V281.6h8.96l9.6 9.6-9.6 9.6h9.6l-10.88 10.24-20.48 10.24v9.6l-14.72 21.12H808.96v14.72l12.8 9.6V384h10.24l-9.6 6.4h9.6l28.16 32.64V428.8h-12.8v-6.4h-5.76l-9.6 9.6-9.6-8.96V409.6h-19.2v19.2H793.6l-7.68-5.76-0.64 0.64h-1.28v0.64l1.28 0.64 7.68 10.88-8.96-7.68v0.64h-12.8v13.44-0.64h3.2l-3.2 5.12v7.68h32v16l19.2 18.56v3.84h19.2v-25.6h6.4V460.8l21.76 12.8h10.24v15.36l8.96 9.6 9.6 17.28 9.6 7.68c0 6.4 3.2 7.68 9.6 7.68H936.96L927.36 537.6H936.96l9.6 12.8h10.24v21.12l8.96-14.72h9.6l-9.6 12.8h10.24V581.12l-12.8 13.44L954.88 601.6h1.28l7.04-3.84V609.28c-6.4 6.4-5.12 8.96 1.28 8.96l10.88 8.96h9.6l9.6 10.24v18.56l-9.6 15.36zM913.92 147.20000000000005l-10.24 14.08-19.84-21.76c0-7.68-3.2-10.88-10.24-10.88l10.24-22.4-10.88-11.52 19.2-11.52v11.52l12.8 11.52v23.04l8.96 5.12h-8.96v12.8h8.96zM693.12 465.28c0-33.22368 26.93632-60.16 60.16-60.16s60.16 26.93632 60.16 60.16-26.93632 60.16-60.16 60.16-60.16-26.93632-60.16-60.16zM410.88 364.79999999999995c-0.01024-27.92448 22.61504-50.57024 50.53952-50.58048 27.92448-0.01024 50.57024 22.61504 50.58048 50.53952v0.03584c0.01024 27.92448-22.61504 50.57024-50.53952 50.58048s-50.57024-22.61504-50.58048-50.53952v-0.03584zM571.52 163.84000000000003c-0.01024-27.92448 22.61504-50.57024 50.53952-50.58048 27.92448-0.01024 50.57024 22.61504 50.58048 50.53952v0.03584c0.01024 27.92448-22.61504 50.57024-50.53952 50.58048s-50.57024-22.61504-50.58048-50.53952V163.84000000000003zM693.12 274.55999999999995c-0.02048-49.83808 40.36096-90.25536 90.19904-90.28096 49.83808-0.02048 90.25536 40.36096 90.28096 90.19904v0.0768c0.02048 49.83808-40.36096 90.25536-90.19904 90.28096-49.83808 0.02048-90.25536-40.36096-90.28096-90.19904v-0.0768z"  horiz-adv-x="1024" />

    
    <glyph glyph-name="iconfont_bi_map" unicode="&#59128;" d="M984.32 670.72l9.6 7.68h-12.16v21.76l-19.2-18.56V672l-25.6-9.6V672l-12.8 9.6V691.2h-7.68l-19.2 6.4h-19.2l-9.6 19.2-37.12 38.4h-19.2c0 6.4-3.2 9.6-9.6 10.24v-3.84h-12.8l-6.4-6.4h-9.6c-6.4 0-10.88-2.56-10.88-8.96l8.32-8.96v-9.6l-6.4-28.16v-18.56l-19.84-9.6h-18.56v-8.96l-12.8-17.28v-18.56l12.16 7.04h28.8l9.6 10.88 9.6-8.96c6.4-6.4 9.6-12.16 9.6-18.56-12.8 0-19.2-2.56-19.2-8.96h-9.6l-22.4-9.6V588.8l-7.68-9.6-17.92-9.6v-12.8h-19.84l-18.56 13.44v-28.16l-32-28.16V505.6h-24.96c-19.2 0-35.2-6.4-48-19.2h-22.4v6.4h-6.4c0-6.4-3.2-5.12-9.6 1.28L487.04 512h-9.6c-6.4-6.4-12.8-6.4-19.2 0h-25.6l-1.28 1.92v-1.92h-12.8v11.52l-12.8-9.6v9.6l-6.4 18.56V550.4H390.4c0 6.4-3.2 12.8-9.6 19.2H371.2c-6.4 6.4-16.64 10.24-35.84 10.24v9.6l9.6 18.56-9.6 9.6v18.56L324.48 646.4h-8.32v6.4h-12.8v19.2h-7.68l-19.2-19.2h-11.52v-16.64L256 626.56c-6.4 0-16.64 6.4-29.44 18.56l-19.84-28.16V608h-38.4v-51.2h-7.04c0-6.4-5.76-5.12-12.16-5.12V537.6h-35.84l-9.6-6.4h-9.6l-9.6-12.8h-12.16v12.8h-38.4v-26.24l12.8-7.68V467.2H28.8L38.4 454.4h8.32c6.4-6.4 7.68-7.68 1.28-13.44V428.8h8.32l9.6-6.4h20.48v-19.2c0-6.4 2.56-12.8 8.96-12.8h10.24v-6.4h-10.24l-9.6-8.96 9.6-19.84-10.24-9.6h-12.16v-16c-6.4 0-3.84-3.2 2.56-9.6h9.6l28.8-32h9.6l28.8-25.6h10.24v-7.68l8.96-11.52h10.24v-12.8h9.6l9.6-6.4h8.32l9.6-6.4h9.6c12.8 6.4 19.2 5.76 19.2 0-6.4 0-6.4-3.2 0-9.6l19.2 19.2 19.2-8.96h10.88v-12.8h6.4v-6.4c0-5.12 5.12-12.8 11.52-12.8h19.2l9.6 19.2h9.6l17.92 12.8h19.2l9.6-12.8h5.76V217.60000000000002c12.8 0 11.52-3.2 11.52-9.6l10.88 9.6 10.24 18.56L428.8 217.60000000000002l19.2 18.56-9.6 9.6 10.88-9.6-17.92-18.56v-12.16h-12.8v-6.4h10.88l3.2-2.56 3.84-1.92 1.92-1.28v-7.68l-6.4-23.04v-9.6l-12.8 9.6-12.8-28.16v-12.8h25.6v-19.2h19.2v-5.76l-10.88-11.52 18.56-21.12h9.6l8.32 14.08v-20.48h12.8v25.6h7.68l8.96 11.52 8.96-7.68v9.6l19.2-9.6V96H544l19.2 10.88 7.04 8.32h0.64l-7.68-12.8h-3.2v-6.4h32v-19.2H601.6l8.96-8.32v9.6L620.8 64h8.96v14.08l6.4-9.6v-9.6l12.8 9.6v9.6l12.8-9.6V32h-16.64l-8.96-10.88c-5.76-6.4-5.76-14.72 0-21.12h17.92l8.96 6.4h11.52v32h-6.4v25.6h7.68l5.12-5.76v5.76h12.8v12.8h21.76l9.6 6.4h9.6l-9.6 19.2h9.6l9.6-6.4h7.04v6.4h12.8l6.4-5.76v5.76h12.8l17.92 20.48-11.52 10.88 12.8-8.96v-3.2h6.4v12.8l12.8 6.4h6.4v19.2h12.8v6.4h6.4v12.8h-6.4l8.32 6.4-1.92 6.4v6.4h12.8v18.56l8.32 7.04h10.88v19.2h-12.8v6.4h12.8v14.72l-10.88 4.48h-8.32v12.8h8.32l9.6 9.6-9.6 9.6h9.6l-10.88 9.6-20.48 9.6v9.6l-16 22.4h-22.4v13.44l12.8 9.6V384h9.6l-9.6 6.4h9.6l28.8 31.36V428.8h-12.8v-6.4h-6.4l-9.6 8.96-9.6-9.6V409.6h-19.2v19.2h-9.6l-7.68-7.04H782.72V422.4l1.28 0.64 8.32 10.88-8.96-7.68V428.8h-12.8v12.8h3.2l-3.2 3.84V454.4h32v14.72l19.2 18.56V492.8h19.2v-25.6h6.4v-7.68l21.12 14.08h10.88v14.08l8.96 9.6 9.6 17.28 9.6 8.32c0 6.4 3.2 8.32 9.6 8.32h19.2l-9.6 6.4h9.6l9.6 12.8h10.24v19.84l8.96-13.44h9.6l-9.6 12.8h10.24v10.24l-12.8 13.44L953.6 601.6h1.28l7.68-5.12V608c-6.4 6.4-5.12 9.6 1.28 9.6l10.88 9.6h9.6l10.24 8.96v18.56l-10.24 16zM913.28 147.20000000000005l-10.24 13.44-19.84-21.76c0-7.68-3.2-10.88-10.24-10.88l10.24-23.04-10.88-11.52 19.2-11.52v11.52l12.8 11.52V128l8.32 6.4h-8.32v12.8h8.96zM752.64 464m-60.16 0a60.16 60.16 0 1 1 120.32 0 60.16 60.16 0 1 1-120.32 0ZM460.8 363.52m-50.56 0a50.56 50.56 0 1 1 101.12 0 50.56 50.56 0 1 1-101.12 0ZM622.08 162.55999999999995m-50.56 0a50.56 50.56 0 1 1 101.12 0 50.56 50.56 0 1 1-101.12 0ZM782.72 273.28m-90.24 0a90.24 90.24 0 1 1 180.48 0 90.24 90.24 0 1 1-180.48 0Z"  horiz-adv-x="1024" />

    
    <glyph glyph-name="iconfont-help" unicode="&#59132;" d="M512 775.04c-215.68 0-391.04-175.36-391.04-391.04s175.36-391.04 391.04-391.04 391.04 175.36 391.04 391.04S727.68 775.04 512 775.04z m0-730.88c-187.52 0-339.84 152.32-339.84 339.84S324.48 723.84 512 723.84s339.84-152.32 339.84-339.84-152.32-339.84-339.84-339.84zM507.52 224c-10.88 0-21.12-4.48-28.16-12.16-7.68-7.04-11.52-17.92-11.52-28.16-0.64-10.88 3.84-21.12 11.52-28.8 16-14.72 40.32-14.72 56.32 0 7.68 7.04 12.16 17.28 12.16 28.16 0 10.24-3.84 21.12-11.52 28.8-7.04 7.68-17.92 12.16-28.8 12.16zM517.76 624c-41.6 2.56-81.92-14.72-110.72-44.8-27.52-30.08-41.6-67.2-39.04-112h51.84c-1.28 32 6.4 55.04 21.76 77.44 17.28 22.4 44.8 35.2 73.6 32.64 23.68 1.92 47.36-6.4 64.64-23.04 15.36-16.64 23.68-38.4 22.4-61.44 0-19.2-7.04-37.76-19.84-51.84-7.04-8.32-14.72-16-22.4-23.68-26.88-21.12-48.64-47.36-65.92-76.8-8.32-17.92-11.52-37.76-11.52-57.6V268.8h51.2v14.72c0 16.64 4.48 33.28 12.8 48 8.32 14.08 18.56 26.24 31.36 36.48 18.56 16 36.48 32.64 53.76 50.56 16.64 22.4 25.6 49.28 24.96 77.44 1.92 35.2-11.52 69.12-37.12 92.8-28.16 24.96-64.64 37.12-101.76 35.2z"  horiz-adv-x="1024" />

    
    <glyph glyph-name="iconfont_bi_barX1" unicode="&#59133;" d="M28.16 103.67999999999995h966.4v-44.8H28.16v44.8zM194.56 462.08h121.6v-320H194.56v320zM552.96 583.6800000000001h121.6v-441.6H552.96V583.6800000000001zM354.56 705.28H476.16v-563.2H354.56v563.2z m358.4-198.4H834.56v-364.8h-121.6V506.88z"  horiz-adv-x="1024" />

    
    <glyph glyph-name="iconfont_bi_clean" unicode="&#59134;" d="M512 433.92L328.32 617.6c-14.08 14.08-36.48 14.08-49.92 0-14.08-14.08-14.08-36.48 0-49.92L462.08 384l-183.68-183.68c-14.08-14.08-14.08-36.48 0-49.92 14.08-14.08 36.48-14.08 49.92 0L512 334.08l183.68-183.68c14.08-14.08 36.48-14.08 49.92 0 14.08 14.08 14.08 36.48 0 49.92L561.92 384l183.68 183.68c14.08 14.08 14.08 36.48 0 49.92-14.08 14.08-36.48 14.08-49.92 0L512 433.92z"  horiz-adv-x="1024" />

    
    <glyph glyph-name="iconfont_bi_edit" unicode="&#59136;" d="M214.4 241.92v-113.28h113.28l327.04 330.24-113.28 113.28-327.04-330.24z m526.72 303.36c12.16 12.16 12.16 30.08 0 41.6l-68.48 68.48c-12.16 12.16-29.44 12.16-41.6 0L577.28 601.6l113.28-113.28 50.56 56.96z m-258.56-356.48l-59.52-59.52h386.56v59.52H482.56z"  horiz-adv-x="1024" />

    
    <glyph glyph-name="iconfont_bi_add" unicode="&#59140;" d="M476.8 419.2H216.96c-19.84 0-35.2-16-35.2-35.2 0-19.84 16-35.2 35.2-35.2h259.84v-259.84c0-19.84 16-35.2 35.2-35.2s35.2 16 35.2 35.2V348.8h259.84c19.84 0 35.2 16 35.2 35.2 0 19.84-16 35.2-35.2 35.2H547.2V679.04c0 19.84-16 35.2-35.2 35.2-19.84 0-35.2-16-35.2-35.2v-259.84z"  horiz-adv-x="1024" />

    
    <glyph glyph-name="iconfont_bi_table1" unicode="&#59142;" d="M213.76 499.2H284.16V460.8H213.76v38.4z m0-300.8H284.16v-38.4H213.76v38.4z m524.8 300.8h76.8V460.8h-76.8v38.4z m0-300.8h76.8v-38.4h-76.8v38.4z m-262.4 0h70.4v-38.4H476.16v38.4zM885.76 537.6v-115.2h-224V537.6h-38.4v-115.2H399.36V537.6h-38.4v-115.2H136.96V537.6h-38.4v-454.4H924.16V537.6H885.76zM213.76 345.6H284.16v-38.4H213.76v38.4z m147.2-224H136.96V230.39999999999998H360.96v-108.8zM476.16 345.6h70.4v-38.4H476.16v38.4z m147.2-224H399.36V230.39999999999998h224v-108.8z m115.2 224h76.8v-38.4h-76.8v38.4zM885.76 121.60000000000002h-224V230.39999999999998H885.76v-108.8zM476.16 499.2h70.4V460.8H476.16v38.4zM924.16 537.6v-3.2V684.8H98.56V537.6H924.16z"  horiz-adv-x="1024" />

    
    <glyph glyph-name="iconfont_bi_table" unicode="&#59143;" d="M213.76 499.2h70.4v-38.4h-70.4zM213.76 198.39999999999998h70.4v-38.4h-70.4zM738.56 499.2h76.8v-38.4h-76.8zM738.56 198.39999999999998h76.8v-38.4h-76.8zM476.16 198.39999999999998h70.4v-38.4h-70.4zM885.76 537.6v-115.2h-224V537.6h-38.4v-115.2h-224V537.6h-38.4v-115.2h-224V537.6h-38.4v-454.4h825.6V537.6h-38.4z m-672-192h70.4v-38.4h-70.4v38.4z m147.2-224h-224v108.8h224v-108.8z m115.2 224h70.4v-38.4h-70.4v38.4z m147.2-224h-224v108.8h224v-108.8z m115.2 224h76.8v-38.4h-76.8v38.4z m147.2-224h-224v108.8h224v-108.8zM476.16 499.2h70.4v-38.4h-70.4zM924.16 537.6v-3.2V684.8h-825.6v-147.2h787.84z"  horiz-adv-x="1024" />

    
    <glyph glyph-name="iconfont_bi_circle" unicode="&#59144;" d="M793.6 384c0-155.52-126.08-281.6-281.6-281.6s-281.6 126.08-281.6 281.6 126.08 281.6 281.6 281.6h2.56V800.64c-230.4 0-417.28-186.24-417.28-416s185.6-416 415.36-416S928 153.60000000000002 928 384h-134.4zM789.76 428.8h135.68c-21.76 198.4-167.68 347.52-366.08 369.28v-136.32c118.4-20.48 211.84-113.92 230.4-232.96z"  horiz-adv-x="1024" />

    
    <glyph glyph-name="iconfont_bi_circle1" unicode="&#59145;" d="M789.12 435.2h136.32c-21.76 185.6-186.88 339.2-366.08 360.96v-134.4C675.84 641.92 767.36 551.04 789.12 435.2zM793.6 384c0-155.52-126.08-281.6-281.6-281.6s-281.6 126.08-281.6 281.6c0 154.24 124.16 279.68 277.76 281.6V798.72c-230.4 0-412.8-185.6-412.8-414.72s186.88-414.72 416-414.72 416 184.96 416 415.36H793.6V384z"  horiz-adv-x="1024" />

    
    <glyph glyph-name="iconfont_bi_bar1" unicode="&#59158;" d="M47.36 115.20000000000005H975.36v-38.4H47.36v38.4z m192 268.8H476.16v-230.4H239.36v230.4zM552.96 460.8h230.4v-307.2h-230.4V460.8zM239.36 537.6H476.16v-153.6H239.36V537.6zM552.96 691.2h230.4v-230.4h-230.4V691.2z"  horiz-adv-x="1024" />

    
    <glyph glyph-name="iconfont_bi_bar" unicode="&#59159;" d="M47.36 115.20000000000005h928v-38.4H47.36zM239.36 384h236.8v-230.4h-236.8zM552.96 460.8h230.4v-307.2h-230.4zM239.36 537.6h236.8v-153.6h-236.8zM552.96 691.2h230.4v-230.4h-230.4z"  horiz-adv-x="1024" />

    
    <glyph glyph-name="iconfont_bi_lineBar" unicode="&#59160;" d="M47.36 115.20000000000005h928v-44.8H47.36zM162.56 537.6h115.2v-384h-115.2zM354.56 697.6v-544h121.6V697.6h-121.6z m60.16-255.36c-21.76 0-39.04 17.28-39.04 39.04 0 21.76 17.28 39.04 39.04 39.04 21.76 0 39.04-17.28 39.04-39.04 0-21.76-17.28-39.04-39.04-39.04zM744.96 614.4h115.2v-460.8h-115.2zM552.96 537.6h115.2v-384h-115.2zM600.96 216.96000000000004L458.24 388.48l59.52 49.92 100.48-120.96 302.08 177.28 39.68-67.2-359.04-210.56z m-493.44 18.56l-44.8 63.36L301.44 467.2l44.8-63.36-238.72-168.32zM414.72 558.72c-42.88 0-77.44-34.56-77.44-77.44S371.84 403.2 414.72 403.2 492.8 438.4 492.8 481.28s-35.2 77.44-78.08 77.44z m0-116.48c-21.76 0-39.04 17.28-39.04 39.04 0 21.76 17.28 39.04 39.04 39.04 21.76 0 39.04-17.28 39.04-39.04 0-21.76-17.28-39.04-39.04-39.04zM47.36 115.20000000000005h928v-44.8H47.36zM162.56 537.6h115.2v-384h-115.2zM354.56 697.6v-544h121.6V697.6h-121.6z m60.16-255.36c-21.76 0-39.04 17.28-39.04 39.04 0 21.76 17.28 39.04 39.04 39.04 21.76 0 39.04-17.28 39.04-39.04 0-21.76-17.28-39.04-39.04-39.04zM744.96 614.4h115.2v-460.8h-115.2zM552.96 537.6h115.2v-384h-115.2zM600.96 216.96000000000004L458.24 388.48l59.52 49.92 100.48-120.96 302.08 177.28 39.68-67.2-359.04-210.56z m-493.44 18.56l-44.8 63.36L301.44 467.2l44.8-63.36-238.72-168.32zM414.72 558.72c-42.88 0-77.44-34.56-77.44-77.44S371.84 403.2 414.72 403.2 492.8 438.4 492.8 481.28s-35.2 77.44-78.08 77.44z m0-116.48c-21.76 0-39.04 17.28-39.04 39.04 0 21.76 17.28 39.04 39.04 39.04 21.76 0 39.04-17.28 39.04-39.04 0-21.76-17.28-39.04-39.04-39.04z"  horiz-adv-x="1024" />

    
    <glyph glyph-name="iconfont_bi_lineBar1" unicode="&#59161;" d="M48 124.57471999999996h928v-44.8H48v44.8zM163.2 546.9747199999999h115.2v-384h-115.2v384z m192 160v-544h121.6V706.9747199999999h-121.6z m60.16-255.36c-21.76 0-39.04 17.28-39.04 39.04s17.28 39.04 39.04 39.04 39.04-17.28 39.04-39.04-17.28-39.04-39.04-39.04z m330.24 172.16h115.2v-460.8h-115.2v460.8z m-192-76.8h115.2v-384h-115.2v384zM600.96 226.33471999999995L458.24 397.85472l59.52 49.92 100.48-120.96 302.08 177.28 39.68-67.2-359.04-210.56zM107.52 244.89472l-44.8 63.36 238.72 168.32 44.8-63.36L107.52 244.89472z m307.84 323.2C372.48 568.09472 337.92 533.53472 337.92 490.65472s34.56-78.08 77.44-78.08 78.08 35.2 78.08 78.08-35.2 77.44-78.08 77.44z m0-116.48c-21.76 0-39.04 17.28-39.04 39.04s17.28 39.04 39.04 39.04 39.04-17.28 39.04-39.04-17.28-39.04-39.04-39.04z"  horiz-adv-x="1024" />

    
    <glyph glyph-name="iconfont-caozuorizhi" unicode="&#59190;" d="M853.99552 735.55968h-167.26016V775.3728c0 13.27104-8.84736 22.1184-22.1184 22.1184h-291.96288c-13.27104 0-22.1184-13.27104-22.1184-22.1184v-35.38944h-180.5312c-13.27104 0-26.54208-13.27104-26.54208-26.54208v-685.6704c0-13.27104 13.27104-26.54208 26.54208-26.54208h683.99616c13.27104 0 26.54208 13.27104 26.54208 26.54208V709.0176c-0.00512 17.69472-13.27616 26.54208-26.5472 26.54208z m-445.952 4.42368h221.184v-57.50784h-221.184V739.98336z m419.40992-685.6704H196.54656V682.47552h153.98912v-35.38944c0-13.27104 8.84736-22.1184 22.1184-22.1184h291.96288c13.27104 0 22.1184 8.84736 22.1184 22.1184v35.38944h136.2944v-628.16256h4.42368zM462.67904 189.25567999999998l-168.6016 131.56864a46.09536 46.09536 0 0 0-7.98208 64.68096 46.09024 46.09024 0 0 0 64.68096 7.97696l108.13952-84.38784 221.75744 196.64384c19.0464 16.87552 48.16384 15.14496 65.0496-3.90656a46.08 46.08 0 0 0-3.90144-65.0496l-279.1424-247.5264z"  horiz-adv-x="1024" />

    
    <glyph glyph-name="iconfont-chakan" unicode="&#59191;" d="M582.272-5.007359999999949h-371.59424c-47.54944 0-86.29248 38.74304-86.29248 86.29248V685.32224c0 47.54944 38.74304 86.29248 86.29248 86.29248h604.03712c47.54944 0 86.29248-38.74304 86.29248-86.29248v-372.84864c0-15.90784-12.85632-28.76416-28.76416-28.76416s-28.76416 12.8512-28.76416 28.76416v372.84864c0 15.8208-12.94848 28.76416-28.76416 28.76416H210.67776c-15.8208 0-28.76416-12.94848-28.76416-28.76416v-604.03712c0-15.8208 12.94848-28.76416 28.76416-28.76416h371.58912c15.90784 0 28.76416-12.85632 28.76416-28.76416s-12.8512-28.76416-28.75904-28.76416zM686.44864 541.4195199999999H284.928c-15.90784 0-28.76416 12.85632-28.76416 28.76416s12.85632 28.76416 28.76416 28.76416h401.52064c15.90784 0 28.76416-12.85632 28.76416-28.76416s-12.85632-28.76416-28.76416-28.76416z m-273.16736-186.88h-128.3584a28.73344 28.73344 0 0 0-28.76416 28.76416 28.73856 28.73856 0 0 0 28.76416 28.76416h128.26624a28.73344 28.73344 0 0 0 28.76416-28.6976v-0.06656c0.09216-15.81568-12.8512-28.76416-28.672-28.76416z m0-186.78272h-128.3584a28.73344 28.73344 0 0 0-28.76416 28.76416 28.73856 28.73856 0 0 0 28.76416 28.76416h128.26624a28.73344 28.73344 0 0 0 28.76416-28.6976v-0.06656c0.09216-15.91296-12.8512-28.76416-28.672-28.76416zM640.05632 111.00160000000005c-93.46048 0-169.56928 76.1088-169.56928 169.56928 0 93.45536 76.1088 169.56928 169.56928 169.56928 93.46048 0 169.56928-76.1088 169.56928-169.56928 0-93.46048-76.01152-169.56928-169.56928-169.56928z m0 276.03968c-58.76224 0-106.4704-47.71328-106.4704-106.4704 0-58.76224 47.71328-106.4704 106.4704-106.4704s106.4704 47.71328 106.4704 106.4704-47.71328 106.4704-106.4704 106.4704zM833.97632 40.32000000000005l-108.73856 108.73856c-12.32384 12.32384-12.32384 32.3328 0 44.66176s32.3328 12.32384 44.66176 0l108.64128-108.73856a31.60576 31.60576 0 0 0 0-44.66176 31.47776 31.47776 0 0 0-44.56448 0z"  horiz-adv-x="1024" />

    
    <glyph glyph-name="iconfont-daochu" unicode="&#59192;" d="M492.25216 136.92416000000003a26.09664 26.09664 0 0 1 39.30112 0l166.4 190.19776c14.80192 16.90112 2.80064 43.29984-19.50208 43.29984h-38.59968c0 1.30048 0.1024 2.69824 0.1024 3.99872v188.0064c0 35.2-28.8 64-64 64h-128c-35.2 0-64-28.8-64-64v-188.00128c0-1.30048 0-2.69824 0.1024-3.99872h-38.59968c-22.5024 0-34.49856-26.39872-19.70176-43.29984l166.49728-190.20288zM415.34976 690.42688h192.9984c17.30048 0 31.49824 14.19776 31.49824 31.49824v0.9984c0 17.30048-14.19776 31.49824-31.49824 31.49824h-192.9984c-17.30048 0-31.49824-14.19776-31.49824-31.49824v-0.9984c0-17.30048 14.19776-31.49824 31.49824-31.49824zM889.34912 353.19808a30.72 30.72 0 0 1-30.72-30.72v-233.74848a31.63136 31.63136 0 0 0-31.59552-31.5904H196.9664a31.63136 31.63136 0 0 0-31.59552 31.5904v233.74848a30.72 30.72 0 0 1-61.44 0v-233.74848c0-51.29728 41.73312-93.0304 93.03552-93.0304h630.0672c51.3024 0 93.03552 41.73312 93.03552 93.0304v233.74848a30.72 30.72 0 0 1-30.72 30.72z"  horiz-adv-x="1024" />

    
    <glyph glyph-name="iconfont-piliangshanchu" unicode="&#59193;" d="M895.104 625.9200000000001H752.64V706.56c0 59.136-48.384 107.52-107.52 107.52h-266.24c-59.136 0-107.52-48.384-107.52-107.52v-80.64h-142.464c-10.752 0-18.816-8.064-18.816-18.816v-16.128c0-10.752 8.064-18.816 18.816-18.816H185.344v-510.72c0-59.136 48.384-107.52 107.52-107.52h438.272c59.136 0 107.52 48.384 107.52 107.52v510.72h56.448c10.752 0 18.816 8.064 18.816 18.816v16.128c0 10.752-8.064 18.816-18.816 18.816zM325.12 706.56c0 29.568 24.192 53.76 53.76 53.76h266.24c29.568 0 53.76-24.192 53.76-53.76v-75.264h-373.76v75.264z m459.776-645.12c0-29.568-24.192-53.76-53.76-53.76h-438.272c-29.568 0-53.76 24.192-53.76 53.76v505.344h545.792v-505.344zM512 96.68096000000003a35.84 35.84 0 0 1 35.84 35.84V438.1184a35.84 35.84 0 1 1-71.68 0v-305.60256a35.84 35.84 0 0 1 35.84-35.83488zM355.84 127.85152000000005a30.72 30.72 0 0 1 30.72 30.72v253.50144a30.72 30.72 0 0 1-61.44 0v-253.50144a30.72 30.72 0 0 1 30.72-30.72zM668.16 127.85152000000005a30.72 30.72 0 0 1 30.72 30.72v253.50144a30.72 30.72 0 0 1-61.44 0v-253.50144a30.72 30.72 0 0 1 30.72-30.72z"  horiz-adv-x="1024" />

    
    <glyph glyph-name="iconfont-shanchu" unicode="&#59194;" d="M895.104 625.9200000000001H752.64V706.56c0 59.136-48.384 107.52-107.52 107.52h-266.24c-59.136 0-107.52-48.384-107.52-107.52v-80.64h-142.464c-10.752 0-18.816-8.064-18.816-18.816v-16.128c0-10.752 8.064-18.816 18.816-18.816H185.344v-510.72c0-59.136 48.384-107.52 107.52-107.52h438.272c59.136 0 107.52 48.384 107.52 107.52v510.72h56.448c10.752 0 18.816 8.064 18.816 18.816v16.128c0 10.752-8.064 18.816-18.816 18.816zM325.12 706.56c0 29.568 24.192 53.76 53.76 53.76h266.24c29.568 0 53.76-24.192 53.76-53.76v-75.264h-373.76v75.264z m459.776-645.12c0-29.568-24.192-53.76-53.76-53.76h-438.272c-29.568 0-53.76 24.192-53.76 53.76v505.344h545.792v-505.344zM512 96.68096000000003a35.84 35.84 0 0 1 35.84 35.84V438.1184a35.84 35.84 0 1 1-71.68 0v-305.60256a35.84 35.84 0 0 1 35.84-35.83488zM355.84 127.85152000000005a30.72 30.72 0 0 1 30.72 30.72v253.50144a30.72 30.72 0 0 1-61.44 0v-253.50144a30.72 30.72 0 0 1 30.72-30.72zM668.16 127.85152000000005a30.72 30.72 0 0 1 30.72 30.72v253.50144a30.72 30.72 0 0 1-61.44 0v-253.50144a30.72 30.72 0 0 1 30.72-30.72z"  horiz-adv-x="1024" />

    
    <glyph glyph-name="iconfont-piliangxiugai" unicode="&#59195;" d="M863.53408 450.46784c-15.93344 0-29.07648-13.14304-29.07648-29.07648v-342.144c0-27.0848-22.30784-49.38752-49.38752-49.38752H227.44064c-27.0848 0-49.38752 22.30784-49.38752 49.38752V636.8768c0 27.0848 22.30272 49.38752 49.38752 49.38752h299.12576c15.93344 0 29.07648 13.14304 29.07648 29.07648s-13.14304 29.07648-29.07648 29.07648h-299.52512c-59.34592 0-107.93984-48.19456-107.93984-107.54048v-557.62944c0-59.34592 48.19456-107.54048 107.93984-107.54048h557.62944c59.34592 0 107.93984 48.19456 107.93984 107.54048v342.144c0 15.93344-13.14304 29.07648-29.07648 29.07648zM283.20256 132.21888h412.6464c15.93344 0 29.07648 13.14304 29.07648 29.07648s-13.14304 29.07648-29.07648 29.07648h-412.6464c-15.93344 0-29.07648-13.14304-29.07648-29.07648 0-16.32768 12.7488-29.07648 29.07648-29.07648zM424.20224 305.08543999999995c15.93344 0 29.07648 13.14304 29.07648 29.07648s-13.14304 29.07648-29.07648 29.07648h-140.99968c-15.93344 0-29.07648-13.14304-29.07648-29.07648a28.9792 28.9792 0 0 1 29.07648-29.07648h140.99968zM519.36256 393.15968a51.03616 51.03616 0 0 1 35.77856-14.58688 51.03104 51.03104 0 0 1 36.61824 15.41632l298.66496 305.59744c19.7632 20.21888 19.39456 52.6336-0.82944 72.40192-20.22912 19.76832-52.63872 19.39456-72.40192-0.82944l-298.66496-305.59744c-19.75808-20.224-19.38944-52.63872 0.83456-72.40192z"  horiz-adv-x="1024" />

    
    <glyph glyph-name="iconfont-sousuo" unicode="&#59196;" d="M877.50656 81.3056L736.768 221.99808c98.81088 130.30912 89.57952 316.30848-27.8784 436.10112-129.3824 131.95776-341.23776 134.04672-473.19552 4.66432-1.57184-1.54112-3.1232-3.09248-4.66432-4.66432-129.3824-131.95776-127.29344-343.81312 4.66432-473.19552 121.63072-119.26016 311.10144-126.72 441.33888-23.82848l140.17024-140.06784a42.66496 42.66496 0 0 1 60.30336 60.29824zM302.6432 249.92256c-99.15392 95.5136-102.10304 253.32736-6.58944 352.48128l1.83296 1.83296c97.85856 96.8448 255.6928 96.0256 352.5376-1.83296 96.8448-97.85856 96.0256-255.6928-1.83296-352.5376l-0.05632 0.05632c-96.54784-92.99968-249.34912-92.99968-345.89184 0z"  horiz-adv-x="1024" />

    
    <glyph glyph-name="iconfont-rili" unicode="&#59197;" d="M903.38304 716.7232c12.20096-12.20096 18.76992-27.68896 19.24096-46.92992v-630.71744c-0.47104-18.76992-7.04-34.72896-19.24096-46.92992s-27.68896-18.76992-46.92992-19.24096H167.54688c-18.76992 0.47104-34.72896 7.04-46.92992 19.24096s-18.76992 27.68896-19.24096 46.92992V669.79328c0.47104 18.76992 7.04 34.72896 19.24096 46.92992s27.68896 18.76992 46.92992 19.24096h109.81376v25.80992c0 9.38496 3.28704 16.896 9.856 23.46496s14.08 9.856 23.46496 9.856c9.38496 0 16.896-3.28704 23.46496-9.856s9.856-14.08 9.856-23.46496v-25.80992h337.41312v25.80992c0 9.38496 3.28704 16.896 9.856 23.46496s14.08 9.856 23.46496 9.856 16.896-3.28704 23.46496-9.856 9.856-14.08 9.856-23.46496v-25.80992h109.81376c17.82272-0.47104 33.31072-7.04 45.51168-19.24096z m-735.83616-149.23264h689.37728v102.30272h-110.27968v-18.304c0-9.38496-3.28704-16.896-9.856-23.46496s-14.08-9.856-23.46496-9.856-16.896 3.28704-23.46496 9.856-9.856 14.08-9.856 23.46496v18.304h-336.47616v-18.304c0-9.38496-3.28704-16.896-9.856-23.46496s-14.08-9.38496-23.46496-9.38496c-9.38496 0-16.896 3.28704-23.46496 9.856-6.56896 6.56896-9.856 14.08-9.856 23.46496v18.304h-109.34272l0.00512-102.77376z m688.90624-66.17088H167.54688v-461.77792h689.37728v461.77792h-0.47104zM285.80352 375.552c-5.632-5.632-8.448-12.672-8.448-21.12s2.816-15.488 8.448-21.12c5.632-5.632 12.672-8.448 21.12-8.448h58.65984c8.448 0 15.488 2.816 21.12 8.448 5.632 5.632 8.448 12.672 8.448 21.12s-2.816 15.488-8.448 21.12c-5.632 5.632-12.672 8.448-21.12 8.448h-58.65984c-8.91904 0-15.95392-2.816-21.12-8.448z m0-177.38752c-5.632-5.632-8.448-12.672-8.448-21.12s2.816-15.488 8.448-21.12c5.632-5.632 12.672-8.448 21.12-8.448h58.65984c8.448 0 15.488 2.816 21.12 8.448 5.632 5.632 8.448 12.672 8.448 21.12s-2.816 15.488-8.448 21.12c-5.632 5.632-12.672 8.448-21.12 8.448h-58.65984c-8.91904-0.47104-15.95392-3.28704-21.12-8.448z m175.98464 177.38752c-5.632-5.632-8.448-12.672-8.448-21.12s2.816-15.488 8.448-21.12c5.632-5.632 12.672-8.448 21.12-8.448h58.65984c8.448 0 15.488 2.816 21.12 8.448 5.632 5.632 8.448 12.672 8.448 21.12s-2.816 15.488-8.448 21.12c-5.632 5.632-12.672 8.448-21.12 8.448h-58.65984c-8.91904 0-15.95904-2.816-21.12-8.448z m0-177.38752c-5.632-5.632-8.448-12.672-8.448-21.12s2.816-15.488 8.448-21.12c5.632-5.632 12.672-8.448 21.12-8.448h58.65984c8.448 0 15.488 2.816 21.12 8.448 5.632 5.632 8.448 12.672 8.448 21.12s-2.816 15.488-8.448 21.12c-5.632 5.632-12.672 8.448-21.12 8.448h-58.65984c-8.91904-0.47104-15.95904-3.28704-21.12-8.448z m175.97952 177.38752c-5.632-5.632-8.448-12.672-8.448-21.12s2.816-15.488 8.448-21.12c5.632-5.632 12.672-8.448 21.12-8.448h58.65984c8.448 0 15.488 2.816 21.12 8.448 5.632 5.632 8.448 12.672 8.448 21.12s-2.816 15.488-8.448 21.12c-5.632 5.632-12.672 8.448-21.12 8.448h-58.65984c-8.91904 0-15.95904-2.816-21.12-8.448z"  horiz-adv-x="1024" />

    
    <glyph glyph-name="iconfont-xinjian" unicode="&#59198;" d="M914.21184 82.67776000000003a27.45856 27.45856 0 0 1-27.47392-27.4432v-0.03072a27.45856 27.45856 0 1 1 54.91712-0.03072v0.03072a27.4688 27.4688 0 0 1-27.4432 27.47392zM806.66624 82.67776000000003a27.45856 27.45856 0 0 1-27.47392-27.4432v-0.03072a27.45856 27.45856 0 1 1 54.91712-0.03072v0.03072a27.4688 27.4688 0 0 1-27.4432 27.47392zM914.21184 174.45376a27.45856 27.45856 0 0 1-27.47392-27.4432v-0.03072a27.45856 27.45856 0 1 1 54.91712-0.03072v0.03072a27.4688 27.4688 0 0 1-27.4432 27.47392zM887.88992 533.60128l-0.70144-54.81984-0.02048-224.128c0-13.73184 11.56096-25.28256 25.28768-25.28256s25.28768 11.56096 25.28768 25.28256v347.5968c0 30.35136-24.57088 55.64416-55.63904 55.64416h-305.60768l-95.3856 76.60032a25.2416 25.2416 0 0 1-15.8976 5.78048h-313.15456c-30.35136 0-55.64416-24.57088-55.64416-55.64416v-601.25184c0-30.35136 24.57088-55.63904 55.64416-55.63904H707.2256c13.73184 0 25.28768 11.56096 25.28768 25.28768 0 13.7216-11.56096 25.28768-25.28768 25.28768H152.05376a4.93568 4.93568 0 0 0-5.05856 4.81792V483.73248h0.67072V538.624h0.05632V683.90912c0 2.88768 2.16576 5.05856 5.05856 5.05856h303.75936L551.936 612.36736a25.23136 25.23136 0 0 1 15.89248-5.78048h314.99776c2.88768 0 5.05856-2.16576 5.05856-5.05856v-67.92704zM517.07392 129.80736000000002a46.08 46.08 0 0 1 46.08 46.08V299.52h123.1104c25.45152 0 46.08 20.62848 46.08 46.08s-20.62848 46.08-46.08 46.08h-123.1104V509.696c0 25.45152-20.62848 46.08-46.08 46.08s-46.08-20.62848-46.08-46.08V391.68h-118.53824c-25.45152 0-46.08-20.62848-46.08-46.08s20.62848-46.08 46.08-46.08h118.53824v-123.63264a46.08 46.08 0 0 1 46.08-46.08z"  horiz-adv-x="1024" />

    
    <glyph glyph-name="iconfont-zidingyilie" unicode="&#59199;" d="M859.33056 769.97632c-20.29056 0-36.72064-12.27776-36.72064-27.53536v-716.88192c0-15.16032 16.43008-27.53536 36.72064-27.53536s36.72064 12.27776 36.72064 27.53536V742.44096c0 15.16032-16.4352 27.53536-36.72064 27.53536zM164.66944 769.97632c-20.29056 0-36.72064-12.27776-36.72064-27.53536v-716.88192c0-15.16032 16.43008-27.53536 36.72064-27.53536s36.72064 12.27776 36.72064 27.53536V742.44096c0.00512 15.16032-16.43008 27.53536-36.72064 27.53536zM512 650.68544c-61.24544 0-110.78656-49.66912-110.78656-110.78656v-311.79776c0-61.24544 49.54112-110.78656 110.78656-110.78656s110.78656 49.66912 110.78656 110.78656v311.79776c0 61.24544-49.54112 110.78656-110.78656 110.78656z"  horiz-adv-x="1024" />

    
    <glyph glyph-name="iconfont-xiugai" unicode="&#59200;" d="M878.95552 463.61088c-15.93344 0-29.07648-13.14304-29.07648-29.07648v-342.144c0-27.0848-22.30784-49.38752-49.38752-49.38752H242.85696c-27.0848 0-49.38752 22.30272-49.38752 49.38752V650.0198399999999c0 27.0848 22.30784 49.38752 49.38752 49.38752h299.13088c15.93344 0 29.07648 13.14304 29.07648 29.07648s-13.14304 29.07648-29.07648 29.07648h-299.52512c-59.34592 0-107.93984-48.19456-107.93984-107.54048v-557.62944c0-59.34592 48.19456-107.54048 107.93984-107.54048h557.62944c59.34592 0 107.93984 48.19456 107.93984 107.54048V434.5344c-0.00512 15.93344-13.14816 29.07648-29.07648 29.07648zM298.61888 145.36703999999997h412.6464c15.93344 0 29.07648 13.14304 29.07648 29.07648s-13.14304 29.07648-29.07648 29.07648h-412.6464c-15.93344 0-29.07648-13.14304-29.07648-29.07648 0-16.3328 12.7488-29.07648 29.07648-29.07648z m0 172.86656h140.99968c15.93344 0 29.07648 13.14304 29.07648 29.07648s-13.14304 29.07648-29.07648 29.07648h-140.99968c-15.93344 0-29.07648-13.14304-29.07648-29.07648a28.98432 28.98432 0 0 1 29.07648-29.07648zM906.92096 788.35712c-20.22912 19.76832-52.63872 19.39456-72.40192-0.82944l-298.66496-305.59744c-19.7632-20.21888-19.39456-52.6336 0.82944-72.40192a51.03616 51.03616 0 0 1 35.77856-14.58688 51.03104 51.03104 0 0 1 36.61824 15.41632l298.66496 305.59744c19.77344 20.21888 19.4048 52.6336-0.82432 72.40192z"  horiz-adv-x="1024" />

    
    <glyph glyph-name="iconfont-shangchuan" unicode="&#59201;" d="M415.49824 192c-17.30048 0-31.49824-14.19776-31.49824-31.49824v-0.9984c0-17.30048 14.19776-31.49824 31.49824-31.49824h192.9984c17.30048 0 31.49824 14.19776 31.49824 31.49824v0.9984c0 17.30048-14.19776 31.49824-31.49824 31.49824H415.49824zM345.6 512h38.59968c-0.1024-1.30048-0.1024-2.69824-0.1024-3.99872V320c0-35.2 28.8-64 64-64h128c35.2 0 64 28.8 64 64V508.00128c0 1.30048-0.1024 2.69824-0.1024 3.99872h38.59968c22.2976 0 34.29888 26.39872 19.50208 43.29984l-166.4 190.19776a26.09664 26.09664 0 0 1-39.30112 0l-166.5024-190.19776C311.10144 538.39872 323.0976 512 345.6 512zM889.34912 353.19808a30.72 30.72 0 0 1-30.72-30.72v-233.74848a31.63136 31.63136 0 0 0-31.59552-31.5904H196.9664a31.62624 31.62624 0 0 0-31.5904 31.5904v233.74848a30.72 30.72 0 0 1-61.44 0v-233.74848c0-51.29728 41.73312-93.0304 93.0304-93.0304h630.0672c51.3024 0 93.03552 41.73312 93.03552 93.0304v233.74848a30.72 30.72 0 0 1-30.72 30.72z"  horiz-adv-x="1024" />

    
    <glyph glyph-name="bofang" unicode="&#59202;" d="M512-9.456639999999993c-219.2128 0-393.45664 174.24384-393.45664 393.45664s174.24384 393.45664 393.45664 393.45664 393.45664-174.24384 393.45664-393.45664-174.24384-393.45664-393.45664-393.45664z m0 730.70592c-185.48736 0-337.24928-151.76192-337.24928-337.24928s151.76192-337.24928 337.24928-337.24928 337.24928 151.76192 337.24928 337.24928-151.76192 337.24928-337.24928 337.24928zM453.08928 249.61536a24.4224 24.4224 0 0 1 12.85632 3.57376l183.43936 106.83904a25.69728 25.69728 0 0 1 14.68416 23.17824 25.35424 25.35424 0 0 1-12.6976 22.0672L472.064 509.73184a25.04192 25.04192 0 0 1-18.9696 8.6528c-13.97248 0-25.2416-11.42784-25.2416-25.48224 0-0.47616 0-0.95232 0.08192-1.42848l-0.31744-0.15872 0.39936-213.51936a28.22656 28.22656 0 0 1-0.15872-2.69824c-0.01024-14.04928 11.3408-25.48224 25.23136-25.48224z"  horiz-adv-x="1024" />

    
    <glyph glyph-name="daochushibai" unicode="&#59203;" d="M512-9.456639999999993c-219.2128 0-393.45664 174.24384-393.45664 393.45664s174.24384 393.45664 393.45664 393.45664 393.45664-174.24384 393.45664-393.45664-174.24384-393.45664-393.45664-393.45664z m0 730.70592c-185.48736 0-337.24928-151.76192-337.24928-337.24928s151.76192-337.24928 337.24928-337.24928 337.24928 151.76192 337.24928 337.24928-151.76192 337.24928-337.24928 337.24928zM512 599.17824c18.44224 0 30.74048-12.29312 30.74048-30.74048v-245.9136c0-18.44224-12.29312-30.74048-30.74048-30.74048s-30.74048 12.29312-30.74048 30.74048v245.9136c0 18.44736 12.29824 30.74048 30.74048 30.74048zM481.25952 199.57248000000004a30.73536 30.73536 0 1 1 61.47584-0.0256v0.0256a30.73536 30.73536 0 1 1-61.47584 0.0256v-0.0256z"  horiz-adv-x="1024" />

    
    <glyph glyph-name="qiehuan" unicode="&#59204;" d="M512-9.456639999999993c-219.2128 0-393.45664 174.24384-393.45664 393.45664s174.24384 393.45664 393.45664 393.45664 393.45664-174.24384 393.45664-393.45664-174.24384-393.45664-393.45664-393.45664z m0 730.70592c-185.48736 0-337.24928-151.76192-337.24928-337.24928s151.76192-337.24928 337.24928-337.24928 337.24928 151.76192 337.24928 337.24928-151.76192 337.24928-337.24928 337.24928zM702.5152 484.57216l-77.89056 77.91104a10.17344 10.17344 0 0 1-17.36704-7.1936v-60.50304a10.1888 10.1888 0 0 0-10.1888-10.1888H298.49088a10.17344 10.17344 0 0 1-10.17344-10.16832v-27.27936c0-5.62688 4.54144-10.16832 10.17344-10.16832h427.07968a10.17344 10.17344 0 0 1 7.1936 17.36704l-30.25408 30.24896v-0.0256z m-381.00992-201.1648l77.87008-77.89056a10.17344 10.17344 0 0 1 17.36704 7.1936v60.50304a10.1888 10.1888 0 0 0 10.17344 10.1888h298.61376c5.62688 0 10.1888 4.54144 10.1888 10.17344v27.29472a10.17344 10.17344 0 0 1-10.17344 10.17344H298.42944a10.17344 10.17344 0 0 1-7.1936-17.36704l30.25408-30.24896 0.01536-0.02048z"  horiz-adv-x="1024" />

    
    <glyph glyph-name="xiangshang" unicode="&#59205;" d="M512-9.456639999999993c-219.2128 0-393.45664 174.24384-393.45664 393.45664s174.24384 393.45664 393.45664 393.45664 393.45664-174.24384 393.45664-393.45664-174.24384-393.45664-393.45664-393.45664z m0 730.70592c-185.48736 0-337.24928-151.76192-337.24928-337.24928s151.76192-337.24928 337.24928-337.24928 337.24928 151.76192 337.24928 337.24928-151.76192 337.24928-337.24928 337.24928zM307.36384 363.53535999999997a25.6 25.6 0 0 1 36.7104 0l141.95712 144.82432v-312.80128c0-14.58688 11.66848-26.5216 25.94304-26.5216 14.32064 0 25.99424 11.93472 25.99424 26.5216v312.80128l141.8496-144.82432a25.65632 25.65632 0 0 1 36.7616 0 26.94656 26.94656 0 0 1 0 37.504l-186.30656 189.96736a25.9584 25.9584 0 0 1-18.304 7.95648 25.472 25.472 0 0 1-18.3552-7.90528l-186.19904-189.96736a26.94656 26.94656 0 0 1 0-37.504"  horiz-adv-x="1024" />

    
    <glyph glyph-name="bohui" unicode="&#59206;" d="M113.4336 409.89184l-0.11264 267.648c0 97.64864 54.23616 104.02816 106.4192 104.02816h425.28256c81.92512 0 107.27424-27.91424 107.27424-106.36288v-53.0944c0-41.9328-53.3248-37.1456-53.3248 0v53.15072c0 39.36768-12.82048 53.15072-53.94944 53.15072H219.74016c-44.03712 0-53.15584-5.92384-53.15584-53.15072v-531.70688c0-29.11232 15.95392-53.15072 53.15584-53.15072h106.30656c32.47104 0 34.92352-53.15584 0-53.15584-34.8672 0-61.30176-0.39936-126.3616-0.16896-38.33856 0.16896-70.12864 22.90176-81.46944 58.112a103.13216 103.13216 0 0 0-4.5568 31.104c-0.28672 112.2304-0.16896 171.3664-0.16896 283.5968M592.11264 619.15648c42.38848 0 36.57728-53.8368 0-53.8368h-318.976c-39.87968 0-38.1696 53.8368 0 53.8368h319.03232-0.05632z m-265.82528-159.5136c42.38848 0 36.57728-53.8368 0-53.8368H273.13152c-39.87968 0-38.1696 53.89312 0 53.89312h53.15584v-0.05632zM645.30944 517.5091199999999c-146.78016 0.22016-265.94304-118.58944-266.1632-265.3696v-0.17408c-0.06144-146.59072 118.72256-265.47712 265.31328-265.53856h0.17408c146.62144-0.31232 265.73824 118.29248 266.05056 264.91392 0.21504 146.78528-118.59456 265.94816-265.37472 266.16832z m-212.72576-264.68352c0.65536 117.01248 95.60064 211.57376 212.61312 211.75808h0.40448a211.80416 211.80416 0 0 0 120.192-37.94432l-289.73568-302.91968a211.63008 211.63008 0 0 0-43.47392 129.10592z m211.35872-212.95616c-52.10624 0.3072-99.70688 19.36896-136.50944 50.71872l292.71552 306.16576c35.69664-38.272 57.49248-89.63072 57.20576-146.09408-0.28672-116.2752-96.33792-211.13344-213.41184-210.7904z"  horiz-adv-x="1024" />

    
    <glyph glyph-name="caijiwancheng" unicode="&#59207;" d="M826.94656 743.936h-127.872v42.624c0 14.208-9.472 23.68-23.68 23.68h-312.576c-14.208 0-23.68-14.208-23.68-23.68v-37.888h-142.08c-14.208 0-28.416-14.208-28.416-28.416V-13.823999999999955c0-14.208 14.208-28.416 28.416-28.416h629.888c14.208 0 28.416 14.208 28.416 28.416v729.344c-0.00512 18.944-14.21312 28.416-28.416 28.416z m-426.24 4.736h236.8v-61.568h-236.8v61.568z m397.81888-734.08H225.46944V687.104h113.664v-37.888c0-14.208 9.472-23.68 23.68-23.68h312.576c14.208 0 23.68 9.472 23.68 23.68v37.888h94.72v-672.512h4.736zM456.1152 168.07424000000003a24.24832 24.24832 0 0 0-18.45248 7.38304l-149.1968 150.77888a26.36288 26.36288 0 0 0-0.1536 37.27872l0.1536 0.1536a26.368 26.368 0 0 0 36.90496 0l130.74432-130.74432 242.51392 242.51392a26.368 26.368 0 0 0 36.90496 0 26.36288 26.36288 0 0 0 0.1536-37.27872l-0.1536-0.1536-260.9664-263.59808a24.24832 24.24832 0 0 0-18.45248-6.33344z"  horiz-adv-x="1024" />

    
    <glyph glyph-name="queren" unicode="&#59209;" d="M512-9.456639999999993c-219.2128 0-393.45664 174.24384-393.45664 393.45664s174.24384 393.45664 393.45664 393.45664 393.45664-174.24384 393.45664-393.45664-174.24384-393.45664-393.45664-393.45664z m0 730.70592c-185.48736 0-337.24928-151.76192-337.24928-337.24928s151.76192-337.24928 337.24928-337.24928 337.24928 151.76192 337.24928 337.24928-151.76192 337.24928-337.24928 337.24928zM471.4752 206.11584000000005a24.24832 24.24832 0 0 0-18.45248 7.38304l-149.1968 150.77888a26.36288 26.36288 0 0 0-0.1536 37.27872l0.1536 0.1536a26.368 26.368 0 0 0 36.90496 0l130.74432-130.74432 242.51392 242.51392a26.368 26.368 0 0 0 36.90496 0 26.36288 26.36288 0 0 0 0.1536-37.27872l-0.1536-0.1536-260.9664-263.59808a24.20736 24.20736 0 0 0-18.45248-6.33344z"  horiz-adv-x="1024" />

    
    <glyph glyph-name="zhongxindaochu" unicode="&#59210;" d="M512-9.456639999999993c-219.2128 0-393.45664 174.24384-393.45664 393.45664s174.24384 393.45664 393.45664 393.45664 393.45664-174.24384 393.45664-393.45664-174.24384-393.45664-393.45664-393.45664z m0 730.70592c-185.48736 0-337.24928-151.76192-337.24928-337.24928s151.76192-337.24928 337.24928-337.24928 337.24928 151.76192 337.24928 337.24928-151.76192 337.24928-337.24928 337.24928zM523.648 521.35424h-46.72512v70.016l-137.3184-93.45024 137.3184-93.2352v70.016h46.65344c64.79872 0 114.02752-51.87072 114.02752-114.0992v-23.29088c0-64.79872-51.79904-114.02752-114.02752-114.02752h-46.65344a23.2192 23.2192 0 0 1-23.29088-23.14752v-0.21504a23.2192 23.2192 0 0 1 23.14752-23.29088h46.7968c88.59136 0.38912 160.31744 72.0896 160.74752 160.68096v23.29088c2.57024 88.16128-70.016 160.74752-160.74752 160.74752h0.07168z"  horiz-adv-x="1024" />

    
    <glyph glyph-name="xiangxia" unicode="&#59211;" d="M512-9.456639999999993c-219.2128 0-393.45664 174.24384-393.45664 393.45664s174.24384 393.45664 393.45664 393.45664 393.45664-174.24384 393.45664-393.45664-174.24384-393.45664-393.45664-393.45664z m0 730.70592c-185.48736 0-337.24928-151.76192-337.24928-337.24928s151.76192-337.24928 337.24928-337.24928 337.24928 151.76192 337.24928 337.24928-151.76192 337.24928-337.24928 337.24928zM307.42016 404.40832a26.94656 26.94656 0 0 1 0-37.504l186.19904-189.96736a25.472 25.472 0 0 1 18.3552-7.90528 25.9584 25.9584 0 0 1 18.304 7.95648l186.30656 189.96736a26.94656 26.94656 0 0 1 0 37.504 25.65632 25.65632 0 0 1-36.7616 0l-141.8496-144.82432v312.80128c0 14.58688-11.66848 26.5216-25.99424 26.5216-14.26944 0-25.94304-11.93472-25.94304-26.5216v-312.80128l-141.95712 144.82432a25.6 25.6 0 0 1-36.7104 0"  horiz-adv-x="1024" />

    
    <glyph glyph-name="xiazai" unicode="&#59212;" d="M485.62688 197.2736a42.624 42.624 0 0 1 26.90048-9.7792 45.75744 45.75744 0 0 1 29.69088 11.17696l194.57536 190.38208a24.10496 24.10496 0 0 1 0 34.93376 24.8064 24.8064 0 0 1-34.93376 0l-164.88448-161.73568v394.73664a24.80128 24.80128 0 0 1-49.60256 0v-394.73664l-165.23264 161.03936a25.15456 25.15456 0 0 1-34.93376 0 24.10496 24.10496 0 0 1 0-34.93376l198.42048-191.08352zM826.26048 255.02207999999996a30.6432 30.6432 0 0 1-30.6432-30.21312v-117.4016h-568.0128v117.4016a30.6432 30.6432 0 1 1-61.2864 0v-119.55712a56.56064 56.56064 0 0 1 16.39936-43.1616 57.38496 57.38496 0 0 1 40.1408-16.83456H798.208c16.0256-0.2048 31.50848 5.83168 43.1616 16.83456a56.54528 56.54528 0 0 1 16.39936 41.00608v121.71776a30.6432 30.6432 0 0 1-31.06304 30.22336l-0.44544-0.01536z"  horiz-adv-x="1024" />

    
    <glyph glyph-name="zanting" unicode="&#59213;" d="M512-9.456639999999993c-219.2128 0-393.45664 174.24384-393.45664 393.45664s174.24384 393.45664 393.45664 393.45664 393.45664-174.24384 393.45664-393.45664-174.24384-393.45664-393.45664-393.45664z m0 730.70592c-185.48736 0-337.24928-151.76192-337.24928-337.24928s151.76192-337.24928 337.24928-337.24928 337.24928 151.76192 337.24928 337.24928-151.76192 337.24928-337.24928 337.24928zM418.176 546.40128c-20.864 0-37.82656-14.53056-37.82656-32.64v-259.52256c0-17.98144 16.896-32.64 37.76-32.64s37.76 14.65856 37.76 32.64v259.584c0 18.048-16.95744 32.57856-37.76 32.57856h0.06656z m187.648 0c-20.79744 0-37.76-14.53056-37.76-32.64v-259.52256c0-17.98144 16.82944-32.64 37.76-32.64 20.92544 0 37.82656 14.65856 37.82656 32.64v259.584c0 18.048-16.96256 32.57856-37.76 32.57856h-0.06656z"  horiz-adv-x="1024" />

    
    <glyph glyph-name="fuzhi" unicode="&#59214;" d="M837.76 107.26400000000001a31.62624 31.62624 0 1 0 0 63.25248 15.81568 15.81568 0 0 1 15.81568 15.81568v523.42784a15.81568 15.81568 0 0 1-15.81568 15.81568H314.33216a15.81568 15.81568 0 0 1-15.81568-15.81568 31.63136 31.63136 0 0 0-63.25248 0c0 43.66848 35.39968 79.06816 79.06816 79.06816h523.42784c43.66848 0 79.06816-35.39968 79.06816-79.06816v-523.42784c0-43.66848-35.39968-79.06816-79.06816-79.06816zM709.66784-20.828160000000025H186.24c-43.66848 0-79.06816 35.39968-79.06816 79.06816v523.42784c0 43.66848 35.39968 79.06816 79.06816 79.06816h523.42784c43.66848 0 79.06816-35.39968 79.06816-79.06816v-523.42784c0-43.66848-35.39968-79.06816-79.06816-79.06816z m-523.42784 618.31168a15.81568 15.81568 0 0 1-15.81568-15.81568v-523.42784a15.81568 15.81568 0 0 1 15.81568-15.81568h523.42784a15.81568 15.81568 0 0 1 15.81568 15.81568v523.42784a15.81568 15.81568 0 0 1-15.81568 15.81568H186.24zM604.37504 350.04927999999995h-110.96576v110.96576a33.1264 33.1264 0 0 1-66.2528 0v-110.96576h-110.96576a33.1264 33.1264 0 1 1 0-66.24768h110.96576v-110.96576a33.1264 33.1264 0 0 1 66.2528 0v110.96576h110.96576a33.1264 33.1264 0 0 1 0 66.24768z"  horiz-adv-x="1024" />

    
    <glyph glyph-name="iconfont-" unicode="&#59208;" d="M820.61824 396.23168l-292.97664-211.06176-292.97664 211.06176c-5.68832 5.68832-11.37664 8.53504-19.91168 8.53504-8.53504 0-14.22336-2.84672-19.91168-8.53504-11.37664-11.38176-11.37664-28.4416 0-39.82336l332.8-250.88 332.8 250.88c8.53504 11.38176 8.53504 25.6 0 36.97664-11.37152 11.38176-28.4416 14.22336-39.82336 2.84672zM527.64672 367.22176l332.8 250.88c8.53504 11.37664 8.53504 25.6 0 36.97664-11.37664 11.37664-28.44672 14.22336-39.82336 2.84672l-292.97664-211.05664-292.98176 211.05152c-5.68832 5.68832-11.37664 8.53504-19.91168 8.53504s-14.22336-2.8416-19.91168-8.53504c-11.37664-11.37664-11.37664-28.44672 0-39.82336l332.80512-250.87488z"  horiz-adv-x="1024" />

    
    <glyph glyph-name="iconfont-1" unicode="&#59215;" d="M804.86912 677.71392c-36.77696 36.59776-86.016 56.75008-138.65472 56.75008-52.62848 0-101.76-20.15232-138.34752-56.73472l-85.68832-85.69344c-5.08416-5.08416-8.08448-13.40928-8.02304-22.26688 0.06144-8.63232 2.95936-16.36864 7.94624-21.2224 5.42208-5.26848 12.17024-6.3744 16.8704-6.3744a34.16064 34.16064 0 0 1 23.66976 9.78432l87.01952 86.6304a136.9088 136.9088 0 0 0 96.69632 39.6544c37.15584 0 71.98208-14.57152 98.0736-41.0112 54.016-54.02112 54.016-141.96736-0.04096-196.0192l-86.44608-86.4512c-11.5712-11.86816-11.29472-31.06816 0.68096-42.73664 5.27872-5.2736 11.904-6.36928 16.54784-6.36928a34.08896 34.08896 0 0 1 23.6032 9.78944l86.08768 85.70368c36.736 36.73088 56.93952 86.00576 56.87296 138.73152-0.06656 52.46464-20.26496 101.41696-56.86784 137.83552zM587.71968 215.93600000000004a29.952 29.952 0 0 1-20.97152 8.50944 30.14656 30.14656 0 0 1-21.74464-9.216l-82.688-81.90976c-25.98912-25.98912-60.1088-40.32512-96.03584-40.32512h-0.01024c-37.90336 0.00512-75.61728 15.98464-103.4752 43.83744-54.05184 54.05184-54.05184 142.0032 0 196.04992l82.2016 82.2016a37.61152 37.61152 0 0 1 10.93632 25.15456c0.3584 8.82176-2.3552 16.80896-7.4496 21.89824-5.20704 5.20704-11.83232 6.2976-16.47616 6.2976a34.09408 34.09408 0 0 1-23.6032-9.78432L222.72 372.9664c-79.39584-79.40096-80.75776-202.42944-3.10272-280.08448 38.272-38.272 88.6272-59.35104 141.78816-59.35104s103.51104 21.07904 141.78816 59.35104l81.80224 82.19136c6.8096 6.8096 10.59328 14.32064 10.9568 21.7344 0.32768 6.79936-2.24768 13.14304-7.45472 18.35008l-0.77824 0.77824zM401.01376 326.24127999999996l167.17312 167.17312c14.69952 14.69952 40.74496 18.4832 55.44448 3.77856 15.11936-14.69952 15.11936-36.96128-3.77856-55.44448l-167.17312-167.17312c-14.69952-14.69952-40.74496-18.4832-55.44448-3.77856-10.92096 10.92096-10.92096 40.74496 3.77856 55.44448z"  horiz-adv-x="1024" />

    
    <glyph glyph-name="qushitu" unicode="&#58881;" d="M156.576 779.508h59.14v-791.016h-59.14zM157.808 47.634000000000015h1038.67v-59.142H157.808z m117.395 156.071l306.673 306.673 94.959-94.96-306.673-306.672z m336.478 88.318l339.779 339.78 94.959-94.96-339.767-339.779zM486.264 415.665l94.959 94.971 217.8-217.8-94.959-94.971z m638.751 64.44V698.188c0 6.161-4.928 9.857-9.857 9.857H897.075c-8.625 0-13.554-11.089-7.393-17.25l218.084-218.083c6.16-6.16 17.25-2.464 17.25 7.393z"  horiz-adv-x="1346" />

    
    <glyph glyph-name="hengzhou" unicode="&#59216;" d="M954.18368-11.63776H69.81632C30.25408-11.63776 0 18.61632 0 58.18368V477.09184c0 39.56224 30.25408 69.81632 69.81632 69.81632h884.36224c39.56224 0 69.81632-30.25408 69.81632-69.81632v-418.90816c0.00512-39.56736-30.24896-69.82144-69.8112-69.82144z m-884.36736 512c-13.96224 0-23.2704-9.30816-23.2704-23.2704v-418.90816c0-13.96224 9.30816-23.2704 23.2704-23.2704h884.36224c13.96224 0 23.2704 9.30816 23.2704 23.2704V477.09184c0 13.96224-9.30816 23.2704-23.2704 23.2704H69.81632zM139.63776 430.54592h325.81632v-93.09184H139.63776V430.54592z m418.90816 0h325.81632v-93.09184h-325.81632V430.54592z m-418.90816-232.7296h325.81632v-93.09184H139.63776v93.09184z m418.90816 0h325.81632v-93.09184h-325.81632v93.09184zM23.2704 761.47712L107.05408 691.6608c9.30816-9.30816 9.30816-23.2704 0-32.58368L23.2704 589.2608c-6.98368-4.65408-13.96224-4.65408-20.94592 2.3296C0 593.91488 0 598.56896 0 603.22304V749.83936c0 6.98368 4.65408 13.96224 13.96224 16.29184 2.3296-2.3296 6.98368-2.3296 9.30816-4.65408z m188.9792 18.16064h786.38592c15.22176 0 25.3696-9.30816 25.3696-23.2704v-139.63776c0-13.96224-10.14784-23.2704-25.3696-23.2704H212.2496c-15.22176 0-25.3696 9.30816-25.3696 23.2704V756.36224c0 11.63776 10.14784 23.27552 25.3696 23.27552zM23.2704 290.90816h977.45408v-46.54592H23.2704v46.54592z"  horiz-adv-x="1024" />

    
    <glyph glyph-name="zongzhou" unicode="&#59217;" d="M954.194995-11.63776H274.627635c-39.56224 0-69.81632 30.25408-69.81632 69.82144V681.89184c0 39.56224 30.25408 69.81632 69.81632 69.81632h679.56224c39.56224 0 69.81632-30.25408 69.81632-69.81632v-623.70816c0.00512-39.56736-30.24896-69.82144-69.8112-69.82144z m-679.56736 716.8c-13.96224 0-23.2704-9.30816-23.2704-23.2704v-623.70816c0-13.96224 9.30816-23.2704 23.2704-23.2704h679.56224c13.96224 0 23.2704 9.30816 23.2704 23.2704V681.89184c0 13.96224-9.30816 23.2704-23.2704 23.2704H274.627635zM328.546355 430.54592h243.1744v-93.09184H328.546355V430.54592z m312.6528 0h243.1744v-93.09184h-243.1744V430.54592z m-312.6528-232.7296h243.1744v-93.09184H328.546355v93.09184z m312.6528 0h243.1744v-93.09184h-243.1744v93.09184zM175.463475 718.30528L105.601075 634.56256c-9.31328-9.30304-23.27552-9.2928-32.58368 0.02048L3.247155 718.40768c-4.64896 6.9888-4.64384 13.96736 2.33984 20.94592 2.32448 2.32448 6.97856 2.31936 11.63264 2.31936l146.61632-0.08704c6.98368-0.00512 13.95712-4.66432 16.2816-13.97248-2.32448-2.3296-2.32448-6.98368-4.65408-9.30816zM17.173555 2.09408V574.63808c0 11.0848 6.77888 18.47296 16.94208 18.47296h111.90784c10.1632 0 16.94208-7.38816 16.94208-18.47296v-572.544c0-11.0848-6.77888-18.47296-16.94208-18.47296H34.120755c-8.4736 0-16.9472 7.38816-16.9472 18.47296zM228.081715 290.90816h772.65408v-46.54592H228.081715v46.54592zM328.546355 664.36096h243.1744v-93.09184H328.546355V664.36096z m312.6528 0h243.1744v-93.09184h-243.1744V664.36096zM328.546355 431.63136h243.1744v-93.09184H328.546355V431.63136z m312.6528 0h243.1744v-93.09184h-243.1744V431.63136zM228.081715 524.7232h772.65408v-46.54592H228.081715v46.54592z"  horiz-adv-x="1024" />

    
    <glyph glyph-name="paixu" unicode="&#59218;" d="M383.70862-95.437221a31.962685 31.962685 0 1 0-63.926369 0V863.447321a31.962685 31.962685 0 0 0 63.926369 0v-958.884542zM376.292694-74.980423a31.962685 31.962685 0 1 0-49.094516-40.912596L6.931337 268.299191a31.962685 31.962685 0 0 0 49.094515 40.912597L376.291694-74.980423zM639.411098 863.447321a31.962685 31.962685 0 1 0 63.92537 0v-958.884542a31.962685 31.962685 0 0 0-63.92537 0V863.447321zM646.826025 842.990523a31.962685 31.962685 0 1 0 49.094516 40.912596l320.266841-384.19221a31.962685 31.962685 0 0 0-49.093516-40.912597L646.826025 842.990523z"  horiz-adv-x="1024" />

    
    <glyph glyph-name="bianjishuju" unicode="&#59219;" d="M910.08 774.4L540.16 404.48c-10.88-10.88-26.24-10.88-37.12 0-10.88 10.88-10.88 26.24 0 37.12L872.96 811.52c10.88 10.88 26.24 10.88 37.12 0 10.24-10.88 10.24-26.88 0-37.12zM680.32 238.08H310.4c-16 0-26.24 10.88-26.24 26.24 0 16 10.88 26.24 26.24 26.24h369.92c16 0 26.24-10.88 26.24-26.24 0-16-10.88-26.24-26.24-26.24z m0-131.84H310.4c-16 0-26.24 10.88-26.24 26.24 0 16 10.88 26.24 26.24 26.24h369.92c16 0 26.24-10.88 26.24-26.24 0-16-10.88-26.24-26.24-26.24z m-528.64 633.6v-710.4c0-16 10.88-26.24 26.24-26.24h631.04c16 0 26.24 10.88 26.24 26.24v499.2h53.12V3.2c0-28.8-23.68-53.12-53.12-53.12H151.68c-28.8 0-53.12 23.68-53.12 53.12V766.08c0 28.8 23.68 53.12 53.12 53.12h472.96v-53.12H175.36c-10.24 0-23.68-12.8-23.68-26.24z m0 0"  horiz-adv-x="1024" />

    
    <glyph glyph-name="weixing" unicode="&#59220;" d="M1020.416 669.94688L819.6608 870.55872a68.34176 68.34176 0 0 1-48.47616 20.10624 68.66432 68.66432 0 0 1-48.61952-20.10624l-145.34656-145.34656-126.69952 126.6688a68.6848 68.6848 0 0 1-48.61952 20.10112A68.66432 68.66432 0 0 1 353.28 851.88096L130.56512 629.16608c-26.8032-26.8032-26.8032-70.29248 0-97.23904l126.69952-126.6688-28.60544-28.60544c-26.8032-26.8032-26.8032-70.29248 0-97.23904l200.61184-200.61184a68.41856 68.41856 0 0 1 48.61952-20.10112c17.536 0 35.21536 6.70208 48.61952 20.10112l28.64128 28.64128 122.7776-122.74688c13.40416-13.40416 30.94016-20.10112 48.61952-20.10112s35.21536 6.70208 48.61952 20.10112l222.72 222.71488c26.8032 26.8032 26.8032 70.29248 0 97.23904l-122.7776 122.74688 145.3056 145.3056c26.8032 26.80832 26.8032 70.2976 0 97.24416zM170.91584 572.27776a11.70432 11.70432 0 0 0 0 16.5376L393.6256 811.52512a11.51488 11.51488 0 0 0 8.2688 3.42016c2.14016 0 5.41696-0.56832 8.2688-3.42016l126.68416-126.68416L297.6 445.5936 170.91584 572.27776z m786.47808-307.97312c2.85184-2.85184 3.42016-5.9904 3.42016-8.2688s-0.56832-5.41696-3.42016-8.2688l-222.70976-222.70976a11.3152 11.3152 0 0 0-8.2688-3.42016 11.30496 11.30496 0 0 0-8.2688 3.42016L595.456 147.74784l239.25248 239.25248 122.68544-122.69568zM72.24832 197.00736l81.69984-81.69984-127.46752-48.0512 132.88448-57.3184 57.0368-132.59776 43.48416 132.1728 82.69824-82.8416 21.95968 174.37696-118.05696 118.05696z"  horiz-adv-x="1066" />

    
    <glyph glyph-name="ditudadian" unicode="&#59221;" d="M766.2592 390.1952l-131.7888-36.608c66.56 110.6432 129.8432 178.2784 129.8432 289.4848 0 138.1376-112.9984 250.1632-252.3136 250.1632S259.6864 781.2096 259.6864 643.072c0-129.6384 85.9648-199.68 162.9184-348.3136l-106.24-29.5424-195.584 167.68-117.0944-380.5696 198.7072-170.3424 458.8544 101.9392 272.7936-109.1584 86.272 402.5344-254.0544 112.896zM512 741.888a100.864 100.864 0 1 0 0.0512-201.728A100.864 100.864 0 0 0 512 741.888z m385.2288-798.0032l-203.3664 81.3056 7.5776 26.6752-48.4864 13.7728-9.6768-33.9968-396.7488-88.1664 1.9968 6.2976-48.0768 15.2576-3.7376-11.7248-135.1168 115.8144 84.7872 275.4048 137.0624-117.4528-6.8096-21.504 48.0768-15.2576 8.6528 27.2896 111.4624 30.976c25.9584-57.856 49.7664-126.72 67.1744-213.0944 21.9648 108.8512 53.9648 190.1568 87.8592 256.1536l127.8464 35.4816-5.376-18.7904 48.4864-13.8752 9.728 34.1504 181.76-80.7424-65.0752-303.9744zM263.7824-2.0992l-48.0768 15.1552 15.2064 48.128 48.0768-15.1552zM715.3664 100.352l-48.4864 13.824 13.824 48.5376 48.4352-13.7728zM294.2464 94.1568l-48.0768 15.2576 15.2576 48.0768 48.128-15.2576zM743.0656 197.3248l-48.4352 13.8752 13.824 48.5376 48.5376-13.8752z"  horiz-adv-x="1024" />

    
    <glyph glyph-name="tuodong" unicode="&#59222;" d="M339.86048 864.38912a75.53536 75.53536 0 0 1-56.04864-23.0144 79.43168 79.43168 0 0 1-23.0144-57.02656 75.50976 75.50976 0 0 1 23.0144-56.04864 72.73472 72.73472 0 0 1 56.04864-24.04352 75.81184 75.81184 0 0 1 56.04864 24.04352 72.66304 72.66304 0 0 1 24.01792 56.04864 76.39552 76.39552 0 0 1-24.01792 57.02656 78.70976 78.70976 0 0 1-56.04864 23.0144z m343.26528 0a71.75168 71.75168 0 0 1-55.05024-23.0144 76.39552 76.39552 0 0 1-24.01792-57.02656 72.66304 72.66304 0 0 1 24.01792-56.04864 69.19168 69.19168 0 0 1 55.05024-24.04352 75.81184 75.81184 0 0 1 56.04864 24.04352 72.66304 72.66304 0 0 1 24.01792 56.04864 76.39552 76.39552 0 0 1-24.01792 57.02656 78.69952 78.69952 0 0 1-56.02816 23.0144h-0.02048zM339.86048 464.07168a75.53536 75.53536 0 0 1-56.04864-23.0144 79.43168 79.43168 0 0 1-23.0144-57.02656 75.50976 75.50976 0 0 1 23.0144-56.04864 72.73472 72.73472 0 0 1 56.04864-24.04352 75.81184 75.81184 0 0 1 56.04864 24.04352 72.66304 72.66304 0 0 1 24.01792 56.04864 76.39552 76.39552 0 0 1-24.01792 57.02656 78.70976 78.70976 0 0 1-56.04864 23.0144z m343.26528 0a71.75168 71.75168 0 0 1-55.05024-23.0144 76.39552 76.39552 0 0 1-24.01792-57.02656 72.66304 72.66304 0 0 1 24.01792-56.04864 69.19168 69.19168 0 0 1 55.05024-24.04352 75.81184 75.81184 0 0 1 56.04864 24.04352 72.66304 72.66304 0 0 1 24.01792 56.04864 76.39552 76.39552 0 0 1-24.01792 57.02656 78.69952 78.69952 0 0 1-56.02816 23.0144h-0.02048z m-343.26528-400.31232a75.53536 75.53536 0 0 1-56.04864-23.0144 79.43168 79.43168 0 0 1-23.0144-57.02656 75.50976 75.50976 0 0 1 23.0144-56.04864 72.73472 72.73472 0 0 1 56.04864-24.04352 75.81184 75.81184 0 0 1 56.04864 24.04352 72.66304 72.66304 0 0 1 24.01792 56.04864 76.39552 76.39552 0 0 1-24.01792 57.02656 78.70976 78.70976 0 0 1-56.04864 23.0144z m343.26528 0a71.75168 71.75168 0 0 1-55.05024-23.0144 76.39552 76.39552 0 0 1-24.01792-57.02656 72.66304 72.66304 0 0 1 24.01792-56.04864 69.19168 69.19168 0 0 1 55.05024-24.04352 75.81184 75.81184 0 0 1 56.04864 24.04352 72.66304 72.66304 0 0 1 24.01792 56.04864 76.39552 76.39552 0 0 1-24.01792 57.02656 78.69952 78.69952 0 0 1-56.02816 23.0144h-0.02048z"  horiz-adv-x="1024" />

    
    <glyph glyph-name="shaixuan" unicode="&#59223;" d="M761.888768 703.19818525c5.51667485-14.09169635 3.1981568-26.05128818-6.67593387-36.05353814L518.9628359 413.16788907v-382.14769778c0.60001849-13.42759822-6.96137955-25.73088995-18.69960533-30.43200569a31.41650205 31.41650205 0 0 0-11.97124267-2.54570951c-8.16141653-0.21554062-16.01408569 3.34379235-21.57153848 9.76923306l-122.67756658 131.90503538c-5.88367645 6.03513742-9.18086542 14.41209458-9.09930951 23.15022792V413.22614329L98.7460039 667.20290133c-9.92651947 9.88574151-12.13435449 21.90358755-6.67593386 35.99528392 4.31663787 12.60038827 15.74611627 20.74432853 28.24164693 20.12683377h613.3878329c13.40429653-0.05825422 22.83565511-6.75166435 28.24164693-20.12683377h-0.0524288zM633.74112995 319.92035554999995h346.61262222v-77.18684444h-346.61262222zM633.74112995 167.00302222000005h346.61262222v-77.18684444h-346.61262222z"  horiz-adv-x="1024" />

    
    <glyph glyph-name="quyu" unicode="&#59092;" d="M884.1 797.5H148.2c-31.3 0-56.7-25.2-56.7-56.3v-730.8c0-31.1 25.4-56.3 56.7-56.3h735.9c31.3 0 56.7 25.2 56.7 56.3V741.2c0 31.1-25.4 56.3-56.7 56.3z m2.5-733.3c0-31.1-25.4-56.3-56.7-56.3H202.4c-31.3 0-56.7 25.2-56.7 56.3V687.3c0 31.1 25.4 56.3 56.7 56.3h627.5c31.3 0 56.7-25.2 56.7-56.3v-623.1zM5 773.1a117.8 117 0 1 1 235.6 0 117.8 117 0 1 1-235.6 0zM788.4 773.1a117.8 117 0 1 1 235.6 0 117.8 117 0 1 1-235.6 0zM5-10.5a117.8 117 0 1 1 235.6 0 117.8 117 0 1 1-235.6 0zM788.4-10.5a117.8 117 0 1 1 235.6 0 117.8 117 0 1 1-235.6 0z"  horiz-adv-x="1024" />

    
    <glyph glyph-name="zhongxin" unicode="&#59093;" d="M782.052 432c-23.144 167.169-166.689 295.889-340.314 295.889-189.75 0-343.574-153.74-343.574-343.389 0-189.648 153.823-343.389 343.574-343.389 92.101 0 175.739 36.22 237.43 95.187l71.695-67.182C671.193-8.899 562.086-57 441.738-57 197.773-57 0 140.666 0 384.5S197.773 826 441.738 826c227.909 0 415.505-172.504 439.211-394H1024L831 210 638 432h144.052z"  horiz-adv-x="1024" />

    
    <glyph glyph-name="bangzhu" unicode="&#59094;" d="M512-128C229.236-128 0 101.236 0 384S229.236 896 512 896s512-229.236 512-512-229.236-512-512-512z m0 68.236c245.015 0 443.764 198.61 443.764 443.764S757.015 827.764 512 827.764C266.985 827.764 68.236 629.015 68.236 384c0-245.015 198.749-443.764 443.764-443.764zM525.265 634.275c46.639 0 84.434-12.335 113.571-38.633 29.184-25.46 43.66-60.462 43.66-104.122 0-35.654-9.449-65.443-27.648-88.762-6.516-8.006-26.996-26.997-61.114-56.786-13.87-11.683-24.018-24.808-30.627-37.841-8.006-14.522-11.636-30.627-11.636-48.128v-12.335h-77.964v12.335c0 26.996 4.329 50.269 14.476 69.12 9.495 20.34 37.143 50.269 82.292 90.298l12.334 13.824c13.173 16.803 20.34 34.164 20.34 53.155 0 25.507-7.307 45.15-21.13 59.671-14.523 14.522-35.655 21.83-61.906 21.83-32.815 0-56.786-10.193-71.354-31.325-13.126-17.501-19.643-42.31-19.643-74.287h-76.474c0 53.155 15.36 94.627 45.847 125.254 30.86 31.418 73.123 46.732 126.976 46.732z m-13.032-425.938c15.313 0 28.346-4.328 38.632-14.522 10.147-9.495 15.314-21.83 15.314-37.143 0-15.313-5.818-27.648-16.012-37.795a54.458 54.458 0 0 0-37.841-14.522c-14.476 0-27.648 5.12-37.795 15.313a50.735 50.735 0 0 0-15.36 37.144c0 15.313 5.166 27.648 15.36 37.143 9.914 10.054 23.086 14.429 37.702 14.429z"  horiz-adv-x="1024" />

    
    <glyph glyph-name="guanli" unicode="&#59224;" d="M986.97728 449.05472a32.3072 32.3072 0 0 1-22.90176 9.51296h-49.536c-20.5312 0-42.25024 16.01536-48.3584 35.59936l-25.68704 62.40768c-9.6512 18.048-5.6832 44.68736 8.75008 59.1872l35.15392 35.10784c5.86752 5.86752 9.50784 13.9776 9.50784 22.94272s-3.59936 17.08544-9.50784 22.97344l-59.66336 59.56608a32.27136 32.27136 0 0 1-22.90176 9.48736 32.4864 32.4864 0 0 1-22.94784-9.48736l-35.1488-35.15392c-14.43328-14.47936-41.1648-18.4576-59.2384-8.7552l-62.35648 25.66656c-19.49184 6.05184-35.584 27.81696-35.584 48.32768v49.6128a32.3328 32.3328 0 0 1-9.50784 22.92224 32.28672 32.28672 0 0 1-22.90176 9.50784H469.89312a32.3072 32.3072 0 0 1-22.94784-9.50784 32.3328 32.3328 0 0 1-9.50784-22.92224v-49.6128c0-20.51072-15.94368-42.27584-35.5328-48.32768l-62.4128-25.66144c-18.11456-9.7024-44.70784-5.77024-59.136 8.7552l-35.29728 35.1232a32.3584 32.3584 0 0 1-22.94784 9.46688 32.35328 32.35328 0 0 1-22.89664-9.48736L139.69408 696.78592a32.45568 32.45568 0 0 1-9.50784-22.92224c0-8.93952 3.64032-17.05472 9.50784-22.92224l35.10272-35.1744c14.52544-14.53056 18.49856-41.1392 8.7552-59.1872l-25.69216-62.45888c-6.05696-19.584-27.77088-35.59936-48.3072-35.59936l-49.58208 0.04608a32.3072 32.3072 0 0 1-22.94784-9.50784 32.33792 32.33792 0 0 1-9.50784-22.94784v-84.24448c0-8.29952 3.16928-16.60416 9.50784-22.94272a32.38912 32.38912 0 0 1 22.94272-9.48736h49.5872c20.5312-0.04608 42.19904-16.06144 48.26112-35.59936l25.73312-62.40768c9.65632-18.0992 5.72416-44.80512-8.7552-59.2384l-35.2-35.10272a32.38912 32.38912 0 0 1-9.50784-22.97344c0-8.93952 3.64544-17.0752 9.50784-22.94272l59.66336-59.56608a32.25088 32.25088 0 0 1 22.90176-9.48736 32.36864 32.36864 0 0 1 22.94272 9.48736l35.20512 35.12832c14.42816 14.45888 41.02144 18.432 59.04896 8.63232l62.55104-25.66656c19.584-6.07744 35.52768-27.79648 35.52768-48.32768v-49.41824c0-8.29952 3.1744-16.60928 9.51808-22.94272a32.36864 32.36864 0 0 1 22.94272-9.48736h84.21888a32.36864 32.36864 0 0 1 22.94272 9.48736 32.3584 32.3584 0 0 1 9.51808 22.94272v49.41824c0 20.5312 16.08192 42.25024 35.57888 48.32768l62.45376 25.66656c18.07872 9.79968 44.75904 5.82144 59.28448-8.63232l34.96448-35.10272a32.27648 32.27648 0 0 1 22.94784-9.55904 32.19456 32.19456 0 0 1 22.94272 9.48736l59.66336 59.61728a32.256 32.256 0 0 1 9.50784 22.96832 32.384 32.384 0 0 1-9.50784 22.94784l-35.15392 35.10272c-14.42816 14.43328-18.40128 41.1392-8.75008 59.2384l25.69216 62.40768c6.09792 19.53792 27.91424 35.55328 48.35328 35.55328h49.536a32.29696 32.29696 0 0 1 22.90176 9.50784 32.31744 32.31744 0 0 1 9.50784 22.94272V426.10688a32.3584 32.3584 0 0 1-9.51808 22.94784z m-474.83392-251.30496c-102.95296 0-186.37312 83.36384-186.37312 186.29632 0 102.90176 83.41504 186.3168 186.37312 186.3168 102.90176 0 186.3168-83.41504 186.3168-186.3168 0-102.93248-83.41504-186.29632-186.3168-186.29632z"  horiz-adv-x="1024" />

    


  </font>
</defs>
</svg>
