<?xml version="1.0" standalone="no"?>
<!DOCTYPE svg PUBLIC "-//W3C//DTD SVG 1.1//EN" "http://www.w3.org/Graphics/SVG/1.1/DTD/svg11.dtd" >
<!--
2013-9-30: Created.
-->
<svg>
<metadata>
Created by iconfont
</metadata>
<defs>

<font id="iconfont" horiz-adv-x="1024" >
  <font-face
    font-family="iconfont"
    font-weight="500"
    font-stretch="normal"
    units-per-em="1024"
    ascent="896"
    descent="-128"
  />
    <missing-glyph />
    
    <glyph glyph-name="yulan" unicode="&#59013;" d="M512.03392 786.304c159.744 0 290.24-68.736 390.016-179.52 57.792-64.192 93.952-128.128 112.832-175.232a128 128 0 0 0 0-95.104c-18.88-47.104-55.04-111.04-112.832-175.232-99.776-110.784-230.272-179.52-390.016-179.52-159.744 0-290.24 68.736-390.016 179.52C64.22592 225.40800000000002 28.06592 289.34400000000005 9.18592 336.448a128 128 0 0 0 0 95.104c18.88 47.104 55.04 111.04 112.832 175.232C221.79392 717.568 352.28992 786.304 512.03392 786.304z m0-64c-134.208 0-249.344-54.976-342.4-158.336-46.912-52.096-81.728-107.968-100.992-156.16a64 64 0 0 1 0-47.552c19.2-48.256 54.08-104.128 100.992-156.16 93.056-103.488 208.192-158.4 342.4-158.4 134.208 0 249.344 54.912 342.4 158.336 46.912 52.096 81.728 107.968 100.992 156.16a64 64 0 0 1 0 47.552c-19.2 48.256-54.08 104.128-100.992 156.16C761.37792 667.392 646.24192 722.3679999999999 512.03392 722.3679999999999zM704.03392 384a192 192 0 1 0-384.128 0.128A192 192 0 0 0 704.03392 384z m-64 0a128 128 0 1 1-256 0 128 128 0 0 1 256 0z"  horiz-adv-x="1024" />

    
    <glyph glyph-name="shanchu" unicode="&#59014;" d="M832 0V544a32 32 0 1 0 64 0v-576a32 32 0 0 0-32-32h-704a31.872 31.872 0 0 0-32 32v576a32 32 0 0 0 64 0V0h640zM96 704h832a32 32 0 1 0 0-64h-832a32 32 0 0 0 0 64zM384 512h64v-384H384V512z m192 0h64v-384H576V512zM352 832h320a32 32 0 1 0 0-64h-320a32 32 0 0 0 0 64z"  horiz-adv-x="1024" />

    
    <glyph glyph-name="fengjingmingsheng" unicode="&#59211;" d="M221.248 384c-22.592-0.32-54.464 20.992-95.808 64C59.584 511.488 43.648 521.152 92.416 512c32.448-6.08 75.52 4.608 129.088 32h580.736c53.632-27.392 96.704-38.08 129.152-32 48.768 9.152 33.152 0-31.488-64-43.008-42.688-75.52-64-97.344-64H221.248z m575.616-32l32-352H608v96a96 96 0 0 1-192 0V0H188.864l32 352h576zM348.224 576c-42.112 0-84.8 10.688-128 32-64.832 32-80.192 73.152-31.936 64 32.192-6.08 74.816 4.544 127.936 32h384c53.12-27.456 95.808-38.08 128-32 48.256 9.152 31.296-31.36-32-64-42.176-21.76-84.608-32.448-127.232-32H348.288z m304.832 192c9.792 0 18.752-5.568 23.104-14.336l24.896-49.664h-64v48a16 16 0 0 0 16 16z m-288 0a25.92 25.92 0 0 1-23.168-14.336L317.056 704h64v48a16 16 0 0 1-16 16z"  horiz-adv-x="1024" />

    
    <glyph glyph-name="yiliao" unicode="&#59212;" d="M640 768a64 64 0 0 0 64-64v-64h128a128 128 0 0 0 128-128v-384a128 128 0 0 0-128-128H192a128 128 0 0 0-128 128V512a128 128 0 0 0 128 128h128V704a64 64 0 0 0 64 64h256zM544 512h-64a32 32 0 0 1-32-32V384H352a32 32 0 0 1-31.488-26.24L320 352v-64a32 32 0 0 1 32-32H448v-96a32 32 0 0 1 26.24-31.488L480 128h64a32 32 0 0 1 32 32V256h96a32 32 0 0 1 31.488 26.24L704 288v64a32 32 0 0 1-32 32H576V480a32 32 0 0 1-26.24 31.488L544 512zM640 704H384v-64h256V704z"  horiz-adv-x="1024" />

    
    <glyph glyph-name="shangye" unicode="&#59213;" d="M760.448 768c67.072 0 123.648-48.064 131.968-112.128l66.56-512c0.64-5.248 1.024-10.56 1.024-15.872 0-70.72-59.52-128-133.056-128H197.12a138.24 138.24 0 0 0-16.512 0.96c-72.96 8.768-124.608 72.768-115.52 142.912l66.56 512C139.904 719.872 196.48 768 263.616 768z m-80.448-232a56 56 0 0 1-28.032-104.512v-63.488l-0.32-9.216A139.968 139.968 0 0 0 512 228.032l-9.216 0.32-9.024 0.832A140.032 140.032 0 0 0 372.032 368v63.488a56 56 0 1 1-56 0v-63.488l0.32-10.752a195.968 195.968 0 0 1 391.68 10.752v63.488a56 56 0 0 1-28.032 104.512z"  horiz-adv-x="1024" />

    
    <glyph glyph-name="jiaoyu" unicode="&#59215;" d="M810.624 394.24v-280.448l-114.24-65.216a374.144 374.144 0 0 0-368.704 0l-114.304 65.216V394.24l254.272-96.768c28.544-10.88 60.16-10.88 88.704 0l254.272 96.768zM448.704 750.72c39.04 23.04 87.552 23.04 126.592 0l373.44-222.016c4.48-2.688 7.872-6.656 9.728-11.264a22.4 22.4 0 0 0-14.016-29.312L554.048 348.864c-27.136-9.664-56.832-9.664-83.968 0L79.488 488.128a23.68 23.68 0 0 0-11.84 9.216 22.08 22.08 0 0 0 7.616 31.36L448.64 750.72z"  horiz-adv-x="1024" />

    
    <glyph glyph-name="interfaceimage-L" unicode="&#59173;" d="M754.526316 303.15789500000005l53.894737-26.947369h161.68421a53.894737 53.894737 0 0 0 53.894737-53.894737v-296.421052a53.894737 53.894737 0 0 0-53.894737-53.894737H646.736842a53.894737 53.894737 0 0 0-53.894737 53.894737V249.26315799999998a53.894737 53.894737 0 0 0 53.894737 53.894737h107.789474zM900.810105 896A69.295158 69.295158 0 0 0 970.105263 826.704842V330.10526300000004h-109.298526a107.789474 107.789474 0 0 0-48.195369 11.37179l-8.407579 4.203789a107.789474 107.789474 0 0 1-11.937684 5.093053l-32.431158 32.417684a67.368421 67.368421 0 0 1-95.272421 0l-95.474526-95.474526-238.228211 238.241684a67.368421 67.368421 0 0 1-95.272421 0L80.842105 371.226947V6.736842000000024H538.947368v-80.842105H69.295158A69.295158 69.295158 0 0 0 0-4.810105000000021V826.704842A69.295158 69.295158 0 0 0 69.295158 896h831.514947zM738.627368 235.78947400000004H660.210526v-296.421053h296.421053V101.05263200000002H714.105263a13.473684 13.473684 0 0 0-13.473684 13.473684v26.947368a13.473684 13.473684 0 0 0 13.473684 13.473684h242.526316v53.894737H792.522105l-53.90821 26.947369zM619.789474 734.315789a107.789474 107.789474 0 1 1 0-215.578947 107.789474 107.789474 0 0 1 0 215.578947z"  horiz-adv-x="1024" />

    
    <glyph glyph-name="interfaceimage-W" unicode="&#59174;" d="M808.421053 330.10526300000004c126.504421 0 229.052632-102.548211 229.052631-229.052631s-102.548211-229.052632-229.052631-229.052632-229.052632 102.548211-229.052632 229.052632 102.548211 229.052632 229.052632 229.052631z m92.389052 565.894737A69.295158 69.295158 0 0 0 970.105263 826.704842l0.013474-477.170526A295.033263 295.033263 0 0 1 808.421053 397.473684c-20.143158 0-39.828211-2.021053-58.853053-5.847579a67.395368 67.395368 0 0 1-85.018947-8.434526l-95.461053-95.474526-238.228211 238.241684a67.368421 67.368421 0 0 1-95.272421 0L80.842105 371.226947V6.736842000000024h446.464a295.545263 295.545263 0 0 1 41.957053-80.842105H69.295158A69.295158 69.295158 0 0 0 0-4.810105000000021V826.704842A69.295158 69.295158 0 0 0 69.295158 896h831.514947z m-113.448421-902.292211c4.230737-10.536421 9.081263-20.250947 14.457263-28.968421 1.401263-2.250105 2.802526-4.392421 4.190316-6.413473l2.398316-3.368421 0.323368 0.40421c1.387789 1.913263 2.802526 3.947789 4.190316 6.090105l2.101895 3.287579c5.389474 8.717474 10.24 18.432 14.457263 28.968421l-5.160421-0.188631a493.109895 493.109895 0 0 0-36.958316 0.188631z m-115.550316 20.816843l1.751579-2.681264a162.546526 162.546526 0 0 1 48.330106-47.400421 342.635789 342.635789 0 0 0-11.021474 39.073685 342.662737 342.662737 0 0 0-39.060211 11.008z m273.219369 0l-2.937263-1.010527c-11.317895-3.84-23.390316-7.194947-36.109474-10.010947a343.390316 343.390316 0 0 0-11.034947-39.060211 162.573474 162.573474 0 0 1 50.081684 50.081685zM808.421053 141.47368400000005c-13.029053 0-25.788632-0.592842-38.130527-1.738105a325.066105 325.066105 0 0 1 0-77.365895 416.080842 416.080842 0 0 1 76.261053 0 325.066105 325.066105 0 0 1 0 77.365895A411.930947 411.930947 0 0 1 808.421053 141.47368400000005z m107.15621-15.063579l0.175158-4.217263a491.479579 491.479579 0 0 0-0.188632-46.48421 209.138526 209.138526 0 0 1 26.138948 10.078315c9.647158 4.540632 17.273263 9.256421 22.622316 13.608421l1.926736 1.657264c-4.810105 4.298105-11.883789 8.973474-21.018947 13.554526l-3.530105 1.711158a210.364632 210.364632 0 0 1-26.125474 10.091789z m-214.298947 0l-2.519579-0.808421c-8.488421-2.789053-16.410947-5.888-23.619369-9.296842-9.647158-4.527158-17.273263-9.242947-22.622315-13.608421l-1.940211-1.643789c4.823579-4.298105 11.897263-8.973474 21.045895-13.554527l3.516631-1.711158c7.909053-3.718737 16.666947-7.100632 26.125474-10.091789a526.821053 526.821053 0 0 0-0.606316 19.941053L700.631579 101.05263200000002c0 8.569263 0.215579 17.030737 0.646737 25.344z m20.614737 111.252211l-2.681264-1.751579a162.546526 162.546526 0 0 1-47.400421-48.330105c12.153263 4.257684 25.222737 7.949474 39.060211 11.021473 3.058526 13.837474 6.763789 26.906947 11.021474 39.060211z m173.056 0l1.010526-2.937263c3.84-11.317895 7.194947-23.390316 10.010947-36.109474 13.837474-3.072 26.906947-6.777263 39.060211-11.034947a162.573474 162.573474 0 0 1-50.081684 50.081684zM808.421053 247.16126299999996l-0.309895-0.431158c-2.088421-2.856421-4.203789-5.982316-6.292211-9.36421-5.389474-8.717474-10.24-18.432-14.457263-28.968421a518.359579 518.359579 0 0 0 42.118737 0 189.130105 189.130105 0 0 1-14.457263 28.968421 148.655158 148.655158 0 0 1-4.190316 6.413473L808.421053 247.16126299999996zM619.789474 734.315789a107.789474 107.789474 0 1 1 0-215.578947 107.789474 107.789474 0 0 1 0 215.578947z"  horiz-adv-x="1037" />

    
    <glyph glyph-name="interfacecircular" unicode="&#59159;" d="M512 0A384 384 0 1 0 512 768a384 384 0 0 0 0-768z"  horiz-adv-x="1024" />

    
    <glyph glyph-name="interfacearrow" unicode="&#59163;" d="M908.608 112.06399999999996L512 277.312l-396.608-165.248a32 32 0 0 0-37.312 49.536l384 479.936a64 64 0 0 0 99.84 0l384-479.936a32 32 0 0 0-37.312-49.536z"  horiz-adv-x="1024" />

    
    <glyph glyph-name="interfacecoordinate" unicode="&#59164;" d="M512-128s-384 329.984-384 592.512C128 667.456 299.904 832 512 832s384-164.48 384-367.488C896 201.98400000000004 512-128 512-128z"  horiz-adv-x="1024" />

    
    <glyph glyph-name="interfacediamond" unicode="&#59167;" d="M512 836.54834m45.254834-45.254834l362.038672-362.038672q45.254834-45.254834 0-90.509668l-362.038672-362.038672q-45.254834-45.254834-90.509668 0l-362.038672 362.038672q-45.254834 45.254834 0 90.509668l362.038672 362.038672q45.254834 45.254834 90.509668 0Z"  horiz-adv-x="1024" />

    
    <glyph glyph-name="interfacehouse" unicode="&#59168;" d="M548.032 807.488l320-217.792a64 64 0 0 0 27.968-52.864V0a64 64 0 0 0-64-64h-192v306.56C640 320.64 582.72 384 512 384s-128-63.36-128-141.44V-64H192a64 64 0 0 0-64 64V536.832a64 64 0 0 0 27.968 52.864l320 217.792a64 64 0 0 0 72.064 0z"  horiz-adv-x="1024" />

    
    <glyph glyph-name="interfacerectangle" unicode="&#59169;" d="M128 768m64 0l640 0q64 0 64-64l0-640q0-64-64-64l-640 0q-64 0-64 64l0 640q0 64 64 64Z"  horiz-adv-x="1024" />

    
    <glyph glyph-name="interfaceroundedrectangle" unicode="&#59170;" d="M128 768m192 0l384 0q192 0 192-192l0-384q0-192-192-192l-384 0q-192 0-192 192l0 384q0 192 192 192Z"  horiz-adv-x="1024" />

    
    <glyph glyph-name="interfacetriangle" unicode="&#59171;" d="M894.592 128H129.408a32 32 0 0 0-25.216 51.648L461.44 639.04a64 64 0 0 0 100.992 0l357.312-459.392a32 32 0 0 0-25.216-51.648z"  horiz-adv-x="1024" />

    
    <glyph glyph-name="interfacestar" unicode="&#59172;" d="M512 70.39999999999998l-281.152-147.84a32 32 0 0 0-46.464 33.728l53.76 313.088L10.56 491.136a32 32 0 0 0 17.728 54.592l314.368 45.696L483.328 876.16a32 32 0 0 0 57.344 0l140.608-284.8 314.368-45.696a32 32 0 0 0 17.728-54.592L785.92 269.376l53.696-313.088a32 32 0 0 0-46.464-33.728L512 70.39999999999998z"  horiz-adv-x="1024" />

    
    <glyph glyph-name="interfacecheckfill" unicode="&#59157;" d="M512.03392 786.304c159.744 0 290.24-68.736 390.016-179.52 57.792-64.192 93.952-128.128 112.832-175.232a128 128 0 0 0 0-95.104c-18.88-47.104-55.04-111.04-112.832-175.232-99.776-110.784-230.272-179.52-390.016-179.52-159.744 0-290.24 68.736-390.016 179.52C64.22592 225.40800000000002 28.06592 289.34400000000005 9.18592 336.448a128 128 0 0 0 0 95.104c18.88 47.104 55.04 111.04 112.832 175.232C221.79392 717.568 352.28992 786.304 512.03392 786.304zM512.03392 576a192 192 0 1 1 0.064-384.064 192 192 0 0 1-0.064 384z m0-64a128 128 0 1 0 0-256 128 128 0 0 0 0 256z"  horiz-adv-x="1024" />

    
    <glyph glyph-name="interfacedescendingfill" unicode="&#59158;" d="M896 832a64 64 0 0 0 64-64v-768a64 64 0 0 0-64-64H128a64 64 0 0 0-64 64V768a64 64 0 0 0 64 64h768z m-128-640h-64a64 64 0 0 1 0-128h64a64 64 0 0 1 0 128zM256 704a64 64 0 0 1-64-64v-509.44a63.744 63.744 0 0 1 12.096-40.128l2.112-2.688 0.64-0.896 1.92-2.048 2.816-2.88-4.672 4.928c2.24-2.688 4.672-5.12 7.296-7.36l2.88-2.304a37.76 37.76 0 0 1 3.136-2.304l2.816-1.728c1.28-0.832 2.56-1.536 3.904-2.24l2.432-1.152a50.048 50.048 0 0 1 11.072-3.84A71.296 71.296 0 0 1 256 64l3.2 0.064 3.392 0.256L256 64a64.448 64.448 0 0 1 19.712 3.072l1.024 0.384a63.232 63.232 0 0 1 19.264 10.624l1.088 0.896 147.072 123.392a64 64 0 1 1-82.304 98.048L320 265.34400000000005V640a64 64 0 0 1-64 64z m512-256H576a64 64 0 1 1 0-128h192a64 64 0 0 1 0 128z m0 256H448a64 64 0 1 1 0-128h320a64 64 0 0 1 0 128z"  horiz-adv-x="1024" />

    
    <glyph glyph-name="interfacedemo" unicode="&#59037;" d="M283.488462 128.08542999999997H95.989321a31.868455 31.868455 0 0 0-31.99644 31.996441V768.014238H31.99644a31.99644 31.99644 0 0 0 0 63.992881h959.893212a31.99644 31.99644 0 1 0 0-63.992881H959.893212v-607.932367a31.868455 31.868455 0 0 0-31.996441-31.996441h-187.49914l201.449588-201.449588a31.99644 31.99644 0 1 0-45.306959-45.242967l-226.214834 226.278827A31.868455 31.868455 0 0 0 661.046459 128.08542999999997H362.839634a31.868455 31.868455 0 0 0-9.278968-20.477721L127.345833-118.54313200000001a31.99644 31.99644 0 0 0-45.30696 45.242967L283.488462 128.08542999999997zM127.985762 768.014238v-575.935927h767.914569V768.014238H127.985762z m500.93627-324.76387L463.436443 343.93341699999996A52.474162 52.474162 0 0 0 383.957285 388.984405V587.554315a52.474162 52.474162 0 0 0 79.479158 44.986995l165.485589-99.316951a52.474162 52.474162 0 0 0 0-89.973991zM447.950166 567.2045780000001v-157.934429l131.569362 78.967215L447.950166 567.2045780000001z"  horiz-adv-x="1024" />

    
    <glyph glyph-name="controlmove" unicode="&#59156;" d="M832 128a64 64 0 0 0 0-128H192a64 64 0 0 0 0 128h640z m0 320a64 64 0 0 0 0-128H192a64 64 0 1 0 0 128h640z m0 320a64 64 0 0 0 0-128H192a64 64 0 1 0 0 128h640z"  horiz-adv-x="1024" />

    
    <glyph glyph-name="more" unicode="&#59074;" d="M192 384m-64 0a64 64 0 1 1 128 0 64 64 0 1 1-128 0ZM512 384m-64 0a64 64 0 1 1 128 0 64 64 0 1 1-128 0ZM832 384m-64 0a64 64 0 1 1 128 0 64 64 0 1 1-128 0Z"  horiz-adv-x="1024" />

    
    <glyph glyph-name="typeT" unicode="&#59160;" d="M564.864 0V733.8240000000001H832V832H192v-98.176h266.048V0z"  horiz-adv-x="1024" />

    
    <glyph glyph-name="typeH" unicode="&#59161;" d="M299.968 0V392.192h424.064V0H832V832h-107.968v-341.632H299.968V832H192v-832z"  horiz-adv-x="1024" />

    
    <glyph glyph-name="typeF" unicode="&#59162;" d="M368.96 0V377.98400000000004h400.704V476.16h-400.64V733.8240000000001H832V832H256v-832z"  horiz-adv-x="1024" />

    
    <glyph glyph-name="typeS" unicode="&#59165;" d="M796.416 384c9.344-9.024 17.6-18.56 24.64-28.672 23.104-33.088 34.688-71.232 34.688-114.368 0-42.88-12.736-83.2-38.144-121.024-25.408-37.888-61.888-67.328-109.44-88.32-47.616-21.12-101.12-31.616-160.64-31.616-75.52 0-138.752 10.624-189.76 31.808-50.944 21.248-90.944 53.12-120 95.808a262.144 262.144 0 0 0-44.8 126.848L192 272.192l104.064 8.832 2.176-14.784c5.76-33.664 16.512-61.76 32.256-84.288 17.984-25.792 45.952-46.72 83.84-62.592 37.952-15.936 80.64-23.872 128-23.872 42.112 0 79.232 6.016 111.488 18.112 32.256 12.096 56.192 28.608 71.936 49.664 15.744 21.056 23.616 44.032 23.616 68.864 0 25.28-7.616 47.36-22.72 66.176-15.168 18.816-40.192 34.624-75.136 47.424-21.888 8.32-69.888 20.992-143.872 38.208L160 384a32 32 0 0 0 0 64h704a32 32 0 1 0 0-64h-67.584z m-279.04 448c61.76 0 116.288-9.6 163.456-28.8 47.232-19.2 83.52-47.488 108.928-84.8 22.592-33.152 35.84-70.272 39.872-111.232l1.088-15.552-105.792-7.68-2.112 14.912c-7.552 43.52-26.112 76.928-55.68 100.352-32.768 25.984-81.152 38.976-145.28 38.976-66.688 0-115.328-11.84-145.92-35.392-30.464-23.68-45.76-52.096-45.76-85.376 0-28.928 10.88-52.672 32.448-71.36 12.8-11.2 37.76-22.528 75.2-34.048H251.968a178.88 178.88 0 0 0-28.16 98.304c0 40.576 11.968 78.528 35.84 113.856 23.936 35.328 58.816 62.08 104.704 80.384C410.24 822.848 461.184 832 517.312 832z"  horiz-adv-x="1024" />

    
    <glyph glyph-name="typeA" unicode="&#59166;" d="M243.328 0l90.112 251.968h343.104L772.288 0H896L560.128 832H443.136L128 0h115.328z m399.68 341.632H364.8l90.112 244.032c19.008 52.608 33.792 105.6 44.16 158.912 12.8-44.992 32.128-102.528 58.24-172.48l85.696-230.4z"  horiz-adv-x="1024" />

    
    <glyph glyph-name="interfacebucketfill" unicode="&#59155;" d="M534.912 878.4l7.04-6.4 470.4-481.6a41.472 41.472 0 0 0 11.648-30.272 40.64 40.64 0 0 0-34.048-39.104l-7.232-0.448-117.888 3.968-356.032-364.544a78.592 78.592 0 0 0-106.112-6.4l-6.976 6.4L23.424 341.12a83.328 83.328 0 0 0-6.208 108.608l6.208 7.104L139.648 576h339.968a96 96 0 0 1 95.552 86.784l0.448 9.216a96 96 0 0 1-96 96H327.168L428.864 872a78.592 78.592 0 0 0 106.048 6.4zM992 256a32 32 0 0 0 32-32v-64a32 32 0 1 0-64 0v64a32 32 0 0 0 32 32zM447.68 704a32 32 0 1 0 0-64H32a32 32 0 0 0 0 64h415.68z"  horiz-adv-x="1024" />

    
    <glyph glyph-name="interfacelocation" unicode="&#59154;" d="M512 896a448 448 0 0 0 448-448c0-320-448-576-448-576s-448 256-448 576a448 448 0 0 0 448 448z m0-288a160 160 0 1 1-0.064-319.936A160 160 0 0 1 512 608z"  horiz-adv-x="1024" />

    
    <glyph glyph-name="interfaceanalytics" unicode="&#59153;" d="M128 853.333333h341.333333a42.666667 42.666667 0 0 0 42.666667-42.666666v-512a42.666667 42.666667 0 0 0-42.666667-42.666667H85.333333a42.666667 42.666667 0 0 0-42.666666 42.666667V768a85.333333 85.333333 0 0 0 85.333333 85.333333zM85.333333 213.33333300000004h384a42.666667 42.666667 0 0 0 42.666667-42.666666v-213.333334a42.666667 42.666667 0 0 0-42.666667-42.666666H128a85.333333 85.333333 0 0 0-85.333333 85.333333v170.666667a42.666667 42.666667 0 0 0 42.666666 42.666666zM597.333333 853.333333h298.666667a85.333333 85.333333 0 0 0 85.333333-85.333333v-170.666667a42.666667 42.666667 0 0 0-42.666666-42.666666h-341.333334a42.666667 42.666667 0 0 0-42.666666 42.666666V810.666667a42.666667 42.666667 0 0 0 42.666666 42.666666zM597.333333 213.33333300000004h341.333334a42.666667 42.666667 0 0 0 42.666666-42.666666v-170.666667a85.333333 85.333333 0 0 0-85.333333-85.333333h-298.666667a42.666667 42.666667 0 0 0-42.666666 42.666666v213.333334a42.666667 42.666667 0 0 0 42.666666 42.666666zM554.666667 512m85.333333 0l256 0q85.333333 0 85.333333-85.333333l0-85.333334q0-85.333333-85.333333-85.333333l-256 0q-85.333333 0-85.333333 85.333333l0 85.333334q0 85.333333 85.333333 85.333333Z"  horiz-adv-x="1024" />

    
    <glyph glyph-name="interfacedelfill" unicode="&#59152;" d="M832 640a64 64 0 0 0 64-64v-576a64 64 0 0 0-64-64H192a64 64 0 0 0-64 64V576a64 64 0 0 0 64 64h640zM352 512a32 32 0 0 1-32-32v-384a32 32 0 1 1 64 0v384a32 32 0 0 1-32 32z m320 0a32 32 0 0 1-32-32v-384a32 32 0 1 1 64 0v384a32 32 0 0 1-32 32z m-576 192a32 32 0 0 0 0 64H320a64 64 0 0 0 64 64h256a64 64 0 0 0 64-64h224a32 32 0 1 0 0-64h-832z"  horiz-adv-x="1024" />

    
    <glyph glyph-name="hengzhutu-weixuan" unicode="&#59096;" d="M0 256V512h1024v-256H0z m0 576h640v-192H0V832z m832-896H0v192h832v-192z"  horiz-adv-x="1024" />

    
    <glyph glyph-name="tubiao-weixuan" unicode="&#59097;" d="M768 256V448h256v-192h-256z m0-320v192h256v-192h-256z m-384 320V448h256v-192H384z m0-320v192h256v-192H384zM320 832h704v-192H320V832zM0 512h191.808v-576H0V512z m0 320h191.808v-192H0V832z"  horiz-adv-x="1024" />

    
    <glyph glyph-name="zhezhutu-weixuan" unicode="&#59098;" d="M768-128V704h192v-832h-192zM384 896h256v-1024H384V896zM64 512h192v-640H64V512z"  horiz-adv-x="1024" />

    
    <glyph glyph-name="bingtu-weixuan" unicode="&#59057;" d="M512-93.888A477.888 477.888 0 0 0 512 861.888C514.24 745.792 512 384 512 384s389.12-0.64 477.888 0A477.888 477.888 0 0 0 512-93.888zM989.888 452.288a409.6 409.6 0 0 1-409.6 409.6c1.28-292.864 0-409.6 0-409.6s171.648 3.392 409.6 0z"  horiz-adv-x="1024" />

    
    <glyph glyph-name="bingtu-xuanzhong" unicode="&#59059;" d="M512-93.888A477.888 477.888 0 0 0 512 861.888C514.24 745.792 512 384 512 384s389.12-0.64 477.888 0A477.888 477.888 0 0 0 512-93.888zM989.888 452.288a409.6 409.6 0 0 1-409.6 409.6c1.28-292.864 0-409.6 0-409.6s171.648 3.392 409.6 0z"  horiz-adv-x="1024" />

    
    <glyph glyph-name="huanxingtu-xuanzhong" unicode="&#59060;" d="M857.152 448H1024c-26.624 230.4-228.672 420.992-448 448v-166.784c142.528-24.64 254.528-137.472 281.152-281.216zM859.392 384c0-192-155.2-347.648-346.624-347.648C321.408 36.352 166.208 192 166.208 384c0 190.4 152.832 345.28 341.824 347.648V896C224.512 896 0 666.88 0 384s230.016-512 512-512c281.984 0 512 228.352 512 512.768h-164.608V384z"  horiz-adv-x="1024" />

    
    <glyph glyph-name="huanxingtu-weixuan" unicode="&#59061;" d="M857.152 448H1024c-26.624 230.4-228.672 420.992-448 448v-166.784c142.528-24.64 254.528-137.472 281.152-281.216zM859.392 384c0-192-155.2-347.648-346.624-347.648C321.408 36.352 166.208 192 166.208 384c0 190.4 152.832 345.28 341.824 347.648V896C224.512 896 0 666.88 0 384s230.016-512 512-512c281.984 0 512 228.352 512 512.768h-164.608V384z"  horiz-adv-x="1024" />

    
    <glyph glyph-name="meiguitu-weixuan" unicode="&#59062;" d="M705.215559 360.255695l318.719801-39.551975C992.76738 67.839878 776.319515-128 513.919679-128v319.9998a192.51188 192.51188 0 0 1 191.29588 168.255895z m-215.231865-166.783896l-23.935985-190.527881a384.63976 384.63976 0 0 0-205.887872 92.031943l126.847921 144.511909c28.287982-24.639985 63.80796-41.151974 103.039936-46.079971zM0 384.25568l321.215799-0.128V383.99968c0-48.38397 17.983989-92.671942 47.67997-126.399921L127.23192 46.719891A508.799682 508.799682 0 0 0 0.448 362.559693L0 383.99968v0.256z m804.031497 252.607842a381.631761 381.631761 0 0 0 94.975941-234.815853l0.384-18.047989h-192.70388c0 48.38397-17.983989 92.671942-47.67997 126.399921l145.023909 126.463921z m-580.287637-0.064l145.151909-126.399921c-24.767985-28.159982-41.343974-63.55196-46.207971-102.591936l-191.23188 23.871985A381.823761 381.823761 0 0 0 223.74386 636.799522zM513.919679 895.99936v-319.9998c-53.183967 0-101.375937-21.503987-136.255915-56.255965L150.527906 746.047454A513.279679 513.279679 0 0 0 513.919679 895.99936z m31.87198-257.919839c52.287967-6.463996 99.711938-28.543982 137.407914-61.439961l-42.239974-48.19197a192.31988 192.31988 0 0 1-103.103935 46.079971l7.935995 63.55196z"  horiz-adv-x="1024" />

    
    <glyph glyph-name="meiguitu-xuanzhong" unicode="&#59064;" d="M490.047694 193.471799l-23.935985-190.527881a384.63976 384.63976 0 0 0-205.951872 92.031943l126.847921 144.511909c28.287982-24.639985 63.80796-41.215974 103.039936-46.079971zM705.215559 360.319695l318.719801-39.615975c-30.591981-247.551845-238.527851-440.319725-493.311692-448.44772L513.919679-128v319.9998a192.51188 192.51188 0 0 1 191.29588 168.319895zM513.919679 383.99968l290.111818 252.799842a381.631761 381.631761 0 0 0 94.975941-234.751853l0.384-18.047989h-192.70388c0 48.38397-17.983989 92.607942-47.61597 126.335921l144.959909 126.527921zM513.919679 895.99936v-319.9998c-53.183967 0-101.375937-21.503987-136.255915-56.255965L150.527906 746.047454A513.279679 513.279679 0 0 0 513.919679 895.99936zM0 384.25568l321.215799-0.128V383.99968c0-48.44797 17.983989-92.671942 47.67997-126.399921L127.23192 46.719891A508.799682 508.799682 0 0 0 0.448 362.559693L0 383.99968v0.256zM513.919679 383.99968l31.87198 254.079841c52.287967-6.463996 99.711938-28.543982 137.407914-61.439961l-42.367974-48.12797a192.31988 192.31988 0 0 1-103.039935 46.079971l7.999995 63.48796zM223.74386 636.799522l145.087909-126.463921c-24.703985-28.159982-41.279974-63.48796-46.143971-102.527936l-191.23188 23.871985A381.759761 381.759761 0 0 0 223.74386 636.799522z"  horiz-adv-x="1024" />

    
    <glyph glyph-name="zidingyi" unicode="&#59083;" d="M256 320h256V448H256v-128z m448 320H256v-128h448V640z m-128-384H256v-128h320v128zM960 832v-896H64V832h896z m-128-128H192v-640h640V704z"  horiz-adv-x="1024" />

    
    <glyph glyph-name="leidatu" unicode="&#59084;" d="M503.36-96a32 32 0 0 0-16 4.16l-387.84 224a32 32 0 0 0-16 27.84v448a32 32 0 0 0 16 27.84l387.84 224a32 32 0 0 0 32 0l388.16-224a32 32 0 0 0 16-27.84v-448a32 32 0 0 0-16-27.84l-388.16-224a32 32 0 0 0-16-4.16z m-319.872 288.128L503.36 0l320.128 192.128V575.872L503.36 768 183.552 575.872v-383.744zM350.4 277.184l128.064 144.832 33.664 229.568 173.696-171.136 69.12-227.648L512 128z"  horiz-adv-x="1024" />

    
    <glyph glyph-name="zidingyi-xuanzhong" unicode="&#59085;" d="M256 320h256V448H256v-128z m448 320H256v-128h448V640z m-128-384H256v-128h320v128zM960 832v-896H64V832h896z m-128-128H192v-640h640V704z"  horiz-adv-x="1024" />

    
    <glyph glyph-name="leidatu-xuanzhong" unicode="&#59086;" d="M503.36-96a32 32 0 0 0-16 4.16l-387.84 224a32 32 0 0 0-16 27.84v448a32 32 0 0 0 16 27.84l387.84 224a32 32 0 0 0 32 0l388.16-224a32 32 0 0 0 16-27.84v-448a32 32 0 0 0-16-27.84l-388.16-224a32 32 0 0 0-16-4.16z m-319.872 288.128L503.36 0l320.128 192.128V575.872L503.36 768 183.552 575.872v-383.744zM350.4 277.184l128.064 144.832 33.664 229.568 173.696-171.136 69.12-227.648L512 128z"  horiz-adv-x="1024" />

    
    <glyph glyph-name="zhezhutu-xuanzhong" unicode="&#59089;" d="M768-128V704h192v-832h-192zM384 896h256v-1024H384V896zM64 512h192v-640H64z"  horiz-adv-x="1024" />

    
    <glyph glyph-name="hengzhutu-xuanzhong" unicode="&#59090;" d="M0 256V512h1024v-256H0z m832-320H0v192h832v-192zM0 832h640v-192H0z"  horiz-adv-x="1024" />

    
    <glyph glyph-name="tubiao-xuanzhong" unicode="&#59091;" d="M320 832h704v-192H320V832zM0 512h191.808v-576H0V512z m0 320h191.808v-192H0V832zM1024 128v-192h-256v192h256z m-384 0v-192H384v192h256z m384 320v-192h-256V448h256z m-384 0v-192H384V448h256z"  horiz-adv-x="1024" />

    
    <glyph glyph-name="controlalignleft" unicode="&#58926;" d="M768 64a64 64 0 0 0 0-128H128a64 64 0 0 0 0 128h640zM512 320a64 64 0 1 0 0-128H128a64 64 0 0 0 0 128h384z m128 256a64 64 0 0 0 0-128H128a64 64 0 1 0 0 128h512z m256 256a64 64 0 0 0 0-128H128a64 64 0 1 0 0 128h768z"  horiz-adv-x="1024" />

    
    <glyph glyph-name="controlaligncenter" unicode="&#58927;" d="M832 64a64 64 0 0 0 0-128H192a64 64 0 0 0 0 128h640z m-128 256a64 64 0 0 0 0-128H320a64 64 0 0 0 0 128h384z m64 256a64 64 0 0 0 0-128H256a64 64 0 1 0 0 128h512z m128 256a64 64 0 0 0 0-128H128a64 64 0 1 0 0 128h768z"  horiz-adv-x="1024" />

    
    <glyph glyph-name="controlalignright" unicode="&#58928;" d="M896 64a64 64 0 0 0 0-128H256a64 64 0 0 0 0 128h640z m0 256a64 64 0 0 0 0-128H512a64 64 0 0 0 0 128h384z m0 256a64 64 0 0 0 0-128H384a64 64 0 1 0 0 128h512z m0 256a64 64 0 0 0 0-128H128a64 64 0 1 0 0 128h768z"  horiz-adv-x="1024" />

    
    <glyph glyph-name="Bold" unicode="&#59092;" d="M478.08 0c108.16 0.768 176.384 2.624 204.672 5.696 45.056 4.928 83.008 18.048 113.792 39.424 30.72 21.376 55.04 49.92 72.768 85.696A245.248 245.248 0 0 1 896 241.216c0 48-13.76 89.856-41.28 125.44-27.52 35.52-66.88 60.672-118.08 75.456a196.672 196.672 0 0 1 86.272 73.216 192.384 192.384 0 0 1 31.808 107.264 186.88 186.88 0 0 1-25.792 97.28 214.4 214.4 0 0 1-64.512 69.568 219.84 219.84 0 0 1-87.68 34.304C644.096 829.248 594.432 832 527.936 832H192v-832h286.08z m12.224 501.12h-128.64V693.504h115.392c69.248-0.128 111.616-1.088 127.168-2.816 28.224-3.392 49.536-13.12 63.872-29.248 14.336-16.064 21.504-36.992 21.504-62.72 0-26.88-8.32-48.512-24.96-64.96-16.64-16.448-39.424-26.368-68.48-29.824-16-1.92-57.152-2.816-123.264-2.816h17.408z m28.48-360.96H361.6V362.624h137.024c77.248 0 127.36-3.968 150.528-11.904 23.104-7.936 40.768-20.608 52.992-38.016 12.224-17.408 18.368-38.592 18.368-63.552 0-29.504-7.936-53.12-23.808-70.656a105.472 105.472 0 0 0-61.632-33.216c-16.448-3.392-55.232-5.12-116.352-5.12z"  horiz-adv-x="1024" />

    
    <glyph glyph-name="italic" unicode="&#59093;" d="M249.28 0a32 32 0 1 0 0 64h90.368L556.224 768H480a32 32 0 0 0 0 64h294.848a32 32 0 1 0 0-64h-90.624L467.648 64h93.44a32 32 0 1 0 0-64H249.28z"  horiz-adv-x="1024" />

    
    <glyph glyph-name="Underline" unicode="&#59094;" d="M864-64a32 32 0 1 0 0-64h-704a32 32 0 1 0 0 64zM299.712 832v-472.064c0-71.04 6.528-123.456 19.648-157.12 13.184-33.664 35.712-59.584 67.776-77.824 32-18.24 71.104-27.328 117.376-27.328 79.168 0 135.616 18.048 169.28 54.144 33.664 36.032 50.56 105.408 50.56 208.128V832H832v-472.64c0-82.24-9.28-147.52-27.776-195.84-18.496-48.384-51.84-87.68-100.16-118.016-48.32-30.336-111.68-45.504-190.08-45.504-76.288 0-138.624 13.184-187.072 39.616a225.728 225.728 0 0 0-103.808 114.688C202.368 204.35199999999998 192 272.64 192 359.36V832h107.712z"  horiz-adv-x="1024" />

    
    <glyph glyph-name="interfaceminusfill" unicode="&#59151;" d="M914.304 853.333333C951.296 853.333333 981.333333 823.296 981.333333 786.304V-18.346667000000025c0-36.992-30.037333-67.029333-67.029333-67.029333H109.653333A67.029333 67.029333 0 0 0 42.666667-18.303999999999974V786.346667C42.666667 823.296 72.704 853.333333 109.696 853.333333H914.346667zM810.666667 426.666667H213.333333a42.666667 42.666667 0 0 1 0-85.333334h597.333334a42.666667 42.666667 0 0 1 0 85.333334z"  horiz-adv-x="1024" />

    
    <glyph glyph-name="zhiding" unicode="&#58924;" d="M896 576a64 64 0 0 0 64-64v-512a64 64 0 0 0-64-64H384a64 64 0 0 0-64 64v128h128v-32A96 96 0 0 1 544 0l9.216 0.448A96 96 0 0 1 640 96v24.192l77.568-77.504a96 96 0 0 1 135.744 0l6.592 7.296a96 96 0 0 1-6.592 128.448L775.808 256h24.192a96 96 0 0 1 0 192H768V576h128z m-87.936-442.88a32 32 0 0 0-14.528-53.504l-5.376-0.96h-5.44a31.872 31.872 0 0 0-19.84 9.28L576 274.75199999999995V96a32 32 0 0 0-26.24-31.488L544 64a32 32 0 0 0-32 32v256a32 32 0 0 0 32 32h256a32 32 0 0 0 5.76-63.488L800 320H621.248l186.88-186.88zM640 832a64 64 0 0 0 64-64v-320H544A96 96 0 0 1 448 352V192H128a64 64 0 0 0-64 64V768a64 64 0 0 0 64 64h512z"  horiz-adv-x="1024" />

    
    <glyph glyph-name="zhidi" unicode="&#58925;" d="M896 576a64 64 0 0 0 64-64v-512a64 64 0 0 0-64-64H384a64 64 0 0 0-64 64v128h133.44A96 96 0 0 1 544 0h256l11.52 0.768c51.072 8.96 84.48 48.64 84.48 95.232v256A96 96 0 0 1 800 448l-9.216-0.448a95.488 95.488 0 0 1-22.784-4.992V576h128z m-96-192a32 32 0 0 0 32-32v-256a32 32 0 0 0-26.24-31.488L800 64h-256a32 32 0 1 0 0 64h178.752l-186.24 186.24a32 32 0 1 0 45.312 45.184L768 173.24800000000005V352a32 32 0 0 0 32 32zM640 832a64 64 0 0 0 64-64v-440.256L627.072 404.736a96 96 0 0 1-135.808 0l-6.592-7.296a96 96 0 0 1 6.592-128.512L568.32 192H128a64 64 0 0 0-64 64V768a64 64 0 0 0 64 64h512z"  horiz-adv-x="1024" />

    
    <glyph glyph-name="zuoduiqi" unicode="&#58933;" d="M96 832a32 32 0 0 0 32-32v-832a32 32 0 1 0-64 0v832a32 32 0 0 0 32 32zM768 320a64 64 0 0 0 64-64v-192a64 64 0 0 0-64-64H256a64 64 0 0 0-64 64v192a64 64 0 0 0 64 64h512z m128 448a64 64 0 0 0 64-64v-192a64 64 0 0 0-64-64H256a64 64 0 0 0-64 64V704a64 64 0 0 0 64 64h640z"  horiz-adv-x="1024" />

    
    <glyph glyph-name="juzhong" unicode="&#58934;" d="M512-128a32 32 0 0 1 32 32V0H768a64 64 0 0 1 64 64v192a64 64 0 0 1-64 64H544V448H896a64 64 0 0 1 64 64V704a64 64 0 0 1-64 64H544V864a32 32 0 1 1-64 0V768H128a64 64 0 0 1-64-64v-192a64 64 0 0 1 64-64h352v-128H256a64 64 0 0 1-64-64v-192a64 64 0 0 1 64-64h224v-96a32 32 0 0 1 32-32z"  horiz-adv-x="1024" />

    
    <glyph glyph-name="youduiqi" unicode="&#58935;" d="M928 832a32 32 0 0 1-32-32v-832a32 32 0 1 1 64 0v832a32 32 0 0 1-32 32zM768 768H128a64 64 0 0 1-64-64v-192a64 64 0 0 1 64-64h640a64 64 0 0 1 64 64V704a64 64 0 0 1-64 64z m0-448H256a64 64 0 0 1-64-64v-192a64 64 0 0 1 64-64h512a64 64 0 0 1 64 64v192a64 64 0 0 1-64 64z"  horiz-adv-x="1024" />

    
    <glyph glyph-name="dingduiqi" unicode="&#58936;" d="M64 800a32 32 0 0 1 32-32h832a32 32 0 1 1 0 64h-832a32 32 0 0 1-32-32zM128 640v-640a64 64 0 0 1 64-64h192a64 64 0 0 1 64 64V640a64 64 0 0 1-64 64H192a64 64 0 0 1-64-64z m448 0v-512a64 64 0 0 1 64-64h192a64 64 0 0 1 64 64V640a64 64 0 0 1-64 64h-192a64 64 0 0 1-64-64z"  horiz-adv-x="1024" />

    
    <glyph glyph-name="juzhongduiqi" unicode="&#58937;" d="M1024 384a32 32 0 0 0-32-32H896V128a64 64 0 0 0-64-64h-192a64 64 0 0 0-64 64V352H448V0a64 64 0 0 0-64-64H192a64 64 0 0 0-64 64V352H32a32 32 0 1 0 0 64H128V768a64 64 0 0 0 64 64h192a64 64 0 0 0 64-64v-352h128V640a64 64 0 0 0 64 64h192a64 64 0 0 0 64-64v-224h96a32 32 0 0 0 32-32z"  horiz-adv-x="1024" />

    
    <glyph glyph-name="diduiqi" unicode="&#58938;" d="M64-32a32 32 0 0 0 32 32h832a32 32 0 1 0 0-64h-832a32 32 0 0 0-32 32zM128 128V768a64 64 0 0 0 64 64h192a64 64 0 0 0 64-64v-640a64 64 0 0 0-64-64H192a64 64 0 0 0-64 64z m448 0V640a64 64 0 0 0 64 64h192a64 64 0 0 0 64-64v-512a64 64 0 0 0-64-64h-192a64 64 0 0 0-64 64z"  horiz-adv-x="1024" />

    
    <glyph glyph-name="interfaceunlock" unicode="&#59149;" d="M282.944 432.064l41.536-41.6-158.208-158.208-1.792-1.984a137.152 137.152 0 0 1 193.792-193.792l1.92 1.792L518.4 196.54399999999998l41.6-41.6-166.784-166.912a196.16 196.16 0 0 0-277.12 277.12L282.944 432z m93.312 132.928l316.8-316.8a32 32 0 1 0-45.312-45.184l-316.8 316.8a32 32 0 1 0 45.312 45.184zM764.032 832a196.032 196.032 0 0 0 143.872-329.088L740.992 336l-41.536 41.6 158.272 158.144 1.792 1.984a137.152 137.152 0 0 1-193.792 193.792l-1.92-1.792L505.472 571.52l-41.6 41.6 166.848 166.848A196.16 196.16 0 0 0 764.032 832z"  horiz-adv-x="1024" />

    
    <glyph glyph-name="interfacelock" unicode="&#59150;" d="M282.944 432.064l41.536-41.6-158.208-158.208-1.792-1.984a137.152 137.152 0 0 1 193.792-193.792l1.92 1.792L518.4 196.54399999999998l41.6-41.6-166.784-166.912a196.16 196.16 0 0 0-277.12 277.12L282.944 432z m410.048 132.928a32 32 0 0 0 0-45.248l-316.8-316.8a32 32 0 1 0-45.184 45.312l316.8 316.8a32 32 0 0 0 45.184 0zM764.032 832a196.032 196.032 0 0 0 143.872-329.088L740.992 336l-41.536 41.6 158.272 158.144 1.792 1.984a137.152 137.152 0 0 1-193.792 193.792l-1.92-1.792L505.472 571.52l-41.6 41.6 166.848 166.848A196.16 196.16 0 0 0 764.032 832z"  horiz-adv-x="1024" />

    
    <glyph glyph-name="logo-icon" unicode="&#59148;" d="M270.928306 260.10163c-41.743754-88.516146-14.146831-188.210409 58.16256-265.578731 48.226456-51.558686 107.116048-83.30575 176.729362-95.210899l439.157621 239.526751-8.17911 214.989421c-54.194177-117.021859-147.405738-195.38985-279.60439-235.07368-198.358564-59.495452-328.07319 29.778019-386.23575 141.347138zM309.521588 257.163209c55.829999-98.240199 224.864939-167.459704 394.626911-89.303764 113.174648 52.10396 189.846231 137.924029 230.075335 257.4905V638.15827l-169.03494 81.851686c50.134915-93.756835 48.408214-187.028982-5.210396-279.816441-80.397622-139.166042-273.24286-238.890598-450.45691-183.060599zM753.101987 503.596764C794.845741 592.173496 767.248818 691.837466 694.939427 769.175495c-48.226456 51.588979-107.116048 83.30575-176.729362 95.241192l-439.157621-239.557044 8.17911-214.989421c54.194177 117.052152 147.405738 195.38985 279.60439 235.07368 198.358564 59.525745 328.07319-29.747726 386.23575-141.347138zM716.629215 506.565478c-55.860292 98.240199-224.864939 167.429411-394.626911 89.303764-113.204941-52.10396-189.876524-137.924029-230.105628-257.4905l0-212.838618 169.03494-81.881979c-50.134915 93.787128-48.408214 187.059275 5.210396 279.816441 80.427915 139.166042 273.24286 238.890598 450.45691 183.090892z"  horiz-adv-x="1024" />

    
    <glyph glyph-name="sousuo" unicode="&#59147;" d="M434.029714 896c239.689143 0 434.029714-187.977143 434.029715-420.059429 0-103.058286-38.4-197.485714-102.107429-270.628571L1024-52.443429 948.370286-128 686.08 133.997714a441.856 441.856 0 0 0-252.050286-78.043428C194.267429 55.954286 0 243.931429 0 475.940571S194.267429 896 434.029714 896z m0-96.914286c-184.393143 0-333.897143-144.676571-333.897143-323.145143 0-178.468571 149.504-323.072 333.897143-323.072 184.32 0 333.824 144.676571 333.824 323.072 0 178.468571-149.430857 323.145143-333.824 323.145143z"  horiz-adv-x="1024" />

    
    <glyph glyph-name="guanbi" unicode="&#60576;" d="M550.848 393.504l308.64 308.896a31.968 31.968 0 1 1-45.248 45.248l-308.608-308.896-308.64 308.928a31.968 31.968 0 1 1-45.248-45.248l308.64-308.896-308.64-308.896a31.968 31.968 0 1 1 45.248-45.248l308.64 308.896 308.608-308.896a31.968 31.968 0 1 1 45.248 45.248l-308.64 308.864z"  horiz-adv-x="1024" />

    
    <glyph glyph-name="circle" unicode="&#59080;" d="M512 896a512 512 0 1 0 0-1024A512 512 0 0 0 512 896z m0-64a448 448 0 1 1 0-896A448 448 0 0 1 512 832z"  horiz-adv-x="1024" />

    
    <glyph glyph-name="graph" unicode="&#59081;" d="M192 832a64 64 0 0 0 64-64h512a64 64 0 0 0 64 64h64a64 64 0 0 0 64-64v-64a64 64 0 0 0-64-64v-512a64 64 0 0 0 64-64v-64a64 64 0 0 0-64-64h-64a64 64 0 0 0-64 64H256a64 64 0 0 0-64-64H128a64 64 0 0 0-64 64v64a64 64 0 0 0 64 64V640a64 64 0 0 0-64 64V768a64 64 0 0 0 64 64h64z m0-768H128v-64h64v64z m704 0h-64v-64h64v64zM768 704H256a64 64 0 0 0-64-64v-512a64 64 0 0 0 64-64h512a64 64 0 0 0 64 64V640a64 64 0 0 0-64 64zM192 768H128v-64h64V768z m704 0h-64v-64h64V768z"  horiz-adv-x="1024" />

    
    <glyph glyph-name="line" unicode="&#59082;" d="M942.688923 859.175757m22.627417-22.627417l0 0q22.627417-22.627417 0-45.254834l-859.841846-859.841846q-22.627417-22.627417-45.254834 0l0 0q-22.627417 22.627417 0 45.254834l859.841846 859.841846q22.627417 22.627417 45.254834 0Z"  horiz-adv-x="1024" />

    
    <glyph glyph-name="shangchuanbendi" unicode="&#59107;" d="M441.664646 846.868687c40.675556 0.012929 75.88202-28.250505 84.699798-67.943434l4.189091-18.799192h400.627071c23.59596 0 42.731313-19.135354 42.731313-42.731314v-695.259798c0-23.59596-19.135354-42.731313-42.731313-42.731313H91.345455c-23.59596 0-42.731313 19.135354-42.731314 42.731313V804.137374C48.614141 827.733333 67.749495 846.868687 91.345455 846.868687H441.664646z m0-76.399192H125.013333v-714.666667h772.499394V539.138586H503.453737L441.664646 770.469495z m387.67192-541.168485v-76.412121H193.189495v76.412121h636.147071z m68.176161 454.425859H549.805253l12.864646-78.519596h334.842828v78.519596z m-10.343434-10.343435"  horiz-adv-x="1024" />

    
    <glyph glyph-name="wangluoshangchuan" unicode="&#59146;" d="M183.288023 729.444848l2.72808 2.598788c0.038788 0.038788 0.077576 0.064646 0.103435 0.103435l-2.831515-2.702223z m534.005656 88.423435l7.13697-3.465051c-2.340202 1.189495-4.732121 2.340202-7.13697 3.465051z m-676.137374-390.981818l0.284445 3.322828 0.72404 7.938586c-0.36202-3.736566-0.72404-7.49899-1.008485-11.261414z m250.828283 381.737373l7.343839 3.84c-2.443636-1.254141-4.887273-2.521212-7.343839-3.84z m411.022223 15.773738c0.219798-0.090505 0.452525-0.206869 0.685252-0.310303 0.245657-0.103434 0.478384-0.206869 0.72404-0.310303l-1.409292 0.620606z m-24.953536 10.04606c0.232727-0.077576 0.452525-0.168081 0.685253-0.271515 1.318788-0.478384 2.637576-0.930909 3.943434-1.435151l-4.628687 1.706666zM710.622164 820.997172c-2.055758 0.943838-4.137374 1.887677-6.206061 2.805656l6.206061-2.805656z m0 0c0.271515-0.116364 0.530101-0.245657 0.775758-0.36202 0.452525-0.219798 0.91798-0.400808 1.383434-0.620607l-2.159192 0.982627zM210.103376 753.622626c0.36202 0.310303 0.73697 0.607677 1.111919 0.892121 0.038788 0.038788 0.077576 0.064646 0.116364 0.103435l-1.228283-0.995556zM672.674689 836.39596c1.318788-0.465455 2.650505-0.969697 3.969293-1.461011 0.465455-0.168081 0.930909-0.336162 1.409293-0.491313l-5.378586 1.952324zM223.692063 764.534949c1.150707 0.892121 2.327273 1.758384 3.490909 2.650506 0.633535 0.478384 1.241212 0.969697 1.887677 1.44808l-5.378586-4.098586z m67.10303 43.468283c0.323232 0.18101 0.646465 0.336162 0.969697 0.504243 0.025859 0.012929 0.064646 0.038788 0.090505 0.051717l-1.060202-0.55596z m31.27596 15.230707c0.155152 0.077576 0.336162 0.142222 0.491313 0.219798 0.827475 0.36202 1.64202 0.73697 2.482424 1.09899l-2.973737-1.318788z m-124.289293-80.290909l1.28 1.137778 1.512727 1.357576-2.792727-2.495354z m157.07798-800.064646c-1.202424 0.426667-2.391919 0.866263-3.581414 1.318788l-1.810101 0.646464 5.391515-1.965252z m-5.378586 1.952323c-0.297374 0.103434-0.568889 0.206869-0.866263 0.323232-1.254141 0.452525-2.508283 0.892121-3.762424 1.370505l4.628687-1.693737zM67.829437 228.331313c-0.336162 0.943838-0.659394 1.874747-0.995556 2.805657-0.155152 0.452525-0.336162 0.905051-0.491313 1.383434l1.486869-4.189091z m884.673939-18.411313c-0.168081-0.439596-0.374949-0.879192-0.54303-1.318788-0.271515-0.646465-0.517172-1.292929-0.788687-1.939394l1.331717 3.258182zM314.869437-40.817778c-0.025859 0.012929-0.051717 0.025859-0.064647 0.038788-0.025859 0.012929-0.038788 0.012929-0.064646 0.025859l0.129293-0.064647z m404.880808 3.400404c-0.581818-0.284444-1.176566-0.55596-1.758384-0.827474-0.142222-0.064646-0.297374-0.155152-0.452525-0.232728l2.210909 1.060202z m205.795555 192.090505c-0.142222-0.258586-0.297374-0.491313-0.426666-0.736969-0.064646-0.103434-0.116364-0.219798-0.19394-0.323233l0.620606 1.060202z m-610.676363-195.490909c2.728081-1.254141 5.469091-2.495354 8.22303-3.736565l-8.22303 3.736565z m-87.389091 52.544647l-6.59394 5.094141c2.185051-1.732525 4.39596-3.413333 6.59394-5.094141z m-34.391919 28.741818c-0.465455 0.426667-0.943838 0.866263-1.409293 1.318788-0.18101 0.155152-0.349091 0.310303-0.530101 0.465454l1.939394-1.784242z m-113.480404 158.487273c-0.943838 2.146263-1.861818 4.305455-2.766869 6.464646-0.168081 0.400808-0.349091 0.788687-0.517172 1.189495l3.284041-7.654141zM312.270649-39.615354c-0.905051 0.426667-1.810101 0.879192-2.702222 1.305859l-0.607677 0.284444 3.309899-1.590303z m-3.29697 1.590303l-5.947475 2.870304c1.965253-0.956768 3.969293-1.913535 5.947475-2.870304z m-80.394343 48.911516l-0.91798 0.72404-0.155152 0.116364 1.073132-0.840404z m756.945454 331.946666l0.55596 6.193132c-0.064646-0.762828-0.142222-1.512727-0.206869-2.275556l-0.349091-3.917576z m-0.116363 94.745859l0.659394-7.292121c-0.18101 2.430707-0.413737 4.861414-0.659394 7.292121zM291.984588 808.623838l-0.129293-0.064646c0.038788 0.025859 0.090505 0.051717 0.129293 0.064646z m693.423839-371.044848l-0.064647 0.685252c0.025859-0.219798 0.038788-0.439596 0.051717-0.659394 0-0.025859 0.012929-0.025859 0.01293-0.025858z m-0.478384 4.602828c0.090505-0.827475 0.168081-1.654949 0.258586-2.482424l0.155151-1.448081-0.413737 3.930505z m0 0M982.512265 431.605657c-0.064646 0.698182-0.142222 1.396364-0.206869 2.094545-0.840404 7.990303-1.874747 15.877172-3.10303 23.76404a473.142303 473.142303 0 0 1-14.08 62.17697l-3.28404 10.60202-1.642021 4.900202c-0.892121 2.663434-1.83596 5.326869-2.766868 7.977374-3.762424 10.550303-7.886869 20.945455-12.399192 31.185455a473.429333 473.429333 0 0 1-23.41495 46.209293l-5.637171 9.50303-0.077576 0.103434a474.814061 474.814061 0 0 1-49.751919 67.400404l-0.387879 0.439596-6.852525 7.576566a494.312727 494.312727 0 0 1-21.178182 21.436768c-1.797172 1.693737-3.581414 3.387475-5.391515 5.055353-6.335354 5.84404-12.838788 11.532929-19.484445 17.040808l0.387879-0.323232c-0.155152 0.129293-0.323232 0.258586-0.465455 0.387879l-2.404848 1.965252c-1.370505 1.111919-2.728081 2.223838-4.111515 3.309899-0.452525 0.36202-0.892121 0.73697-1.344647 1.086061l1.09899-0.879192c-0.530101 0.413737-1.034343 0.827475-1.551515 1.228283-1.073131 0.840404-2.146263 1.680808-3.232323 2.521212a400.329697 400.329697 0 0 1-7.13697 5.443232l1.512727-1.124848c-0.646465 0.491313-1.292929 0.969697-1.952323 1.46101a477.880889 477.880889 0 0 1-38.244848 25.677575v0.025859a470.428444 470.428444 0 0 1-41.037576 22.044444c-1.473939 0.698182-2.947879 1.396364-4.434747 2.068687l2.456565-1.111919-3.827071 1.758384c-2.547071 1.176566-5.132929 2.327273-7.731717 3.452121-8.23596 3.607273-16.549495 6.95596-24.953535 10.084849l-2.081616 0.762828c-45.368889 16.575354-93.970101 26.479192-144.627071 28.392727l-8.093737 0.284445h-1.137778l-8.998788 0.077575c-49.157172 0.051717-98.029899-7.550707-144.885657-22.639191-7.757576-2.482424-15.450505-5.184646-23.065858-8.067879l0.452525 0.18101c-0.193939-0.077576-0.400808-0.155152-0.607677-0.232727-1.383434-0.530101-2.753939-1.060202-4.111515-1.590303-0.943838-0.36202-1.861818-0.73697-2.792727-1.09899-0.905051-0.36202-1.82303-0.711111-2.715152-1.060202l1.861819 0.72404c-5.158788-2.055758-10.265859-4.20202-15.347071-6.451717l-1.64202-0.724041 1.150707 0.530101c-3.309899-1.448081-6.606869-2.960808-9.865051-4.486464l2.844445 1.305858c-1.370505-0.633535-2.753939-1.28-4.111515-1.926464l1.26707 0.620606c-0.620606-0.297374-1.254141-0.607677-1.887676-0.905051l-2.172122-1.034343c-2.960808-1.422222-5.895758-2.857374-8.830707-4.370101l4.240808 2.120404a446.215758 446.215758 0 0 1-11.584646-5.960404c-0.077576-0.038788-0.155152-0.077576-0.219798-0.116364-7.757576-4.124444-15.398788-8.442828-22.910707-12.98101-0.051717-0.038788-0.116364-0.064646-0.18101-0.116363-0.646465-0.400808-1.305859-0.814545-1.978182-1.215354-1.913535-1.163636-3.801212-2.340202-5.701818-3.529697l-0.232728-0.142222c-6.981818-4.408889-13.860202-8.998788-20.609293-13.769697h0.025859c-4.39596-3.11596-8.714343-6.309495-13.006869-9.554748-5.430303-4.124444-10.757172-8.313535-15.980606-12.657777-0.879192-0.72404-1.745455-1.46101-2.598788-2.185051l1.512728 1.28c-0.840404-0.711111-1.693737-1.422222-2.521212-2.133333-0.284444-0.245657-0.581818-0.491313-0.853334-0.724041-0.801616-0.685253-1.603232-1.383434-2.404848-2.068687-0.465455-0.400808-0.943838-0.801616-1.396364-1.202424l1.047273 0.892121c-0.827475-0.711111-1.64202-1.422222-2.469495-2.146262l-2.430707-2.146263c-3.154747-2.805657-6.283636-5.624242-9.360808-8.520404l-3.697778-3.516768c-7.046465-6.736162-13.89899-13.705051-20.531717-20.854949l-6.632727-7.330909-0.362021-0.439596a476.780606 476.780606 0 0 1-49.829495-67.47798l-5.637171-9.541818a473.575434 473.575434 0 0 1-27.448889-55.634748l0.840404 2.094546c-3.012525-7.188687-5.85697-14.467879-8.507475-21.863434-9.865051-27.24202-17.19596-55.337374-21.889293-83.924041-2.00404-12.231111-3.542626-24.513939-4.602828-36.861414-2.469495-29.116768-2.288485-58.401616 0.555959-87.479596l-0.555959 6.21899c0.297374-3.814141 0.672323-7.576566 1.111919-11.33899l-0.55596 5.132929c0.840404-8.585051 1.926465-17.170101 3.232324-25.703434 3.788283-24.720808 9.541818-49.092525 17.195959-72.895354 1.422222-4.344242 2.909091-8.675556 4.434748-12.993939 3.077172-8.662626 6.4-17.247677 9.968485-25.729293a475.448889 475.448889 0 0 1 81.661414-129.693737l0.387879-0.439596 6.852525-7.576566c5.572525-6.025051 11.313131-11.907879 17.208889-17.622626v-0.025859c0.827475-0.814545 1.680808-1.616162 2.521212-2.430707 1.086061-1.047273 2.185051-2.081616 3.28404-3.115959l1.267071-1.189495c0.387879-0.36202 0.762828-0.72404 1.150707-1.073132l-0.620606 0.594748 1.137778-1.060202c6.58101-6.089697 13.330101-11.998384 20.247272-17.700202l-0.633535 0.504242 0.853333-0.685252 0.646465-0.530101c2.133333-1.758384 4.266667-3.490909 6.438788-5.197576 0.142222-0.103434 0.271515-0.219798 0.426667-0.349091l-0.362021 0.297374c0.193939-0.142222 0.374949-0.310303 0.55596-0.452525 2.56-2.042828 5.171717-4.059798 7.783434-6.03798 0.969697-0.72404 1.913535-1.448081 2.870303-2.172121l-1.952323 1.44808c2.663434-2.00404 5.326869-3.956364 8.016162-5.908687l-6.050909 4.473536c12.463838-9.296162 25.380202-17.984646 38.697373-26.013738v-0.025858a475.962182 475.962182 0 0 1 40.326465-21.695354c1.719596-0.814545 3.439192-1.629091 5.158788-2.417777l-2.456566 1.111919 2.521212-1.163637a464.549495 464.549495 0 0 1 9.722829-4.344242l-1.383435 0.581818c3.930505-1.732525 7.873939-3.400404 11.843233-5.016566l-3.077172 1.305859c5.520808-2.301414 11.093333-4.486465 16.704646-6.58101l2.663435-0.982626c46.312727-16.872727 94.978586-26.440404 144.226262-28.263435l8.05495-0.232727c56.979394-1.254141 113.713131 7.757576 167.473131 26.634343l-1.383434-0.504242c3.956364 1.370505 7.912727 2.805657 11.830303 4.292525l-0.995556-0.36202c0.775758 0.297374 1.551515 0.581818 2.327273 0.866263l-1.357576-0.491313c1.292929 0.491313 2.598788 0.995556 3.891717 1.499798l-2.56-1.021415c1.396364 0.530101 2.753939 1.086061 4.137374 1.616162 0.659394 0.258586 1.318788 0.517172 1.965253 0.775758l0.581818 0.232727c1.693737 0.672323 3.400404 1.357576 5.081212 2.042828l-2.689293-1.073131c1.150707 0.465455 2.314343 0.943838 3.465051 1.422222l-0.775758-0.336162c1.939394 0.801616 3.865859 1.629091 5.792323 2.456566 5.934545 2.534141 11.804444 5.197576 17.635556 7.990303 7.68 3.697778 15.269495 7.576566 22.716767 11.623435a475.981576 475.981576 0 0 1 44.024243 27.293737c10.821818 7.550707 21.307475 15.553939 31.482828 23.983838l-8.791919-7.136969c3.490909 2.766869 6.917172 5.572525 10.356364 8.429899l-1.538586-1.305859c9.645253 8.029091 18.980202 16.407273 27.96606 25.160404l-7.330909-6.968889c6.296566 5.869899 12.450909 11.907879 18.424243 18.126869l8.093737 8.636768 5.236364 5.805252 0.36202 0.387879c21.320404 24.100202 40.093737 50.294949 56.126061 78.183434 8.391111 14.610101 15.993535 29.659798 22.768484 45.084445v0.025858c1.409293 3.154747 2.753939 6.348283 4.085657 9.541818 2.715152 6.529293 5.288081 13.123232 7.718788 19.833536a470.487919 470.487919 0 0 1 21.889293 84.156767c1.861818 11.326061 3.29697 22.742626 4.305454 34.172122l0.284445 3.115959c2.469495 29.155556 2.210909 58.51798-0.73697 87.673536zM827.128023 643.852929a606.180848 606.180848 0 0 0-126.35798-69.081212 709.421253 709.421253 0 0 1-123.035152 211.044849l-4.732121 5.598383a472.815192 472.815192 0 0 0 254.125253-147.56202z m-154.453334-263.240404c0-38.865455-3.801212-76.838788-11.054545-113.54505-48.342626 10.938182-98.663434 16.717576-150.277172 16.717576-50.553535 0.025859-100.93899-5.585455-150.251313-16.743435-7.292121 36.75798-11.106263 74.705455-11.106263 113.570909-0.025859 38.102626 3.697778 76.140606 11.067475 113.519192 48.329697-10.938182 98.650505-16.717576 150.277172-16.717576 49.157172 0 97.086061 5.236364 143.243636 15.166061l7.020606 1.590303v-0.012929h-0.025858c7.305051-36.75798 11.106263-74.705455 11.106262-113.545051zM510.864588 766.16404a634.113293 634.113293 0 0 0 134.697374-212.725656c-43.403636-9.386667-88.475152-14.312727-134.697374-14.312727s-91.280808 4.964848-134.645656 14.364444a633.836606 633.836606 0 0 0 129.176565 206.907475l5.469091 5.766464z m-67.594343 24.358788l4.124444 0.91798a708.88598 708.88598 0 0 1-127.534545-216.13899A605.354667 605.354667 0 0 0 193.838326 644.266667c65.758384 73.658182 153.005253 124.793535 249.431919 146.256161zM163.118326 174.920404C128.403174 236.205253 108.54378 307.070707 108.54378 382.53899a419.370667 419.370667 0 0 0 50.372525 199.912727l4.227879 7.68a628.807111 628.807111 0 0 1 139.88202-75.300202 636.582788 636.582788 0 0 1-13.860202-132.318384c-0.038788-44.450909 4.628687-88.798384 13.886061-132.292525a629.165253 629.165253 0 0 1-139.933737-75.300202z m36.124444-50.10101c37.960404 27.073939 78.868687 49.726061 121.96202 67.503838l5.559596 2.185051a717.853737 717.853737 0 0 1 128.943839-218.647273c-99.11596 21.191111-188.961616 73.347879-256.465455 148.958384z m177.73899 85.087677c43.713939 9.451313 89.121616 14.416162 135.667071 14.416161a639.107879 639.107879 0 0 0 135.66707-14.454949 639.175111 639.175111 0 0 0-135.66707-214.238384 638.551919 638.551919 0 0 0-135.667071 214.277172z m195.452121-234.020202a720.508121 720.508121 0 0 1 129.202424 218.492121l0.517172 1.357576a614.459475 614.459475 0 0 0 128.142222-70.154344 479.69099 479.69099 0 0 0-257.861818-149.695353z m286.267475 199.227474a628.376566 628.376566 0 0 1-139.778586 75.235556 637.004283 637.004283 0 0 1 13.847273 132.189091c0 45.317172-4.822626 89.574141-13.873131 132.176162a629.510465 629.510465 0 0 1 133.494949 70.800808l6.309495 4.447676c34.689293-61.233131 54.535758-132.02101 54.522828-207.437575 0.129293-72.688485-18.669899-144.174545-54.522828-207.411718zM262.014487 788.712727c0.077576 0.051717 0.155152 0.103434 0.232728 0.142222l-0.232728-0.142222z m7.951515 4.926061c0.038788 0.025859 0.090505 0.051717 0.142223 0.077576 0.103434 0.064646 0.206869 0.129293 0.310303 0.18101l-0.452526-0.258586z m689.635556-242.566465c0.232727-0.646465 0.439596-1.292929 0.685253-1.952323 0.258586-0.711111 0.530101-1.409293 0.762828-2.120404l-1.448081 4.072727zM202.914689 747.481212l-2.340202-2.055757 0.91798 0.801616 1.422222 1.254141z m514.37899 70.387071l-2.055757 1.008485c0.672323-0.310303 1.305859-0.646465 1.978181-0.969697l0.077576-0.038788z m0 0M219.658124 17.803636l1.228282-0.969697c-0.349091 0.271515-0.685253 0.54303-1.034343 0.814546l-0.193939 0.155151zM796.291659 770.327273a464.484848 464.484848 0 0 1-5.727677 4.189091l5.727677-4.189091z m7.589495-5.779394c0.077576-0.051717 0.155152-0.103434 0.219798-0.168081 0.426667-0.323232 0.853333-0.646465 1.267071-0.982626l-1.486869 1.150707z m182.212525-415.521616l0.284445 3.309899-0.219798-2.456566c-0.025859-0.284444-0.038788-0.568889-0.064647-0.853333zM803.881154 764.547879c-1.797172 1.396364-3.607273 2.779798-5.430303 4.163232l5.430303-4.163232z m144.019394-184.242424l3.180606-7.395556c-1.047273 2.469495-2.107475 4.93899-3.180606 7.395556zM796.291659 770.327273c0.064646-0.051717 0.142222-0.103434 0.206869-0.155152 0.142222-0.103434 0.310303-0.206869 0.452525-0.336161l-0.659394 0.491313z m39.848081-33.124849c1.499798-1.383434 2.973737-2.805657 4.460606-4.214949 0.478384-0.452525 0.969697-0.905051 1.46101-1.357576l-5.921616 5.572525z m-30.771717 26.207677c0.659394-0.517172 1.292929-1.034343 1.952323-1.551515 0.142222-0.116364 0.297374-0.232727 0.439596-0.349091l-2.391919 1.900606z m29.026262-24.617374c0.271515-0.232727 0.530101-0.491313 0.801616-0.749899l0.91798-0.840404-1.719596 1.590303z m0 0"  horiz-adv-x="1024" />

    
    <glyph glyph-name="paixu" unicode="&#59130;" d="M340.82581-113.638371c29.143876-16.856187 32.609634-18.825368 55.845967-5.986309l10.397274 5.907542c9.215766 12.602757 10.869878 14.887007 12.602757 25.756885l1.102742 8.743162V896H327.671682v-858.956657L65.849405 309.735497 0 241.208006l340.82581-354.846377zM744.744172 695.537396v96.883695H558.45967v-96.883695h186.205735z m93.0241-226.061953v96.883694H558.538437v-96.883694h279.229835z m93.102867-226.061954v96.883694H558.538437v-96.883694h372.332702zM1023.974007 17.351535v96.883694H558.45967v-96.883694H1023.974007z"  horiz-adv-x="1024" />

    
    <glyph glyph-name="xitongwenjian" unicode="&#59131;" d="M1024 896v-89.6h-60.269714v-597.357714c0-49.444571-43.300571-89.6-96.768-89.6H656.091429l160.621714-179.2H695.808l-160.621714 179.2h-16.310857l-160.621715-179.2H237.421714l160.548572 179.2H157.037714c-53.394286 0-96.768 40.155429-96.768 89.6V806.4H0V896h1024z m-150.601143-89.6H150.674286v-597.357714h722.797714V806.4z m-512-328.557714v-89.6H271.067429V477.842286H361.325714z m391.533714 0v-89.6h-331.337142V477.842286h331.337142z m0 149.357714V537.6h-331.337142V627.2h331.337142z m-391.533714 0V537.6H271.067429V627.2H361.325714z"  horiz-adv-x="1024" />

    
    <glyph glyph-name="huishouzhan" unicode="&#59132;" d="M242.249143 622.957714l45.714286-645.851428h448.146285l45.714286 645.851428h105.618286l-46.08-653.312A105.325714 105.325714 0 0 0 735.963429-128H288.036571A105.325714 105.325714 0 0 0 182.857143-30.281143l-46.226286 653.165714h105.691429zM409.6 486.4v-409.6h-68.242286V486.4H409.6z m273.042286 0v-409.6H614.4V486.4h68.242286zM0 691.2h1024v-68.242286H0V691.2zM750.957714 896v-68.242286h-409.6V896h409.6z"  horiz-adv-x="1024" />

    
    <glyph glyph-name="liebiao" unicode="&#59133;" d="M128-26.387692V-128H0v101.612308h128z m896 0V-128H191.960615v101.612308H1024zM128 434.806154v-101.612308H0v101.612308h128z m896 0v-101.612308H191.960615v101.612308H1024zM128 896v-101.612308H0V896h128zM1024 896v-101.612308H191.960615V896H1024z"  horiz-adv-x="1024" />

    
    <glyph glyph-name="zhengxu" unicode="&#59134;" d="M432.042667-96V710.912l243.968-192.341333a10.752 10.752 0 0 1 17.322666 8.362666V613.376a42.496 42.496 0 0 1-16.213333 33.450667L399.701333 865.450667a42.666667 42.666667 0 0 1-69.12-33.450667v-928c0-5.888 4.778667-10.666667 10.666667-10.666667h80.042667a10.666667 10.666667 0 0 1 10.666666 10.666667z"  horiz-adv-x="1024" />

    
    <glyph glyph-name="xinjian" unicode="&#59135;" d="M563.2 861.892923V435.2h426.692923v-102.4H563.2v-426.692923h-102.4V332.8H34.107077v102.4H460.8V861.892923z"  horiz-adv-x="1024" />

    
    <glyph glyph-name="daoxu" unicode="&#59136;" d="M399.701333-97.450667l277.333334 218.624a42.666667 42.666667 0 0 1 16.298666 33.536V241.066667a10.752 10.752 0 0 1-17.322666 8.362666L431.957333 57.173333V864A10.666667 10.666667 0 0 1 421.461333 874.666667H341.333333a10.666667 10.666667 0 0 1-10.666666-10.666667v-927.829333a42.666667 42.666667 0 0 1 69.12-33.621334z"  horiz-adv-x="1024" />

    
    <glyph glyph-name="tuwen" unicode="&#59137;" d="M480.017846 344.616718v-378.090854c0-52.223799-43.007835-94.522713-96.019323-94.522713H96.019323A95.310403 95.310403 0 0 0 0-33.474136V250.094004C0 302.317803 43.007835 344.616718 96.019323 344.616718h383.998523z m447.958893 0A95.310403 95.310403 0 0 0 1023.996062 250.094004v-283.56814c0-52.223799-43.007835-94.522713-96.019323-94.522713H639.997538a95.310403 95.310403 0 0 0-96.019323 94.522713V344.616718h383.998524zM543.978215 801.476499c0 52.223799 43.007835 94.522713 96.019323 94.522713h287.979201A95.310403 95.310403 0 0 0 1023.996062 801.476499v-283.56814c0-52.223799-43.007835-94.522713-96.019323-94.522714H543.978215V801.476499z m-159.979692-551.382495H96.019323v-283.56814h287.9792V250.094004z m543.978216 0H639.997538v-283.56814h287.979201V250.094004z m-287.979201 551.382495v-283.56814h287.979201V801.476499H639.997538z m-255.999015 78.768928a95.310403 95.310403 0 0 0 96.019323-94.522714v-378.090853H96.019323A95.310403 95.310403 0 0 0 0 502.154573V785.722713C0 837.946513 43.007835 880.245427 96.019323 880.245427h287.9792z m0-94.522714H96.019323V502.154573h287.9792V785.722713z"  horiz-adv-x="1024" />

    
    <glyph glyph-name="qingli" unicode="&#59138;" d="M1019.757714-89.453714l-65.316571 376.832h22.016a31.963429 31.963429 0 0 1 32.109714 32.109714V556.251429a31.963429 31.963429 0 0 1-32.109714 32.036571H673.133714V812.763429A31.963429 31.963429 0 0 1 641.024 844.8H443.757714a31.963429 31.963429 0 0 1-32.109714-32.036571v-224.475429H108.324571a31.963429 31.963429 0 0 1-32.109714-32.036571v-236.763429c0-17.773714 14.336-32.109714 32.109714-32.109714h22.089143l-65.389714-376.832a31.963429 31.963429 0 0 1 31.597714-37.522286h891.611429a31.890286 31.890286 0 0 1 31.597714 37.522286zM162.523429 501.979429H498.102857V758.491429h88.795429v-256.512h335.433143v-128.292572H162.596571V501.979429z m577.170285-542.646858v192.365715a9.874286 9.874286 0 0 1-9.874285 9.874285H670.72a9.874286 9.874286 0 0 1-9.874286-9.801142v-192.365715H424.009143v192.365715a9.874286 9.874286 0 0 1-9.874286 9.801142h-59.245714a9.874286 9.874286 0 0 1-9.801143-9.801142v-192.365715H161.060571l55.588572 320.585143h651.337143l55.588571-320.658286h-183.881143z"  horiz-adv-x="1024" />

    
    <glyph glyph-name="baogao" unicode="&#59139;" d="M702.203949 896H148.838027A76.541983 76.541983 0 0 1 72.526246 819.701008V-51.662641A76.541983 76.541983 0 0 1 148.838027-128h725.134572A76.541983 76.541983 0 0 1 950.207646-51.662641V647.893991z m0 0M703.534002 724.346451a76.580349 76.580349 0 0 1 76.286203-76.350148H951.473754L703.534002 896z m0 0M270.05188 314.754125h482.642921q58.82926 0 58.829259-71.029937v-189.417428q0-71.017148-58.829259-71.029936H270.05188q-58.82926 0-58.82926 71.029936V243.762555q0 71.029937 58.82926 71.029936z m0 0M494.741286 599.078495h196.835029a196.83503 196.83503 0 1 1-196.835029-196.822241z m0 0M527.992606 366.93312a196.860608 196.860608 0 0 1 196.83503 196.83503H527.992606zM379.947495 144.123693c-7.826849-3.913425-15.436286-7.392024-23.263135-10.653211v-62.17997c0-14.349224-6.957199-21.741248-20.871599-21.741248h-20.462351l-4.783074 19.784536a129.974297 129.974297 0 0 1 17.827823-1.278897c5.2179 0 8.044262 2.826362 8.044262 8.261674v49.109643q-14.349224-5.2179-28.698448-9.783562l-5.217899 20.462351a301.627846 301.627846 0 0 1 33.916347 9.56615v45.848455h-29.759932v19.784536h29.78551V248.878143h20.219361v-37.61236h22.610898v-19.784536h-22.610898v-38.008817c7.826849 3.4786 15.653699 7.174612 23.263135 11.088037zM408.454108 48.897026h-19.567123v193.11344h100.227154c0-25.654673-1.521887-42.612846-4.130837-51.091933q-4.233149-12.392511-26.089498-12.392512h-16.331514l-5.652725 17.827824c3.261187 0 7.392024-0.217412 12.609924-0.217413a76.260625 76.260625 0 0 1 11.510073 0.652238 9.642883 9.642883 0 0 1 5.435312 4.348249c1.521887 3.261187 2.391537 10.653212 2.826362 22.176074H408.454108v-58.969939h82.181918V146.566386c-3.4786-22.393486-10.435799-41.525784-20.871598-57.179482a172.088374 172.088374 0 0 1 35.655647-24.785023l-13.914399-16.088524a202.628433 202.628433 0 0 0-33.481522 25.872086 121.981191 121.981191 0 0 0-36.090472-26.089498l-10.000974 18.045236a103.296507 103.296507 0 0 1 31.972424 23.480548c-13.914399 17.175586-22.393486 35.655647-25.872086 55.657595H408.454108z m46.961096 55.875008a135.563077 135.563077 0 0 1 15.871112 40.656134h-34.785998a92.963019 92.963019 0 0 1 18.889308-40.656134zM539.310844 173.909203l-12.392511 16.305936c19.183454 15.436286 32.177047 34.351172 39.134247 56.962071l20.462351-2.557794a156.281207 156.281207 0 0 0-9.348737-23.915373h36.525297v29.082116h20.654186v-29.133272h69.354582v-19.784536h-69.38016V170.865429h85.87793v-20.219361h-197.845358V170.865429h91.313242v30.002922h-48.700396a150.398281 150.398281 0 0 0-25.654673-26.959148z m155.449925-124.794764h-20.871598V59.601394h-103.923167v-10.435799H549.132773v82.348174h145.666363z m-20.871598 29.78551v33.046697h-103.923167v-33.046697z"  horiz-adv-x="1024" />

    
    <glyph glyph-name="kanban" unicode="&#59140;" d="M702.586187 894.722698H149.910514A76.433734 76.433734 0 0 1 73.706695 818.518879V-51.757862a76.446507 76.446507 0 0 1 76.203819-76.203819h724.230064A76.446507 76.446507 0 0 1 950.293305-51.757862V646.926168z m0 0M701.168382 724.560566a76.497599 76.497599 0 0 1 76.203819-76.254912h171.439434L701.168382 896z m0 0M270.973169 318.812908h482.053662q58.755878 0 58.755878-70.941337v-189.168381q0-70.941336-58.755878-70.941337h-482.053662q-58.755878 0-58.755878 70.941337v189.168381q0 70.954109 58.755878 70.941337z m0 0M222.282428 731.023712h304.662002v-43.632626H222.282428z m0-96.308548h304.662002v-43.645399H222.282428z m0-96.308548h406.181941v-43.645399h-406.181941z m0-96.372413h497.061957v-43.632626H222.282428z m0 0M388.012324 215.491973c1.73713 3.691402 3.257119 7.382804 4.777108 11.074206-20.436827-1.085706-42.559693-1.73713-66.010952-1.73713l-5.862814 16.93702c61.233844 0 112.91347 4.125684 154.553505 12.159912l9.554217-16.285596a575.39887 575.39887 0 0 0-72.090908-9.771358q-2.273597-6.514239-4.559967-12.377054h77.915404v-17.588444h-86.115681c-2.171413-3.691402-4.125684-7.382804-6.297097-10.857065h105.096384v-18.239868h-117.256296c-3.039978-3.691402-5.862815-7.382804-8.685652-10.857064h105.313525v-104.86647h-19.542716v8.251369h-94.022178v-8.251369h-19.542716v76.855243a364.669635 364.669635 0 0 0-31.932542-24.536965l-11.074206 17.588444a302.924871 302.924871 0 0 1 54.068181 45.816812h-48.409735V187.097556h63.188115c2.554603 3.691402 5.211391 7.382804 7.382804 10.857065h-58.845289v17.537352z m70.78806-74.262321h-94.022178v-10.639923h94.022178z m-94.022178-36.479736h94.022178v10.218413h-94.022178z m0-26.695606h94.022178v11.074206h-94.022178zM551.302573 213.103419V253.517245h20.628423v-40.38828h24.102683v-19.976999h-24.102683v-9.337075c9.337075-9.554217 18.674151-20.19414 28.011226-31.702628l-11.72563-17.588445c-6.079956 11.291347-11.495715 20.845564-16.285596 28.445509v-108.570644h-20.628423v98.990882a264.069353 264.069353 0 0 0-23.885541-50.581148l-8.941112 22.569921a199.259065 199.259065 0 0 1 32.13691 67.69699h-28.407189v20.028091z m162.855967 20.845564a405.275056 405.275056 0 0 0-90.330776-13.245619v-28.228367h84.467961v-15.417032c-2.171413-28.011226-10.422782-52.765333-24.971248-74.083499a159.151792 159.151792 0 0 1 38.434008-30.65524L711.080243 53.951627a160.940014 160.940014 0 0 0-40.873654 32.775562 198.211678 198.211678 0 0 0-42.559693-34.091183l-13.46276 15.851315c17.371303 10.218414 31.702628 21.714129 43.211117 34.742606-13.028477 19.759857-21.714129 42.776834-26.056955 69.268071h-7.599945V155.165014c-1.085706-42.559693-10.218414-76.638102-27.142661-102.043633l-14.765608 15.6214c13.46276 20.845564 20.845564 49.508214 21.93127 86.422233v82.909653c37.348302 0.651424 70.570919 5.645674 99.884993 14.982749zM689.366114 172.497998h-39.698537a141.371752 141.371752 0 0 1 20.436827-52.548192A134.58928 134.58928 0 0 1 689.366114 172.497998z"  horiz-adv-x="1024" />

    
    <glyph glyph-name="wenjianjia" unicode="&#59141;" d="M1258.569143-128H58.002286C25.892571-128 0-106.569143 0-80.091429V701.805714C0 728.283429 25.892571 749.714286 58.002286 749.714286h1200.566857c32.109714 0 58.002286-21.430857 58.002286-47.908572v-781.897143c0-26.331429-26.038857-47.908571-58.002286-47.908571zM658.285714 603.428571H0V848.018286C0 874.569143 25.892571 896 58.002286 896h450.56c25.6 0 48.128-13.824 55.442285-34.157714L658.285714 603.428571zM1258.569143-128H58.002286C25.892571-128 0-103.862857 0-74.093714V622.665143C0 652.434286 25.892571 676.571429 58.002286 676.571429h1200.566857c32.109714 0 58.002286-24.137143 58.002286-53.906286v-696.758857c0-29.696-26.038857-53.906286-58.002286-53.906286z"  horiz-adv-x="1316" />

    
    <glyph glyph-name="tuichudenglu" unicode="&#59142;" d="M733.866667 835.584a9.386667 9.386667 0 0 1-13.653334-8.362667v-74.922666c0-6.4 3.413333-12.373333 8.789334-15.872a415.232 415.232 0 0 0 161.621333-513.877334c-20.906667-49.493333-50.858667-93.866667-89.002667-132.266666-38.144-38.229333-82.602667-68.181333-132.096-89.088a411.477333 411.477333 0 0 0-161.621333-32.682667 411.477333 411.477333 0 0 0-161.536 32.682667A411.904 411.904 0 0 0 214.186667 90.453333 415.232 415.232 0 0 0 125.269333 546.133333a415.232 415.232 0 0 0 161.621334 190.293334 18.602667 18.602667 0 0 1 8.704 15.872v75.093333a9.386667 9.386667 0 0 1-13.482667 8.362667 504.746667 504.746667 0 0 1-278.186667-445.098667C0.682667 112.042667 228.522667-119.466667 506.965333-119.978667a504.149333 504.149333 0 0 1 505.002667 504.405334A504.32 504.32 0 0 1 733.781333 835.584zM470.528 328.021333h74.666667c5.12 0 9.386667 4.181333 9.386666 9.386667V878.592a9.386667 9.386667 0 0 1-9.386666 9.386667h-74.666667a9.386667 9.386667 0 0 1-9.386667-9.386667v-541.354667c0-5.12 4.266667-9.386667 9.386667-9.386666z"  horiz-adv-x="1024" />

    
    <glyph glyph-name="anyehei" unicode="&#59143;" d="M648.704-128C335.786667-128 81.237333 100.437333 81.237333 384.085333 81.237333 664.064 332.544 896 641.28 896h0.426667c13.141333 0 25.088-4.352 30.976-15.018667a27.221333 27.221333 0 0 0-3.498667-32c-67.84-79.616-103.594667-174.336-103.594667-274.944 0-249.088 223.488-451.413333 498.176-451.413333l6.4 0.256a35.925333 35.925333 0 0 0 31.402667-17.237333 28.842667 28.842667 0 0 0-3.498667-33.109334C989.696-54.954667 825.856-128 648.704-128zM572.928 832.768c-238.506667-33.365333-422.4-221.866667-422.4-446.293333 0-249.173333 223.402667-451.754667 498.176-451.754667 132.096 0 255.829333 46.336 348.501333 129.024-281.6 29.952-500.821333 247.637333-500.821333 510.890667 0 91.989333 26.282667 180.053333 76.544 258.133333z m101.546667-853.589333c-227.157333 0-420.437333 147.114667-459.434667 349.866666-1.706667 8.533333 4.608 16.64 14.08 18.090667 9.557333 1.450667 18.346667-4.266667 19.968-12.8 36.096-187.562667 215.04-323.754667 425.472-323.754667 9.557333 0 17.322667-6.997333 17.322667-15.701333s-7.765333-15.701333-17.322667-15.701333zM226.048 362.837333a17.664 17.664 0 0 0-17.237333 16.128 435.029333 435.029333 0 0 0-0.597334 22.528c0 8.704 7.68 15.957333 17.322667 15.957334 9.557333 0 17.237333-6.826667 17.237333-15.530667 0-6.826667 0.256-14.762667 0.597334-21.589333a17.066667 17.066667 0 0 0-16.469334-17.493334h-0.853333z m530.773333 252.928c5.376-14.677333-3.328-30.549333-19.456-35.413333-16.042667-4.949333-33.621333 2.901333-38.997333 17.493333-5.461333 14.677333 3.242667 30.464 19.370667 35.413334 16.128 4.949333 33.536-2.901333 38.997333-17.493334z m200.277334 134.144c5.376-14.677333-3.242667-30.549333-19.370667-35.413333-16.213333-4.949333-33.621333 2.901333-39.082667 17.578667-5.376 14.506667 3.242667 30.378667 19.370667 35.328 16.213333 4.949333 33.621333-2.901333 39.082667-17.493334z m-67.072-250.368c5.461333-14.592-3.242667-30.464-19.285334-35.413333-16.213333-4.864-33.621333 2.986667-39.082666 17.578667-5.461333 14.592 3.242667 30.464 19.370666 35.413333 16.128 4.949333 33.621333-2.986667 38.997334-17.578667z"  horiz-adv-x="1109" />

    
    <glyph glyph-name="mingliangbai" unicode="&#59144;" d="M512 736.402286a35.474286 35.474286 0 0 0-35.474286 35.474285V860.525714a35.474286 35.474286 0 0 0 70.948572 0v-88.649143A35.474286 35.474286 0 0 0 512 736.402286z m249.197714-103.204572a35.474286 35.474286 0 0 0 0 50.176l62.683429 62.683429a35.474286 35.474286 0 1 0 50.176-50.176l-62.683429-62.683429a35.474286 35.474286 0 0 0-50.176 0zM864.402286 384c0 19.602286 15.872 35.474286 35.474285 35.474286h88.649143a35.474286 35.474286 0 0 0 0-70.948572h-88.649143A35.474286 35.474286 0 0 0 864.402286 384z m-103.204572-249.197714c13.897143 13.897143 36.278857 13.897143 50.176 0l62.683429-62.683429a35.474286 35.474286 0 1 0-50.176-50.176l-62.683429 62.683429a35.474286 35.474286 0 0 0 0 50.176zM512 31.597714c19.602286 0 35.474286-15.872 35.474286-35.474285v-88.649143a35.474286 35.474286 0 0 0-70.948572 0v88.649143c0 19.602286 15.872 35.474286 35.474286 35.474285z m-249.197714 103.204572c13.897143-13.897143 13.897143-36.278857 0-50.176l-62.683429-62.683429a35.474286 35.474286 0 0 0-50.176 50.176l62.756572 62.683429c13.824 13.897143 36.278857 13.897143 50.102857 0zM159.597714 384a35.474286 35.474286 0 0 0-35.474285-35.474286H35.474286a35.474286 35.474286 0 0 0 0 70.948572h88.649143c19.602286 0 35.474286-15.872 35.474285-35.474286z m103.204572 249.197714a35.474286 35.474286 0 0 0-50.176 0l-62.683429 62.683429a35.474286 35.474286 0 0 0 50.176 50.176l62.683429-62.756572c13.824-13.824 13.824-36.278857 0-50.102857zM512 647.826286a265.947429 265.947429 0 1 0 0-532.041143 265.947429 265.947429 0 0 0 0 531.968z m0-70.948572a195.072 195.072 0 1 1 0-390.144 195.072 195.072 0 0 1 0 390.070857z"  horiz-adv-x="1024" />

    
    <glyph glyph-name="move" unicode="&#59145;" d="M489.344 862.4a32 32 0 0 0 45.76-0.448l135.296-135.296a32 32 0 1 0-45.248-45.312L544 762.496 544 507.968A128.256 128.256 0 0 0 635.968 416h254.528l-81.152 81.152a32 32 0 0 0-3.648 40.832l3.648 4.416a32 32 0 0 0 45.312 0l135.68-135.744a32 32 0 0 0 0-45.312l-135.68-135.68a32 32 0 0 0-45.312 45.184L890.432 352 635.968 352A128.256 128.256 0 0 0 544 260.032L544 5.568l81.152 81.088a32 32 0 0 0 45.248-45.312l-135.744-135.68a32 32 0 0 0-45.312 0l-135.68 135.68a32 32 0 0 0 45.184 45.312L480 5.504V260.032a128.256 128.256 0 0 0-91.968 91.904L133.44 352l81.216-81.152a32 32 0 0 0 3.648-40.832l-3.648-4.416a32 32 0 0 0-45.312 0L33.664 361.344a32 32 0 0 0 0 45.312l135.68 135.68a32 32 0 0 0 45.312-45.184L133.504 416h254.528A128.192 128.192 0 0 0 480 507.968V762.56L398.848 681.344a32 32 0 0 0-40.832-3.648l-4.416 3.648a32 32 0 0 0 0 45.312zM512 448a64 64 0 1 1 0-128 64 64 0 0 1 0 128z"  horiz-adv-x="1024" />

    
    <glyph glyph-name="controlbackoutfill" unicode="&#59126;" d="M695.296 256a32 32 0 0 0 22.656-54.656l-307.456-307.392a64 64 0 0 0-90.496 0L12.608 201.34400000000005A32 32 0 0 0 35.2 256H192V416a416 416 0 0 0 401.088 415.744L608 832A416 416 0 0 0 1024 416a256 256 0 1 1-512 0V256h183.296z"  horiz-adv-x="1024" />

    
    <glyph glyph-name="interfacedemofill" unicode="&#59127;" d="M991.889652 832.007119a31.99644 31.99644 0 1 0 0-63.992881H959.893212v-639.928808a63.992881 63.992881 0 0 0-63.992881-63.99288h-91.509819l137.456707-137.456708a31.99644 31.99644 0 1 0-45.306959-45.242967L713.904578 64.09254999999996H309.917522L127.345833-118.607125a31.99644 31.99644 0 0 0-45.30696 45.242967L219.495581 64.09254999999996H127.985762a63.992881 63.992881 0 0 0-63.992881 63.99288V768.014238H31.99644a31.99644 31.99644 0 0 0 0 63.992881h959.893212zM436.431447 576.0355959999999a52.474162 52.474162 0 0 1-52.474162-52.474162v-198.569909a52.474162 52.474162 0 0 1 79.479158-45.050988l165.485589 99.316951a52.474162 52.474162 0 0 1 0 89.97399L463.436443 568.5484289999999A52.474162 52.474162 0 0 1 436.431447 576.0355959999999zM447.950166 503.211698l131.569362-78.967215L447.950166 345.27726800000005V503.211698z"  horiz-adv-x="1024" />

    
    <glyph glyph-name="interfacesavefill" unicode="&#59128;" d="M192 832v-256a64 64 0 0 1 64-64h320a64 64 0 0 1 64 64V832h37.76a64 64 0 0 0 45.312-18.752l218.24-218.496a64 64 0 0 0 18.688-45.248V0a64 64 0 0 0-64-64H128a64 64 0 0 0-64 64V768a64 64 0 0 0 64 64h64z m576-448H256a64 64 0 0 1-64-64v-192a64 64 0 0 1 64-64h512a64 64 0 0 1 64 64V320a64 64 0 0 1-64 64zM576 832v-256H448V832h128z"  horiz-adv-x="1024" />

    
    <glyph glyph-name="interfaceexportfill" unicode="&#59129;" d="M896 832a64 64 0 0 0 64-64v-768a64 64 0 0 0-64-64H128a64 64 0 0 0-64 64V768a64 64 0 0 0 64 64h768z m-96-128a32 32 0 0 1-32-32v-576a32 32 0 1 1 64 0v576a32 32 0 0 1-32 32zM498.176 591.616a32 32 0 0 1-40.832-3.712l-3.648-4.416a32 32 0 0 1 3.648-40.832l126.656-126.592L224 416a32 32 0 0 1 0-64h359.488l-126.08-126.08-3.712-4.48a32 32 0 0 1 48.96-40.832l180.992 181.056 3.712 4.48a32 32 0 0 1-3.712 40.768L502.656 587.904z"  horiz-adv-x="1024" />

    
    <glyph glyph-name="interfacecalendarfill" unicode="&#59108;" d="M960 512v-512a64 64 0 0 0-64-64H128a64 64 0 0 0-64 64V512h896zM288 192h-64a32 32 0 0 1-32-32v-64a32 32 0 0 1 32-32h64a32 32 0 0 1 32 32v64a32 32 0 0 1-32 32z m256 0h-64a32 32 0 0 1-32-32v-64a32 32 0 0 1 32-32h64a32 32 0 0 1 32 32v64a32 32 0 0 1-32 32z m256 0h-64a32 32 0 0 1-32-32v-64a32 32 0 0 1 32-32h64a32 32 0 0 1 32 32v64a32 32 0 0 1-32 32z m-512 256h-64a32 32 0 0 1-32-32v-64a32 32 0 0 1 32-32h64a32 32 0 0 1 32 32v64a32 32 0 0 1-32 32z m256 0h-64a32 32 0 0 1-32-32v-64a32 32 0 0 1 32-32h64a32 32 0 0 1 32 32v64a32 32 0 0 1-32 32z m256 0h-64a32 32 0 0 1-32-32v-64a32 32 0 0 1 32-32h64a32 32 0 0 1 32 32v64a32 32 0 0 1-32 32zM192 832v-96a96 96 0 0 1 192 0V832h256v-96a96 96 0 0 1 86.784-95.552L736 640A96 96 0 0 1 832 736V832h64a64 64 0 0 0 64-64v-192H64V768a64 64 0 0 0 64 64h64z m96 64a32 32 0 0 0 32-32v-128a32 32 0 0 0-64 0v128a32 32 0 0 0 32 32z m448 0a32 32 0 0 0 32-32v-128a32 32 0 1 0-64 0v128a32 32 0 0 0 32 32z"  horiz-adv-x="1024" />

    
    <glyph glyph-name="interfaceDataOriginfill" unicode="&#59109;" d="M896 170.66666699999996a85.333333 85.333333 0 0 0 85.333333-85.333334v-85.333333a85.333333 85.333333 0 0 0-85.333333-85.333333H128a85.333333 85.333333 0 0 0-85.333333 85.333333v85.333333a85.333333 85.333333 0 0 0 85.333333 85.333334h768zM170.666667 85.33333300000004a42.666667 42.666667 0 1 1 0-85.333333 42.666667 42.666667 0 0 1 0 85.333333zM896 512a85.333333 85.333333 0 0 0 85.333333-85.333333v-85.333334a85.333333 85.333333 0 0 0-85.333333-85.333333H128a85.333333 85.333333 0 0 0-85.333333 85.333333v85.333334a85.333333 85.333333 0 0 0 85.333333 85.333333h768zM170.666667 426.666667a42.666667 42.666667 0 1 1 0-85.333334 42.666667 42.666667 0 0 1 0 85.333334zM896 853.333333a85.333333 85.333333 0 0 0 85.333333-85.333333v-85.333333a85.333333 85.333333 0 0 0-85.333333-85.333334H128a85.333333 85.333333 0 0 0-85.333333 85.333334V768a85.333333 85.333333 0 0 0 85.333333 85.333333h768zM170.666667 768a42.666667 42.666667 0 1 1 0-85.333333 42.666667 42.666667 0 0 1 0 85.333333z"  horiz-adv-x="1024" />

    
    <glyph glyph-name="interfaceaddfill" unicode="&#59110;" d="M914.304 853.333333C951.296 853.333333 981.333333 823.296 981.333333 786.304V-18.346667000000025c0-36.992-30.037333-67.029333-67.029333-67.029333H109.653333A67.029333 67.029333 0 0 0 42.666667-18.303999999999974V786.346667C42.666667 823.296 72.704 853.333333 109.696 853.333333H914.346667zM512 725.333333a42.666667 42.666667 0 0 1-42.666667-42.666666v-256H213.333333a42.666667 42.666667 0 0 1 0-85.333334h256v-256a42.666667 42.666667 0 0 1 85.333334 0v256h256a42.666667 42.666667 0 0 1 0 85.333334h-256V682.666667a42.666667 42.666667 0 0 1-42.666667 42.666666z"  horiz-adv-x="1024" />

    
    <glyph glyph-name="controldown" unicode="&#59111;" d="M263.04 502.4a32 32 0 0 0 45.312 0l203.584-203.52 203.712 203.52a32 32 0 1 0 45.248-45.184l-225.792-225.792a32 32 0 0 0-45.696-0.448L263.04 457.152a32 32 0 0 0 0 45.248z"  horiz-adv-x="1024" />

    
    <glyph glyph-name="interfacecopy" unicode="&#59112;" d="M928 64a32 32 0 0 1 32 32V768a64 64 0 0 1-64 64H224a32 32 0 1 1 0-64H896v-672a32 32 0 0 1 32-32zM768-64a64 64 0 0 1 64 64V640a64 64 0 0 1-64 64H128a64 64 0 0 1-64-64v-640a64 64 0 0 1 64-64h640z m0 64H128V640h640v-640z m-320 128a32 32 0 0 1 32 32v128h128a32 32 0 0 1 0 64h-128v128a32 32 0 0 1-64 0v-128h-128a32 32 0 0 1 0-64h128v-128a32 32 0 0 1 32-32z"  horiz-adv-x="1024" />

    
    <glyph glyph-name="interfaceexport" unicode="&#59113;" d="M576 832v-64H128v-768h448v-64H128a64 64 0 0 0-64 64V768a64 64 0 0 0 64 64h448z m384-640v-192a64 64 0 0 0-64-64h-192v64h192v192h64z m-269.824 399.616l4.48-3.712 180.992-180.992a32 32 0 0 0 3.712-40.832l-3.712-4.48-180.992-180.992a32 32 0 0 0-48.96 40.832l3.648 4.48 126.144 126.08H288a32 32 0 0 0 0 64h488l-126.656 126.72a32 32 0 0 0-3.648 40.768l3.648 4.48a32 32 0 0 0 40.832 3.648zM896 832a64 64 0 0 0 64-64v-192h-64V768h-192V832h192z"  horiz-adv-x="1024" />

    
    <glyph glyph-name="interfacedel" unicode="&#59114;" d="M864 576a32 32 0 0 0 32-32v-576a32 32 0 0 0-26.24-31.488L864-64h-704a32 32 0 0 0-32 32v576a32 32 0 0 0 64 0V0h640V544a32 32 0 0 0 32 32zM448 512v-384H384V512h64z m192 0v-384H576V512h64z m288 192a32 32 0 1 0 0-64h-832a32 32 0 0 0 0 64h832z m-256 128a32 32 0 1 0 0-64h-320a32 32 0 0 0 0 64h320z"  horiz-adv-x="1024" />

    
    <glyph glyph-name="interfacesharefill" unicode="&#59115;" d="M896 853.333333a85.333333 85.333333 0 0 0 85.333333-85.333333v-768a85.333333 85.333333 0 0 0-85.333333-85.333333H128a85.333333 85.333333 0 0 0-85.333333 85.333333V768a85.333333 85.333333 0 0 0 85.333333 85.333333h768z m-213.333333-128a85.333333 85.333333 0 0 1-83.882667-101.077333L310.613333 449.578667a85.333333 85.333333 0 1 1 0-131.157334l288.170667-174.592a85.333333 85.333333 0 1 1 21.333333 42.24l-282.154666 174.165334a85.376 85.376 0 0 1-1.962667 53.546666l282.624 169.813334A85.333333 85.333333 0 1 1 682.666667 725.333333z"  horiz-adv-x="1024" />

    
    <glyph glyph-name="interfaceredactgraphfill" unicode="&#59116;" d="M742.4 358.4a204.8 204.8 0 1 0 0-409.6 204.8 204.8 0 0 0 0 409.6z m-294.144-7.2192l18.1248-18.1248a25.6 25.6 0 0 0 0-36.1984L158.6432-10.854400000000055a25.6 25.6 0 0 0-36.224 0l-18.0992 18.0736a25.6 25.6 0 0 0 0 36.224l307.7376 307.712a25.6 25.6 0 0 0 36.1984 0zM460.8 819.2a25.6 25.6 0 0 0 25.6-25.6v-358.4a25.6 25.6 0 0 0-25.6-25.6H102.4a25.6 25.6 0 0 0-25.6 25.6V793.6a25.6 25.6 0 0 0 25.6 25.6h358.4z m293.0432-34.3552a25.6 25.6 0 0 0 11.4432-11.4432l163.3792-326.7584A25.6 25.6 0 0 0 905.7792 409.6H579.0208a25.6 25.6 0 0 0-22.8864 37.0432l163.3792 326.7584a25.6 25.6 0 0 0 34.3296 11.4432z"  horiz-adv-x="1024" />

    
    <glyph glyph-name="interfaceupfill" unicode="&#59117;" d="M512 820.992l-339.072-359.04h189.056v-334.976h300.032V461.888h189.056L512 820.992zM361.984 87.03999999999996h300.032v-49.92H361.984v49.92z m0-89.984h300.032v-49.984H361.984v49.984z"  horiz-adv-x="1024" />

    
    <glyph glyph-name="interfacesetfill" unicode="&#59118;" d="M680.512-31.104000000000042l-9.92-46.336A64 64 0 0 0 608-128h-192a64 64 0 0 0-62.592 50.56l-9.92 46.272a451.392 451.392 0 0 0-106.752 61.696l-45.056-14.592a64 64 0 0 0-75.072 28.928l-96 166.272a64 64 0 0 0 12.48 79.488l35.2 31.744a447.552 447.552 0 0 0-0.128 123.328L33.088 477.44A64 64 0 0 0 20.608 556.8l96 166.272a64 64 0 0 0 75.072 28.928l44.992-14.528a447.552 447.552 0 0 0 106.88 61.568L353.344 845.44A64 64 0 0 0 416 896h192a64 64 0 0 0 62.592-50.56l9.92-46.272a451.392 451.392 0 0 0 106.752-61.696l45.056 14.592a64 64 0 0 0 75.072-28.928l96-166.272a64 64 0 0 0-12.48-79.488l-35.2-31.744c5.76-40.896 5.76-82.368 0.128-123.328l35.072-31.68a64 64 0 0 0 12.48-79.488l-96-166.272a64 64 0 0 0-75.072-28.928l-44.992 14.528c-32.64-25.408-68.608-46.08-106.88-61.568zM512 192a192 192 0 1 1 0 384 192 192 0 0 1 0-384z m0 64a128 128 0 1 0 0 256 128 128 0 0 0 0-256z"  horiz-adv-x="1024" />

    
    <glyph glyph-name="interfaceredactpiefill" unicode="&#59119;" d="M486.4 869.7344v-230.9888c-129.3568-12.8512-230.4-122.0096-230.4-254.7456 0-132.736 101.0432-241.8944 230.4-254.72v-231.0144C229.7088-88.42240000000004 25.6 123.95519999999999 25.6 384S229.6832 856.448 486.4 869.7344z m459.136-264.9856A484.352 484.352 0 0 0 998.4 384c0-260.0448-204.0576-472.4224-460.8-485.7344l0.0256 230.9888C666.9824 142.13120000000004 768 251.264 768 384a255.0784 255.0784 0 0 1-22.5536 105.216zM537.6 869.7344c160.2048-8.2944 299.904-94.1312 382.3104-220.672l-200.0896-115.5328A255.7952 255.7952 0 0 1 537.6 638.7456z"  horiz-adv-x="1024" />

    
    <glyph glyph-name="redactimage" unicode="&#59120;" d="M906.9824 844.8A65.8176 65.8176 0 0 0 972.8 778.9824V-11.008A65.8176 65.8176 0 0 0 906.9824-76.8H116.992A65.8176 65.8176 0 0 0 51.2-10.9824V779.008A65.8176 65.8176 0 0 0 117.0176 844.8H907.008zM896 768H128v-768h768V768zM93.9776 787.6608h814.592l0.2048-565.76-135.7312 135.7312a64 64 0 0 1-90.5216 0l-90.7008-90.7008-226.304 226.304a64 64 0 0 1-90.5216 0l-180.8896-180.864-0.128 475.2896zM640 691.2a102.4 102.4 0 1 1 0-204.8 102.4 102.4 0 0 1 0 204.8z"  horiz-adv-x="1024" />

    
    <glyph glyph-name="redactredactcircumfill" unicode="&#59121;" d="M232.2944 383.92319999999995C333.3888 222.15679999999998 512 106.06079999999997 512 106.06079999999997s178.6112 116.096 279.7056 277.8624h102.7328a34.7392 34.7392 0 0 0 34.2016-29.056l69.2736-416.8192c3.5328-21.1712-12.8-40.448-34.2528-40.448H60.3392a34.7392 34.7392 0 0 0-34.2528 40.448l69.4784 416.8448a34.7392 34.7392 0 0 0 34.2016 29.0304zM512 870.4c157.184 0 277.9392-118.4512 277.9392-277.9392 0-91.9552-56.832-192.8448-153.9584-292.4032A1093.0432 1093.0432 0 0 0 512 191.36l-11.7248 8.96a1093.0432 1093.0432 0 0 0-112.256 99.7376c-97.1008 99.5584-153.9584 200.448-153.9584 292.4032C234.0608 751.9488 354.816 870.4 512 870.4z m0-152.8576a111.1552 111.1552 0 1 1 0-222.3616 111.1808 111.1808 0 0 1 0 222.3616z"  horiz-adv-x="1024" />

    
    <glyph glyph-name="interfaceredact" unicode="&#59122;" d="M928 0a32 32 0 1 0 0-64h-448a32 32 0 1 0 0 64h448zM716.8 812.992a64 64 0 0 0 90.56 0l133.632-133.632a64 64 0 0 0 0-90.496l-634.112-634.112a64 64 0 0 0-45.248-18.752L128-63.936a64 64 0 0 0-64 64L64 133.632a64 64 0 0 0 18.752 45.248z m45.312-45.248L128 133.632l0.064-133.568L261.632 0l486.592 486.528-80.128 80.128a32 32 0 0 0 45.248 45.248l80.128-80.128 102.272 102.336-133.632 133.632zM928 192a32 32 0 1 0 0-64h-256a32 32 0 1 0 0 64h256z m0 192a32 32 0 1 0 0-64h-64a32 32 0 1 0 0 64h64z"  horiz-adv-x="1024" />

    
    <glyph glyph-name="redactredacttextfill" unicode="&#59123;" d="M400.5632 819.2l131.7632-564.8384c17.3568 12.288 36.9664 22.9376 58.8288 31.9232 22.9888 9.4464 46.4384 17.9712 70.272 25.5744a5279.744 5279.744 0 0 0 70.272 21.888 579.328 579.328 0 0 1 61.568 22.1696c18.048 7.808 32.5376 16.5632 43.52 26.2144 11.008 9.6512 16.4864 21.248 16.4864 34.816 0 23.5264-13.8752 42.8032-36.352 54.5536-22.528 11.776-47.488 15.7184-73.728 15.7184-26.2144 0-49.6128-5.8368-71.1936-21.5552-21.5808-15.7184-31.3088-38.2464-35.456-70.272l-129.6384 21.5552c7.8848 54.5536 30.208 103.2704 72.4736 139.9296 42.2912 36.6848 97.9712 52.4032 163.84 52.4032 65.8432 0 130.4576-14.4896 180.0192-49.8688 49.5872-35.3536 76.8-98.2016 76.8-147.3792V107.51999999999998c0-86.272 7.7056-121.1904 23.9616-146.0992l-146.1504-4.3264c-14.4128 25.4464-22.2464 49.6384-24.576 79.4624-10.24-12.4416-16.384-17.3056-32.9472-29.824-16.5888-12.544-32.9728-22.528-49.152-29.9008a201.1648 201.1648 0 0 0-48.4864-15.4112c-16.1792-2.8928-32.9728-4.3264-50.3808-4.3264a233.4464 233.4464 0 0 0-79.3088 13.2608l6.0672-1.9968 2.1248-9.1904h-153.0368l-58.368 251.6224H209.3568l-55.2192-251.6224H0L194.4064 819.2h206.1568z m452.7104-548.9664c-9.5232-5.7344-21.9648-10.88-37.2992-15.4112-15.36-4.5056-31.9232-9.1392-49.7664-13.8496-17.8176-4.736-35.7632-9.7792-53.7856-15.104-18.048-5.3504-34.304-11.6224-48.8192-18.816-14.5152-7.168-26.4448-15.616-35.7632-25.2672a47.616 47.616 0 0 1-14.0032-34.2016c0-12.7488 2.0736-23.6288 6.2208-32.6656a62.4896 62.4896 0 0 1 39.808-34.8416c8.704-2.6624 17.408-3.9936 26.112-3.9936 28.6208 0 57.7536 9.5488 87.3984 28.672 29.6448 19.0976 56.2688 47.9488 79.8976 86.5792zM297.0624 610.3552L236.0576 332.4416h125.4912l-64.4864 277.9136z"  horiz-adv-x="1024" />

    
    <glyph glyph-name="interfacesharereport" unicode="&#59124;" d="M608.19264 256a96 96 0 0 0 94.848-111.168l6.976 3.264 170.112 85.056a99.84 99.84 0 0 0 89.472-178.304l-170.112-85.12a320 320 0 0 0-143.104-33.728H207.23264a128 128 0 0 0-57.216 13.44L64.00064-7.488c-39.232 19.584-64 59.712-64 103.552v5.44a128 128 0 0 0 37.568 90.624l26.624 26.496A128 128 0 0 0 154.56064 256h453.632z m0-64H154.56064a64 64 0 0 1-45.184-18.688l-26.56-26.56a64 64 0 0 1-18.816-45.312v-5.44c0-19.584 11.072-37.568 28.608-46.272l86.016-43.008a64 64 0 0 1 28.608-6.72h449.152a256 256 0 0 1 114.496 27.008L940.80064 112a35.712 35.712 0 1 1-32.128 63.936l-170.112-85.056a256 256 0 0 0-114.432-27.008H476.16064c-18.048 0-35.392 7.168-48.128 19.968l-12.032 12.032a18.752 18.752 0 0 0 13.312 32h178.816a32 32 0 0 1 0 64.128zM864.00064 832a32 32 0 0 0 32-32v-448a32 32 0 1 0-64 0V768H192.00064v-416a32 32 0 0 0-26.24-31.488L160.00064 320a32 32 0 0 0-32 32v448a32 32 0 0 0 32 32z m-192-384a32 32 0 1 0 0-64h-320a32 32 0 0 0 0 64z m0 192a32 32 0 1 0 0-64h-320a32 32 0 0 0 0 64z"  horiz-adv-x="1024" />

    
    <glyph glyph-name="interfacereportfill" unicode="&#59125;" d="M213.333333 810.666667v-42.666667a85.333333 85.333333 0 0 1 78.933334-85.12L298.666667 682.666667h426.666666a85.333333 85.333333 0 0 1 85.12 78.933333L810.666667 768V810.666667h85.333333a85.333333 85.333333 0 0 0 85.333333-85.333334v-768a85.333333 85.333333 0 0 0-85.333333-85.333333H128a85.333333 85.333333 0 0 0-85.333333 85.333333V725.333333a85.333333 85.333333 0 0 0 85.333333 85.333334h85.333333z m512-597.333334H298.666667a42.666667 42.666667 0 0 1 0-85.333333h426.666666a42.666667 42.666667 0 0 1 0 85.333333z m0 256H298.666667a42.666667 42.666667 0 0 1 0-85.333333h426.666666a42.666667 42.666667 0 0 1 0 85.333333z m0 426.666667a42.666667 42.666667 0 0 0 42.666667-42.666667v-85.333333a42.666667 42.666667 0 0 0-42.666667-42.666667H298.666667a42.666667 42.666667 0 0 0-42.666667 42.666667V853.333333a42.666667 42.666667 0 0 0 42.666667 42.666667h426.666666z"  horiz-adv-x="1024" />

    


  </font>
</defs>
</svg>
